<svg width="12" height="12" viewBox="0 0 12 12" fill="none" xmlns="http://www.w3.org/2000/svg">
<path d="M11 6C11 6.2765 10.7765 6.5 10.5 6.5H2.70705L5.35355 9.1465C5.54905 9.342 5.54905 9.65805 5.35355 9.85355C5.25605 9.95105 5.12805 10 5.00005 10C4.87205 10 4.74406 9.95105 4.64656 9.85355L1.14656 6.35355C0.951064 6.15805 0.951064 5.842 1.14656 5.6465L4.64656 2.1465C4.84206 1.951 5.15805 1.951 5.35355 2.1465C5.54905 2.342 5.54905 2.65803 5.35355 2.85353L2.70705 5.5H10.5C10.7765 5.5 11 5.7235 11 6Z" fill="white"/>
</svg>
