<svg width="18" height="14" viewBox="0 0 18 14" fill="none" xmlns="http://www.w3.org/2000/svg">
<path d="M17.089 6.41075L11.2557 0.57742C11.0932 0.41492 10.8799 0.333336 10.6666 0.333336C10.4532 0.333336 10.2399 0.41492 10.0774 0.57742C9.75158 0.903254 9.75158 1.43 10.0774 1.75584L14.4882 6.16667L1.4999 6.16667C1.03906 6.16667 0.666564 6.53917 0.666564 7C0.666564 7.46084 1.03906 7.83334 1.4999 7.83334L14.4882 7.83334L10.0774 12.2441C9.75158 12.5699 9.75158 13.0967 10.0774 13.4225C10.4032 13.7483 10.9298 13.7483 11.2557 13.4225L17.089 7.58917C17.4148 7.26334 17.4148 6.73659 17.089 6.41075Z" fill="#181A1F"/>
</svg>
