<svg width="336" height="29" viewBox="0 0 336 29" fill="none" xmlns="http://www.w3.org/2000/svg">
<path d="M0 0H45C53.2843 0 60 6.71573 60 15V24H15C6.71573 24 0 17.2843 0 9V0Z" fill="black"/>
<g filter="url(#filter0_d_206_10639)">
<path d="M10.8002 12.5709C9.98191 12.5714 9.18213 12.8144 8.50198 13.2694C7.82183 13.7244 7.29187 14.3709 6.97913 15.1271C6.66639 15.8833 6.5849 16.7152 6.74498 17.5177C6.90505 18.3202 7.2995 19.0572 7.87844 19.6355C8.45738 20.2138 9.19481 20.6075 9.99748 20.7667C10.8001 20.9259 11.632 20.8435 12.3879 20.5299C13.1437 20.2164 13.7896 19.6857 14.2438 19.0051C14.6981 18.3245 14.9403 17.5244 14.9399 16.7061C14.9411 16.1623 14.8348 15.6237 14.6271 15.1212C14.4194 14.6187 14.1145 14.1621 13.7298 13.7779C13.3451 13.3936 12.8882 13.0891 12.3855 12.882C11.8827 12.6749 11.344 12.5691 10.8002 12.5709ZM10.8002 19.9512C10.1579 19.9521 9.52969 19.7624 8.99514 19.4062C8.46058 19.05 8.04366 18.5433 7.79713 17.9502C7.5506 17.357 7.48551 16.7041 7.61012 16.0739C7.73473 15.4438 8.04344 14.8647 8.49718 14.41C8.95092 13.9554 9.52933 13.6455 10.1592 13.5195C10.7891 13.3936 11.4422 13.4574 12.0359 13.7027C12.6295 13.948 13.1371 14.3638 13.4944 14.8977C13.8517 15.4315 14.0426 16.0593 14.0431 16.7016C14.0451 17.1276 13.963 17.5498 13.8014 17.944C13.6398 18.3381 13.4019 18.6965 13.1014 18.9985C12.8009 19.3004 12.4437 19.54 12.0504 19.7035C11.657 19.867 11.2352 19.9512 10.8092 19.9512H10.8002Z" fill="white"/>
<path d="M48.6364 12.5711C47.818 12.5711 47.018 12.8138 46.3376 13.2685C45.6571 13.7232 45.1268 14.3695 44.8137 15.1257C44.5007 15.8818 44.4189 16.7138 44.5787 17.5165C44.7385 18.3191 45.1328 19.0563 45.7116 19.6349C46.2905 20.2134 47.0279 20.6073 47.8306 20.7667C48.6334 20.9261 49.4653 20.8438 50.2213 20.5303C50.9773 20.2168 51.6233 19.6862 52.0777 19.0055C52.532 18.3248 52.7743 17.5246 52.7739 16.7062C52.7747 16.1628 52.6683 15.6245 52.4607 15.1222C52.253 14.62 51.9483 14.1637 51.5639 13.7795C51.1795 13.3953 50.723 13.0908 50.2206 12.8834C49.7183 12.676 49.1799 12.5699 48.6364 12.5711ZM48.6364 19.9513C47.994 19.9526 47.3656 19.7634 46.8307 19.4075C46.2959 19.0516 45.8786 18.545 45.6317 17.9519C45.3849 17.3588 45.3195 16.7057 45.4438 16.0754C45.5682 15.4451 45.8767 14.8659 46.3304 14.411C46.784 13.9561 47.3624 13.646 47.9924 13.5199C48.6223 13.3938 49.2755 13.4574 49.8693 13.7026C50.4631 13.9478 50.9708 14.3637 51.3282 14.8976C51.6856 15.4314 51.8766 16.0593 51.877 16.7018C51.8788 17.1275 51.7965 17.5494 51.635 17.9433C51.4734 18.3372 51.2357 18.6953 50.9355 18.9972C50.6353 19.299 50.2785 19.5387 49.8855 19.7024C49.4925 19.8662 49.0711 19.9507 48.6454 19.9513H48.6364Z" fill="white"/>
<path d="M54.0064 10.594C51.5776 7.34444 44.1661 7.46297 42.6878 7.35115C38.5213 7.00897 35.4171 2.79999 26.6525 2.79999C17.8879 2.79999 14.5757 5.2243 13.3546 5.74986C12.4019 6.15913 7.98716 6.64443 6.10855 6.83229C6.07849 6.83634 6.05093 6.85115 6.03097 6.87397C6.01101 6.8968 6 6.92609 6 6.95642C6 6.98674 6.01101 7.01603 6.03097 7.03886C6.05093 7.06169 6.07849 7.0765 6.10855 7.08054L8.02518 7.46521C17.9639 9.68823 35.9114 9.03072 43.7098 9.03072C51.5083 9.03072 53.8163 11.0435 53.8163 11.0435L54.4 11.2314C54.2799 11.0122 54.1486 10.7995 54.0064 10.594ZM15.1706 7.46297C18.2323 3.10862 25.5857 3.377 25.5857 3.377L26.1023 7.52112L15.1706 7.46297ZM27.234 7.4831L26.7263 3.377C26.7263 3.377 34.5695 3.42396 38.4497 7.80515L27.234 7.4831Z" fill="white"/>
<path d="M6.48926 8.19207C7.09981 8.39335 7.71036 8.5991 8.32538 8.79591C11.5672 9.84242 14.8806 10.6526 18.2395 11.2202C21.142 11.7232 24.0808 11.9872 27.0265 12.0097C28.6434 12.0097 30.2581 11.9157 31.8729 11.8285C33.2147 11.7547 34.5365 11.6339 35.8671 11.5221C37.1978 11.4103 38.5509 11.2716 39.8927 11.1598C42.6862 10.8971 45.4918 10.7852 48.2973 10.8244C49.6611 10.8439 51.0158 11.0517 52.3229 11.4416C52.8744 11.6091 53.4009 11.8498 53.8884 12.1573C53.7542 12.0387 53.6267 11.9113 53.4836 11.8062C52.7015 11.2705 51.8297 10.8796 50.9094 10.6522C49.5375 10.2833 48.1289 10.068 46.7094 10.0103C44.5211 9.89014 42.3281 9.88043 40.1387 9.98122C39.0205 10.0259 37.9023 10.1042 36.7841 10.1736C35.3528 10.2585 33.9214 10.3569 32.4901 10.4397C31.0588 10.5224 29.5827 10.6343 28.1335 10.6633C26.5166 10.6879 24.8974 10.6633 23.2849 10.5895C21.8737 10.5247 20.467 10.3905 19.0625 10.2317C17.4456 10.0483 15.8264 9.84927 14.2206 9.57866C11.6621 9.13137 9.1126 8.64383 6.55859 8.17194C6.53777 8.1697 6.51677 8.1697 6.49596 8.17194L6.48926 8.19207Z" fill="white"/>
<path d="M6.60938 8.46279C9.61962 9.67941 15.9667 11.2248 15.9823 11.2293C14.4794 11.1152 14.0008 11.0817 13.019 10.9273C12.0143 10.7804 11.0268 10.5331 10.0714 10.1893C8.86552 9.7243 7.70634 9.14621 6.60938 8.46279Z" fill="white"/>
<path d="M39.3938 18.9359L43.0593 17.2138L18.501 17.5873L39.3938 18.9359Z" fill="white"/>
<path d="M15.9824 18.2559L17.5613 17.453L38.6979 17.7594L36.3564 18.9358L15.9824 18.2559Z" fill="white" stroke="#181A1F" stroke-width="0.2" stroke-miterlimit="10"/>
<path d="M30.9783 16.411L30.2716 14.6398C30.1531 14.3446 30.1531 14.3513 29.8243 14.3423C29.7783 14.3363 29.7317 14.348 29.6939 14.3749C29.6562 14.4019 29.63 14.4422 29.6208 14.4877C29.4941 14.8276 29.3643 15.1653 29.2316 15.5008L28.8403 16.4982L28.1582 15.55L28.2275 15.5276C28.3626 15.495 28.4805 15.4127 28.5576 15.2971C28.6347 15.1814 28.6653 15.0409 28.6435 14.9037C28.6471 14.7662 28.5962 14.6329 28.502 14.5328C28.4077 14.4326 28.2777 14.3738 28.1403 14.3692C27.722 14.3401 27.3016 14.3692 26.8789 14.3692V16.5251H27.3128V15.6305C27.4104 15.6056 27.5134 15.6125 27.6067 15.6504C27.7001 15.6882 27.7789 15.7549 27.8316 15.8407C27.9613 16.0443 28.0978 16.2455 28.2409 16.4401C28.2751 16.4875 28.3265 16.5196 28.384 16.5296C28.6591 16.5296 28.932 16.5296 29.207 16.5296C29.2342 16.5251 29.2599 16.5142 29.2821 16.4979C29.3042 16.4816 29.3222 16.4602 29.3345 16.4356C29.3994 16.3104 29.4106 16.1225 29.509 16.0599C29.6074 15.9973 29.793 16.0353 29.9384 16.0353C30.3476 16.0353 30.3476 16.0353 30.4952 16.42C30.4952 16.4379 30.4952 16.4647 30.5176 16.4781C30.54 16.4915 30.5713 16.5318 30.5981 16.5318C30.7323 16.5318 30.8665 16.5318 31.0141 16.5318C31.0051 16.4669 30.9895 16.4401 30.9783 16.411ZM28.015 15.2302C27.7914 15.2593 27.5677 15.2637 27.3128 15.2772V14.7337C27.5498 14.7337 27.7824 14.7203 28.015 14.7337C28.1313 14.7337 28.1895 14.8455 28.1917 14.9573C28.1939 15.0692 28.147 15.2123 28.015 15.2302ZM29.6275 15.6439L29.9115 14.8634C30.0144 15.143 30.1039 15.3845 30.1978 15.6439H29.6275Z" fill="white"/>
<path d="M17.7782 15.4068C17.7536 15.3934 17.7312 15.3755 17.7044 15.3576C17.9415 15.1339 18.0175 14.9371 17.928 14.7113C17.8906 14.6058 17.8211 14.5148 17.7292 14.451C17.6373 14.3873 17.5277 14.3539 17.4159 14.3557C17.0335 14.34 16.6488 14.3557 16.2529 14.3557V16.4982C16.7002 16.4982 17.1274 16.4982 17.5568 16.4982C17.6815 16.4867 17.7986 16.4334 17.8892 16.3469C17.9797 16.2604 18.0384 16.1458 18.0555 16.0218C18.0883 15.903 18.0786 15.7765 18.0279 15.6642C17.9773 15.5519 17.8889 15.4608 17.7782 15.4068ZM16.6913 14.7247C16.9149 14.7247 17.1386 14.7247 17.3443 14.7247C17.474 14.7247 17.5299 14.8343 17.5277 14.9483C17.5277 15.0076 17.5041 15.0645 17.4622 15.1065C17.4203 15.1484 17.3634 15.172 17.3041 15.172C17.105 15.1831 16.906 15.172 16.6958 15.172L16.6913 14.7247ZM17.3622 16.1448C17.1386 16.1605 16.9149 16.1448 16.6913 16.1448V15.5946C16.9149 15.5946 17.152 15.579 17.3779 15.5946C17.5478 15.6103 17.6015 15.7109 17.6015 15.8831C17.604 15.9163 17.5996 15.9495 17.5887 15.9809C17.5779 16.0123 17.5607 16.0411 17.5383 16.0656C17.5159 16.0901 17.4887 16.1097 17.4584 16.1234C17.4282 16.137 17.3954 16.1443 17.3622 16.1448Z" fill="white"/>
<path d="M40.6372 15.55L40.7066 15.5254C40.8415 15.4928 40.9592 15.4104 41.0359 15.2947C41.1127 15.1789 41.1428 15.0385 41.1203 14.9015C41.1241 14.7699 41.0769 14.642 40.9885 14.5444C40.9001 14.4469 40.7775 14.3873 40.6462 14.3781C40.2212 14.3468 39.7896 14.3781 39.3535 14.3781V16.5229H39.8008V15.6283C39.9004 15.599 40.0071 15.6053 40.1026 15.6461C40.1981 15.687 40.2764 15.7597 40.3241 15.8519C40.4561 16.0487 40.5858 16.2456 40.72 16.4379C40.7457 16.4812 40.7875 16.5126 40.8363 16.5251C40.9861 16.5251 41.136 16.5251 41.3372 16.5251L40.6372 15.55ZM40.4874 15.2302C40.2637 15.2615 40.0401 15.2638 39.7986 15.2794V14.7292C40.0222 14.7292 40.2459 14.7292 40.4695 14.7292C40.5947 14.7292 40.6529 14.8411 40.6551 14.9663C40.6574 15.0915 40.6216 15.2123 40.4874 15.2302Z" fill="white"/>
<path d="M32.9641 14.3601V16.5228C32.8359 16.5295 32.7075 16.5295 32.5794 16.5228C32.5369 16.5228 32.4922 16.4579 32.4631 16.4132L31.7609 15.2726C31.7407 15.2391 31.7161 15.2077 31.6669 15.1362V16.5183H31.2666V14.3512C31.3894 14.3422 31.5128 14.3422 31.6356 14.3512C31.6826 14.3512 31.7318 14.4205 31.7631 14.4697C32.0046 14.8589 32.2417 15.2502 32.4788 15.6394C32.4944 15.664 32.5123 15.6863 32.5526 15.7423V14.3579L32.9641 14.3601Z" fill="white"/>
<path d="M24.7923 16.5228C24.5955 16.5228 24.4255 16.5228 24.2578 16.5228C24.2175 16.5228 24.175 16.4535 24.146 16.4065C23.9715 16.1158 23.8015 15.8206 23.636 15.5366C23.1888 15.7446 23.2491 16.1337 23.2715 16.5228H22.8242V14.3647H23.2536V15.2592L23.2916 15.2727C23.4638 15.0848 23.6405 14.9014 23.8105 14.7113C24.1504 14.3311 24.1504 14.3289 24.6536 14.3513C24.6771 14.355 24.7002 14.3602 24.723 14.3669L23.9223 15.1966L24.7923 16.5228Z" fill="white"/>
<path d="M38.9639 16.147V16.5138H37.3291V14.3579H38.9282V14.7157H37.7786V15.1898H38.832V15.5611H37.7764V16.147H38.9639Z" fill="white"/>
<path d="M35.0813 16.0196C35.0622 16.1462 35.0027 16.2631 34.9115 16.353C34.8204 16.4429 34.7027 16.5009 34.5759 16.5183C34.3685 16.5519 34.157 16.5519 33.9497 16.5183C33.778 16.4973 33.6203 16.4129 33.5074 16.2819C33.3945 16.1508 33.3345 15.9823 33.3391 15.8094C33.4053 15.8067 33.4711 15.7985 33.5359 15.7848C33.6768 15.7445 33.7596 15.7669 33.8155 15.9257C33.8509 15.9915 33.9008 16.0485 33.9614 16.0922C34.022 16.136 34.0917 16.1654 34.1653 16.1784C34.239 16.1913 34.3146 16.1873 34.3865 16.1668C34.4583 16.1463 34.5246 16.1097 34.5803 16.0599C34.6058 16.0356 34.6251 16.0056 34.6368 15.9725C34.6485 15.9393 34.6522 15.9039 34.6476 15.869C34.643 15.8342 34.6303 15.8009 34.6105 15.7719C34.5906 15.7429 34.5642 15.7189 34.5334 15.702C34.4034 15.6508 34.2705 15.6075 34.1353 15.5723C33.9939 15.5335 33.8556 15.4842 33.7216 15.4247C33.6198 15.378 33.535 15.3008 33.4789 15.2039C33.4229 15.107 33.3982 14.995 33.4084 14.8835C33.4093 14.7742 33.4439 14.6678 33.5075 14.5789C33.5712 14.49 33.6608 14.423 33.764 14.387C33.9104 14.3259 34.0678 14.2958 34.2264 14.2985C34.385 14.3012 34.5413 14.3366 34.6855 14.4027C34.7946 14.4494 34.8865 14.529 34.9482 14.6304C35.01 14.7319 35.0385 14.85 35.0299 14.9685H34.6005C34.5829 14.9081 34.5523 14.8524 34.5108 14.8052C34.4692 14.758 34.4178 14.7206 34.3601 14.6956C34.3024 14.6706 34.2399 14.6587 34.1771 14.6606C34.1143 14.6625 34.0527 14.6783 33.9966 14.7068C33.9318 14.7337 33.8468 14.8164 33.8446 14.8768C33.8507 14.9158 33.8664 14.9528 33.8902 14.9844C33.914 15.016 33.9451 15.0412 33.981 15.0579C34.2046 15.1407 34.4283 15.1944 34.6519 15.2659C34.7301 15.2863 34.8034 15.3222 34.8676 15.3714C34.9317 15.4206 34.9854 15.4821 35.0254 15.5523C35.0654 15.6225 35.0909 15.7001 35.1005 15.7803C35.1102 15.8606 35.1036 15.9419 35.0813 16.0196Z" fill="white"/>
<path d="M43.1889 15.8855C43.1918 16.0186 43.1518 16.1491 43.0749 16.2578C42.998 16.3665 42.8882 16.4477 42.7618 16.4893C42.4859 16.5854 42.1856 16.5854 41.9097 16.4893C41.768 16.4412 41.6458 16.3485 41.5611 16.2252C41.4765 16.1018 41.434 15.9544 41.44 15.8049L41.8359 15.7647C41.9924 16.1382 42.2272 16.2634 42.5359 16.1426C42.593 16.1299 42.6444 16.0987 42.682 16.0538C42.7196 16.0089 42.7413 15.9529 42.7439 15.8944C42.7439 15.758 42.6566 15.6954 42.5471 15.6708C42.3368 15.6037 42.1244 15.5545 41.9164 15.4829C41.809 15.4519 41.713 15.3903 41.6399 15.3058C41.5669 15.2212 41.52 15.1173 41.5049 15.0065C41.4831 14.8748 41.5089 14.7397 41.5778 14.6253C41.6467 14.511 41.754 14.4249 41.8806 14.3826C42.1587 14.273 42.468 14.273 42.7461 14.3826C42.8628 14.4257 42.9625 14.5054 43.0302 14.6098C43.0979 14.7142 43.13 14.8377 43.1218 14.9618H42.6969C42.6783 14.9007 42.6463 14.8445 42.6035 14.7971C42.5606 14.7498 42.5078 14.7125 42.4488 14.688C42.3898 14.6634 42.3262 14.6521 42.2624 14.655C42.1985 14.6579 42.1362 14.6748 42.0796 14.7046C42.017 14.7315 41.9387 14.8075 41.9365 14.8656C41.94 14.9026 41.9527 14.9381 41.9734 14.969C41.9941 14.9998 42.0222 15.025 42.055 15.0423C42.2062 15.102 42.3608 15.1528 42.518 15.1944C42.5985 15.219 42.6812 15.2391 42.7595 15.266C42.8914 15.3041 43.0061 15.3866 43.0843 15.4994C43.1625 15.6122 43.1995 15.7486 43.1889 15.8855Z" fill="white"/>
<path d="M20.3548 16.4066L19.6436 14.6174C19.5318 14.3401 19.5318 14.3468 19.2366 14.3356C19.0935 14.3356 19.0376 14.3804 18.9906 14.5101C18.7849 15.0603 18.5679 15.6059 18.3532 16.1539C18.3085 16.2702 18.266 16.3775 18.2168 16.5162C18.3487 16.5162 18.4583 16.5162 18.5679 16.5162C18.5857 16.5197 18.6041 16.5196 18.6218 16.5158C18.6396 16.512 18.6564 16.5047 18.6713 16.4943C18.6861 16.4838 18.6987 16.4704 18.7082 16.455C18.7177 16.4395 18.724 16.4223 18.7267 16.4044C18.7692 16.2769 18.7916 16.1002 18.8855 16.0398C18.9794 15.9794 19.1606 16.0152 19.3015 16.0152C19.7242 16.0152 19.7242 16.0152 19.8785 16.4111C19.8785 16.4245 19.8785 16.4446 19.8941 16.4536C19.9098 16.4625 19.9567 16.5095 19.9881 16.5117C20.12 16.5117 20.2497 16.5117 20.3928 16.5117C20.3772 16.467 20.3683 16.4379 20.3548 16.4066ZM19.013 15.644C19.1047 15.3868 19.1941 15.143 19.2948 14.8634C19.3999 15.143 19.4871 15.3868 19.5833 15.644H19.013Z" fill="white"/>
<path d="M22.0877 15.7401L22.4299 15.8474C22.4034 16.0401 22.3092 16.217 22.1641 16.3465C22.019 16.476 21.8326 16.5496 21.6382 16.5542C20.927 16.5899 20.4663 16.0577 20.5535 15.2973C20.6139 14.7628 20.8644 14.4273 21.3005 14.3378C21.8529 14.2238 22.3069 14.4318 22.4344 14.9439L22.0139 15.0468C21.8775 14.7538 21.7344 14.6644 21.4615 14.6912C21.3485 14.7006 21.243 14.7515 21.1654 14.8341C21.0877 14.9167 21.0435 15.0251 21.0411 15.1385C21.0149 15.3573 21.0202 15.5787 21.0567 15.796C21.0709 15.9043 21.1242 16.0036 21.2066 16.0753C21.289 16.147 21.3948 16.1861 21.504 16.1851C21.6103 16.1947 21.7166 16.1659 21.8035 16.104C21.8905 16.042 21.9524 15.951 21.9781 15.8474L22.0184 15.7468C22.0412 15.7421 22.0645 15.7399 22.0877 15.7401Z" fill="white"/>
<path d="M36.9402 14.7179H35.9047C35.9047 14.8633 35.9047 14.984 35.9047 15.1026C35.9047 15.2211 35.9382 15.2323 36.0322 15.23C36.2379 15.23 36.4437 15.23 36.6494 15.23C36.7009 15.23 36.7523 15.23 36.8105 15.23V15.5901H35.9159V16.5048H35.4775V14.3489H36.9379L36.9402 14.7179Z" fill="white"/>
<path d="M26.57 14.3603V14.7159H25.9482V16.514H25.5077V14.7271H24.8613V14.3603H26.57Z" fill="white"/>
</g>
<path d="M87.2617 12.6157C86.8329 12.2899 86.3596 12.0206 85.8742 11.705C85.912 11.6193 85.9171 11.585 85.936 11.5695C86.0271 11.502 86.1215 11.439 86.2189 11.3809C87.723 10.5234 88.6543 9.29541 88.5239 7.49291C88.3919 5.65439 87.2531 4.46759 85.6187 3.92907C84.1936 3.43441 82.703 3.15409 81.1956 3.09728C77.3711 3.02696 73.5448 3.16588 69.7169 3.20361C69.2212 3.20361 69 3.3391 69 3.87933C69.0137 9.3057 69.0137 14.7321 69 20.1584C69 20.6901 69.2075 20.8444 69.71 20.8444C71.2536 20.8444 72.7971 20.8873 74.3406 20.8976C76.9955 20.9148 79.6572 20.9937 82.3052 20.8976C84.2107 20.8342 86.0423 20.3454 87.5207 19.0111C89.5152 17.224 89.3918 14.2399 87.2617 12.6157ZM72.9137 6.71943C72.9 6.18948 73.0423 5.96138 73.6306 5.95795C75.9699 5.94766 78.3126 5.81561 80.6502 5.87563C81.645 5.90136 82.662 6.19634 83.607 6.53935C84.305 6.79318 84.7011 7.46204 84.6823 8.25438C84.6819 8.61719 84.5665 8.97053 84.3526 9.2636C84.1387 9.55667 83.8374 9.77436 83.492 9.88538C82.7508 10.1682 81.9739 10.3471 81.1836 10.417C79.9625 10.5045 78.7311 10.4411 77.5032 10.4411C76.2186 10.4411 74.9306 10.4205 73.6495 10.4513C73.0886 10.4668 72.8949 10.2678 72.9137 9.71216C72.9463 8.71744 72.9429 7.71758 72.9137 6.71943ZM84.1678 16.9942C83.4577 17.4933 82.5145 17.8843 81.6621 17.9135C78.9301 18.0009 76.1911 17.9135 73.4574 17.8449C73.2756 17.8449 72.9566 17.4881 72.9429 17.2875C72.8931 16.1212 72.9326 14.9516 72.912 13.7819C72.912 13.2674 73.1573 13.1697 73.598 13.1765C74.9392 13.192 76.2786 13.1765 77.618 13.1765V13.1851C78.8443 13.1851 80.0791 13.0925 81.2917 13.216C82.2219 13.2916 83.1293 13.5437 83.9654 13.9586C85.2277 14.6326 85.3323 16.1778 84.1678 16.9942Z" fill="#181A1F"/>
<path d="M308.187 14.7938C309.489 14.0855 310.842 13.559 311.943 12.7066C314.546 10.6932 314.539 7.37801 312.008 5.27023C311.339 4.73933 310.602 4.29879 309.818 3.95995C308.286 3.26193 306.648 3.02697 304.971 3.05269C301.541 3.10757 298.111 3.18132 294.681 3.19333C293.94 3.19333 293.707 3.38026 293.712 4.1486C293.745 9.40689 293.729 14.6635 293.729 19.9269C293.708 20.0985 293.716 20.2723 293.751 20.4414C293.799 20.5769 293.947 20.7741 294.053 20.7759C295.266 20.7981 296.48 20.7896 297.771 20.7896V14.7389C298.588 14.7389 299.324 14.7304 300.059 14.7389C301.313 14.7561 302.747 14.4165 303.767 14.9104C304.757 15.3924 305.311 16.7472 306.071 17.7162C306.858 18.7264 307.46 20.1173 308.496 20.6318C309.531 21.1463 311.01 20.7793 312.293 20.7879C312.691 20.7879 313.09 20.7518 313.665 20.7244C312.608 19.577 311.703 18.5909 310.794 17.6082C309.885 16.6255 308.984 15.6565 308.187 14.7938ZM306.028 11.916C303.431 11.9812 300.833 11.916 298.236 11.9006C298.086 11.8845 297.938 11.8534 297.794 11.8079V6.45704C297.953 6.40759 298.117 6.37314 298.283 6.35413C300.536 6.29411 302.793 6.15176 305.043 6.22722C306.177 6.24784 307.292 6.51531 308.312 7.01099C310.241 8.01943 310.199 10.2164 308.297 11.2763C307.6 11.6632 306.823 11.8822 306.028 11.916Z" fill="#181A1F"/>
<path d="M187.303 12.7066C189.904 10.676 189.899 7.39001 187.371 5.27022C186.703 4.73891 185.967 4.29886 185.183 3.96165C183.653 3.26192 182.015 3.02696 180.338 3.0544C176.94 3.10585 173.543 3.18646 170.144 3.1916C169.329 3.1916 169.077 3.40941 169.082 4.24292C169.118 9.41203 169.101 14.5811 169.101 19.7503V20.7347H173.116V14.7321C174.978 14.7321 176.743 14.6995 178.506 14.7595C178.934 14.8046 179.33 15.0091 179.614 15.3323C180.369 16.2241 181.027 17.1966 181.742 18.1244C182.418 19.0025 182.953 20.1824 183.852 20.6421C184.72 21.0846 185.972 20.7741 187.054 20.7878C187.652 20.7878 188.254 20.7878 189.093 20.7878L183.555 14.7852C184.855 14.0855 186.208 13.5624 187.303 12.7066ZM182.194 11.8148C179.206 11.8765 176.215 11.844 173.147 11.844V6.29581C174.117 6.29581 175.052 6.30953 175.987 6.29581C177.501 6.27009 179.014 6.21178 180.527 6.19634C181.718 6.18434 182.864 6.39529 183.869 7.08644C185.485 8.19779 185.49 10.1186 183.845 11.1802C183.355 11.4941 182.751 11.8028 182.194 11.8148Z" fill="#181A1F"/>
<path d="M229.81 17.0182V15.9978C229.81 12.0532 229.833 8.10861 229.793 4.1726C229.793 3.39912 230.028 3.15387 230.769 3.23277C231.282 3.29219 231.8 3.29219 232.313 3.23277C233.141 3.12815 233.295 3.49517 233.29 4.24635C233.259 8.93183 233.275 13.6156 233.275 18.3011V20.7827C231.273 20.7827 229.368 20.8067 227.466 20.7518C227.221 20.7518 226.951 20.3505 226.754 20.0847C223.782 15.9229 220.817 11.7588 217.86 7.59238C217.647 7.29568 217.308 7.08988 217.028 6.8412L216.778 7.00413V20.7861C215.689 20.7861 214.699 20.8153 213.717 20.7553C213.567 20.7467 213.334 20.3265 213.326 20.0916C213.286 18.891 213.307 17.6905 213.307 16.49C213.307 12.3739 213.322 8.25782 213.293 4.15031C213.293 3.45401 213.464 3.19846 214.195 3.22419C215.649 3.27907 217.111 3.26707 218.565 3.22419C218.815 3.20133 219.067 3.24994 219.291 3.36437C219.515 3.47881 219.702 3.65439 219.831 3.87076C222.791 8.10804 225.768 12.3333 228.763 16.5466C228.956 16.8193 229.277 16.9976 229.55 17.2206L229.81 17.0182Z" fill="#181A1F"/>
<path d="M278.937 6.34899V10.616H290.509V13.3892C290.193 13.4081 289.864 13.4441 289.536 13.4458C286.278 13.4458 283.019 13.463 279.76 13.4355C279.095 13.4355 278.846 13.607 278.881 14.305C278.934 15.3838 278.894 16.466 278.894 17.6339C279.301 17.6528 279.632 17.6837 279.963 17.6837C283.678 17.6837 287.392 17.7042 291.111 17.6699C291.848 17.6699 292.104 17.8414 292.09 18.6235C292.052 20.7947 292.09 20.7964 289.956 20.7964C285.24 20.7964 280.524 20.781 275.811 20.8119C275.082 20.8119 274.826 20.6575 274.833 19.872C274.87 14.6423 274.87 9.41262 274.833 4.18291C274.833 3.42829 275.032 3.22077 275.79 3.22592C280.907 3.26022 286.022 3.26022 291.136 3.22592C291.908 3.22592 292.1 3.45573 292.086 4.19834C292.05 6.34728 292.086 6.34899 289.922 6.34899H278.937Z" fill="#181A1F"/>
<path d="M235.058 14.7852C235.933 15.2998 236.624 15.7508 237.353 16.1264C240.851 17.9757 244.915 18.4457 248.742 17.4435C249.433 17.2617 250.076 16.9336 250.629 16.4814C251.749 15.5656 251.474 13.986 250.092 13.5847C249.063 13.288 247.962 13.2417 246.887 13.1714C244.755 13.0222 242.599 13.0513 240.493 12.7564C239.313 12.5583 238.187 12.1142 237.19 11.4529C234.779 9.9094 234.718 6.71944 237.037 5.03356C237.845 4.44614 238.754 4.01404 239.72 3.75929C243.995 2.66853 248.26 2.75771 252.457 4.20349C253.838 4.68026 253.829 4.71799 253.829 6.20664V7.75017C253.198 7.48263 252.716 7.25453 252.219 7.06416C249.027 5.83665 245.556 5.52596 242.198 6.1672C241.447 6.32386 240.738 6.63966 240.119 7.09332C239.179 7.77933 239.287 8.99872 240.359 9.43605C241.289 9.78593 242.267 9.99182 243.259 10.0466C245.588 10.2267 247.936 10.2061 250.255 10.4599C251.299 10.5731 252.366 11.0156 253.292 11.5387C255.815 12.969 256.16 16.0458 254.08 18.0644C252.34 19.7537 250.121 20.4054 247.811 20.769C243.475 21.455 239.407 20.5855 235.566 18.5274C235.353 18.4125 235.098 18.1381 235.087 17.9272C235.029 16.9393 235.058 15.9446 235.058 14.7852Z" fill="#181A1F"/>
<path d="M314.919 14.7972C315.742 15.2826 316.404 15.7148 317.102 16.0801C320.748 17.9838 324.585 18.4348 328.569 17.4521C329.258 17.2702 329.901 16.9446 330.455 16.4968C331.59 15.5827 331.335 14.01 329.941 13.5967C328.912 13.2949 327.81 13.2537 326.735 13.1765C324.576 13.0222 322.398 13.0325 320.256 12.7563C319.189 12.6191 318.1 12.1389 317.169 11.5713C314.576 9.98313 314.505 6.70399 316.978 4.92893C318.661 3.7284 320.633 3.36139 322.638 3.18474C325.943 2.89318 329.203 3.05954 332.352 4.22576C333.659 4.71112 333.657 4.71626 333.657 6.1123V7.709C332.676 7.33855 331.846 6.97153 330.983 6.70742C328.082 5.79122 325 5.60506 322.01 6.16547C321.426 6.29516 320.863 6.50526 320.336 6.78974C319.721 7.10359 319.294 7.59581 319.369 8.36243C319.441 9.09989 319.957 9.50292 320.58 9.64699C321.528 9.86026 322.491 9.99789 323.461 10.0586C325.679 10.2112 327.92 10.1992 330.117 10.4633C331.186 10.5903 332.28 11.0482 333.221 11.5987C335.602 12.993 335.965 15.876 334.079 17.8929C332.764 19.3026 331.047 19.9938 329.219 20.4431C324.351 21.6436 319.755 20.8427 315.38 18.5137C315.186 18.4108 314.951 18.1621 314.943 17.97C314.901 16.9633 314.919 15.9497 314.919 14.7972Z" fill="#181A1F"/>
<path d="M133.398 3.24478V10.2404C135.027 10.2404 136.583 10.261 138.136 10.2164C138.351 10.2164 138.581 9.89397 138.759 9.68474C140.419 7.72102 142.05 5.74016 143.733 3.79702C144.034 3.48744 144.439 3.29944 144.87 3.26879C146.171 3.20362 147.478 3.24478 149.061 3.24478L141.254 11.7736C143.906 14.7441 146.519 17.6734 149.305 20.7913C147.511 20.7913 145.954 20.8119 144.4 20.7673C144.182 20.7673 143.944 20.4586 143.769 20.2528C142.054 18.1947 140.364 16.1007 138.623 14.0615C138.307 13.7266 137.881 13.5166 137.423 13.4698C136.373 13.3858 135.31 13.4801 134.257 13.4287C133.556 13.3961 133.384 13.6756 133.399 14.3256C133.434 16.1247 133.411 17.9272 133.411 19.7228V20.7296H129.385V19.8343C129.385 14.636 129.4 9.43777 129.369 4.24122C129.369 3.46602 129.558 3.17447 130.367 3.23449C131.321 3.29795 132.292 3.24478 133.398 3.24478Z" fill="#181A1F"/>
<path d="M211.768 20.4054C209.263 14.8641 206.762 9.32114 204.222 3.79701C204.099 3.52947 203.634 3.2825 203.318 3.26878C201.775 3.2139 200.231 3.26878 198.688 3.23276C198.149 3.22076 197.878 3.40427 197.659 3.89648C195.222 9.24739 192.773 14.5937 190.31 19.9355C190.2 20.1756 190.128 20.4328 189.996 20.793C191.173 20.793 192.196 20.7656 193.219 20.805C193.733 20.8256 193.989 20.6095 194.169 20.1533C194.512 19.2769 194.932 18.4297 195.263 17.5482C195.457 17.0336 195.762 16.8896 196.292 16.8947C199.348 16.9164 202.405 16.9164 205.462 16.8947C206.032 16.8947 206.344 17.0371 206.548 17.5807C206.891 18.4897 207.278 19.3815 207.704 20.2528C207.815 20.4826 208.127 20.7536 208.359 20.7673C209.493 20.8204 210.631 20.7913 211.868 20.7913C211.843 20.6607 211.81 20.5318 211.768 20.4054ZM205.034 14.1112H196.698C197.119 13.1731 197.493 12.3207 197.882 11.4752C198.568 9.99857 199.226 8.51507 199.959 7.06415C200.084 6.81718 200.513 6.59595 200.803 6.59423C201.166 6.59423 201.744 6.72629 201.866 6.97668C202.972 9.25939 203.998 11.5798 205.042 13.8917C205.063 13.9363 205.039 14.0032 205.034 14.1112Z" fill="#181A1F"/>
<path d="M110.242 20.2751C107.748 14.7612 105.268 9.24567 102.733 3.74555C102.622 3.50202 102.184 3.27563 101.891 3.26706C100.378 3.21904 98.8623 3.27735 97.3497 3.22761C96.7014 3.20703 96.3995 3.44542 96.1371 4.02167C93.6932 9.40174 91.2184 14.7664 88.7625 20.143C88.6853 20.3145 88.6476 20.4963 88.5498 20.7999C89.7006 20.7999 90.7502 20.7776 91.7964 20.8101C92.2766 20.8256 92.5167 20.6386 92.6882 20.2099C93.0569 19.282 93.4359 18.3542 93.8887 17.4658C93.9735 17.3236 94.0893 17.2023 94.2273 17.1109C94.3653 17.0195 94.5222 16.9602 94.6862 16.9376C97.8556 16.9021 101.026 16.9021 104.198 16.9376C104.363 16.9606 104.522 17.0207 104.661 17.1133C104.8 17.206 104.917 17.3288 105.002 17.4727C105.453 18.3611 105.794 19.3043 106.216 20.2167C106.323 20.4466 106.559 20.7656 106.757 20.7741C107.942 20.8256 109.13 20.7999 110.401 20.7999C110.357 20.6222 110.304 20.447 110.242 20.2751ZM95.223 14.0924C96.3464 11.6553 97.4217 9.29026 98.5279 6.95095C98.7971 6.37985 100.133 6.35755 100.402 6.92523C101.507 9.26968 102.574 11.633 103.7 14.0924H95.223Z" fill="#181A1F"/>
<path d="M273.216 3.24477V6.39186H272.187C268.813 6.39186 265.442 6.40901 262.068 6.37814C261.365 6.37814 261.113 6.56679 261.144 7.29225C261.197 8.56995 261.159 9.85108 261.159 11.2368H272.214V14.1524H261.171V20.7433H257.139V19.8343C257.139 14.6326 257.155 9.4309 257.122 4.22749C257.122 3.44372 257.33 3.21562 258.125 3.22248C262.842 3.26021 267.558 3.24134 272.274 3.24134L273.216 3.24477Z" fill="#181A1F"/>
<path d="M127.436 8.17207C125.79 6.95783 123.92 6.4296 121.931 6.24266C120.161 6.06697 118.376 6.32175 116.726 6.98527C115.701 7.37154 114.82 8.06612 114.206 8.97339C113.592 9.88067 113.274 10.956 113.296 12.0515C113.306 14.3325 114.601 16.2653 116.791 17.0594C120.379 18.3628 123.848 18.1278 127.124 16.0561C127.218 15.9978 127.321 15.9532 127.56 15.8314C127.56 16.9668 127.621 18.0147 127.519 19.0471C127.491 19.3181 126.994 19.6131 126.661 19.7708C124.294 20.8702 121.785 21.1429 119.214 20.9199C117.235 20.7484 115.321 20.3145 113.58 19.3078C110.682 17.6322 109.195 15.1214 109.281 11.7616C109.367 8.40188 110.984 5.94939 113.942 4.52591C118.058 2.54162 122.313 2.55019 126.572 4.2172C127.342 4.51905 127.693 4.97696 127.601 5.83105C127.525 6.51706 127.58 7.20308 127.568 7.88909C127.565 7.96627 127.5 8.04001 127.436 8.17207Z" fill="#181A1F"/>
<path d="M149.608 3.28936H167.462V6.30096H161.782C160.665 6.30096 160.664 6.30096 160.664 7.41916C160.664 11.5044 160.664 15.5902 160.664 19.6765V20.7879C159.35 20.7879 158.127 20.8101 156.908 20.757C156.76 20.757 156.517 20.3265 156.511 20.0933C156.479 18.2067 156.493 16.3202 156.493 14.4337C156.493 12.0618 156.457 9.68987 156.513 7.31969C156.534 6.46217 156.246 6.25466 155.44 6.29067C153.755 6.34727 152.068 6.29067 150.382 6.31811C149.783 6.3284 149.564 6.12603 149.598 5.52748C149.639 4.81231 149.608 4.09886 149.608 3.28936Z" fill="#181A1F"/>
<defs>
<filter id="filter0_d_206_10639" x="2" y="2.79999" width="56.4004" height="26.0459" filterUnits="userSpaceOnUse" color-interpolation-filters="sRGB">
<feFlood flood-opacity="0" result="BackgroundImageFix"/>
<feColorMatrix in="SourceAlpha" type="matrix" values="0 0 0 0 0 0 0 0 0 0 0 0 0 0 0 0 0 0 127 0" result="hardAlpha"/>
<feOffset dy="4"/>
<feGaussianBlur stdDeviation="2"/>
<feComposite in2="hardAlpha" operator="out"/>
<feColorMatrix type="matrix" values="0 0 0 0 0 0 0 0 0 0 0 0 0 0 0 0 0 0 0.1 0"/>
<feBlend mode="normal" in2="BackgroundImageFix" result="effect1_dropShadow_206_10639"/>
<feBlend mode="normal" in="SourceGraphic" in2="effect1_dropShadow_206_10639" result="shape"/>
</filter>
</defs>
</svg>
