<svg width="12" height="12" viewBox="0 0 12 12" fill="none" xmlns="http://www.w3.org/2000/svg">
<path d="M10.8534 5.64645L7.3534 2.14645C7.2559 2.04895 7.12795 2 6.99995 2C6.87195 2 6.74395 2.04895 6.64645 2.14645C6.45095 2.34195 6.45095 2.658 6.64645 2.8535L9.29295 5.5L1.49994 5.5C1.22344 5.5 0.999939 5.7235 0.999939 6C0.999939 6.2765 1.22344 6.5 1.49994 6.5L9.29295 6.5L6.64645 9.14647C6.45095 9.34197 6.45095 9.658 6.64645 9.8535C6.84195 10.049 7.1579 10.049 7.3534 9.8535L10.8534 6.3535C11.0489 6.158 11.0489 5.84195 10.8534 5.64645Z" fill="white"/>
</svg>
