<svg width="18" height="14" viewBox="0 0 18 14" fill="none" xmlns="http://www.w3.org/2000/svg">
<path d="M17.3334 7C17.3334 7.46083 16.9609 7.83333 16.5001 7.83333H3.51175L7.92258 12.2442C8.24841 12.57 8.24841 13.0967 7.92258 13.4226C7.76008 13.5851 7.54675 13.6667 7.33342 13.6667C7.12008 13.6667 6.90677 13.5851 6.74427 13.4226L0.91094 7.58925C0.585107 7.26341 0.585107 6.73666 0.91094 6.41083L6.74427 0.577505C7.07011 0.251672 7.59675 0.251672 7.92258 0.577505C8.24841 0.903338 8.24841 1.43005 7.92258 1.75589L3.51175 6.16666H16.5001C16.9609 6.16666 17.3334 6.53916 17.3334 7Z" fill="#181A1F"/>
</svg>
