<svg width="20" height="20" viewBox="0 0 20 20" fill="none" xmlns="http://www.w3.org/2000/svg">
<g clip-path="url(#clip0_745_563)">
<path d="M15.3033 13.7794C15.0735 13.7794 14.865 13.6863 14.7141 13.5355C14.5633 13.3846 14.4701 13.1761 14.4701 12.9463L14.4701 6.70843L5.28603 15.8925C4.96017 16.2184 4.43338 16.2184 4.10752 15.8925C3.78166 15.5666 3.78166 15.0399 4.10752 14.714L13.2916 5.52992L7.05371 5.52989C6.59291 5.52989 6.22054 5.15751 6.22054 4.69671C6.22054 4.23592 6.593 3.86345 7.0538 3.86345L15.3034 3.86345C15.7642 3.86345 16.1365 4.2358 16.1365 4.6966L16.1365 12.9462C16.1365 13.407 15.7641 13.7794 15.3033 13.7794Z" fill="#181A1F"/>
</g>
<defs>
<clipPath id="clip0_745_563">
<rect width="20" height="20" fill="white"/>
</clipPath>
</defs>
</svg>
