<svg width="210" height="60" viewBox="0 0 210 60" fill="none" xmlns="http://www.w3.org/2000/svg">
<rect width="210" height="60" rx="12" fill="black"/>
<rect opacity="0.2" x="59" y="15" width="1" height="30" fill="white"/>
<path d="M80.888 25V16.6H83.468C84.948 16.6 86.036 16.976 86.732 17.728C87.436 18.48 87.788 19.512 87.788 20.824C87.788 22.112 87.436 23.132 86.732 23.884C86.036 24.628 84.948 25 83.468 25H80.888ZM81.896 24.16H83.444C84.26 24.16 84.908 24.028 85.388 23.764C85.876 23.492 86.224 23.108 86.432 22.612C86.64 22.108 86.744 21.512 86.744 20.824C86.744 20.12 86.64 19.516 86.432 19.012C86.224 18.508 85.876 18.12 85.388 17.848C84.908 17.576 84.26 17.44 83.444 17.44H81.896V24.16ZM92.1955 25.144C91.6355 25.144 91.1315 25.016 90.6835 24.76C90.2355 24.504 89.8795 24.144 89.6155 23.68C89.3595 23.208 89.2315 22.656 89.2315 22.024C89.2315 21.392 89.3635 20.844 89.6275 20.38C89.8915 19.908 90.2475 19.544 90.6955 19.288C91.1515 19.032 91.6595 18.904 92.2195 18.904C92.7795 18.904 93.2835 19.032 93.7315 19.288C94.1795 19.544 94.5315 19.908 94.7875 20.38C95.0515 20.844 95.1835 21.392 95.1835 22.024C95.1835 22.656 95.0515 23.208 94.7875 23.68C94.5235 24.144 94.1635 24.504 93.7075 24.76C93.2595 25.016 92.7555 25.144 92.1955 25.144ZM92.1955 24.28C92.5395 24.28 92.8595 24.196 93.1555 24.028C93.4515 23.86 93.6915 23.608 93.8755 23.272C94.0595 22.936 94.1515 22.52 94.1515 22.024C94.1515 21.528 94.0595 21.112 93.8755 20.776C93.6995 20.44 93.4635 20.188 93.1675 20.02C92.8715 19.852 92.5555 19.768 92.2195 19.768C91.8755 19.768 91.5555 19.852 91.2595 20.02C90.9635 20.188 90.7235 20.44 90.5395 20.776C90.3555 21.112 90.2635 21.528 90.2635 22.024C90.2635 22.52 90.3555 22.936 90.5395 23.272C90.7235 23.608 90.9595 23.86 91.2475 24.028C91.5435 24.196 91.8595 24.28 92.1955 24.28ZM97.8624 25L96.1224 19.048H97.1304L98.3904 23.716L99.7824 19.048H100.922L102.326 23.716L103.574 19.048H104.594L102.854 25H101.822L100.358 20.092L98.8944 25H97.8624ZM106.009 25V19.048H106.921L106.981 20.116C107.173 19.74 107.449 19.444 107.809 19.228C108.169 19.012 108.577 18.904 109.033 18.904C109.737 18.904 110.297 19.12 110.713 19.552C111.137 19.976 111.349 20.632 111.349 21.52V25H110.341V21.628C110.341 20.388 109.829 19.768 108.805 19.768C108.293 19.768 107.865 19.956 107.521 20.332C107.185 20.7 107.017 21.228 107.017 21.916V25H106.009ZM113.176 25V16.36H114.184V25H113.176ZM118.849 25.144C118.289 25.144 117.785 25.016 117.337 24.76C116.889 24.504 116.533 24.144 116.269 23.68C116.013 23.208 115.885 22.656 115.885 22.024C115.885 21.392 116.017 20.844 116.281 20.38C116.545 19.908 116.901 19.544 117.349 19.288C117.805 19.032 118.313 18.904 118.873 18.904C119.433 18.904 119.937 19.032 120.385 19.288C120.833 19.544 121.185 19.908 121.441 20.38C121.705 20.844 121.837 21.392 121.837 22.024C121.837 22.656 121.705 23.208 121.441 23.68C121.177 24.144 120.817 24.504 120.361 24.76C119.913 25.016 119.409 25.144 118.849 25.144ZM118.849 24.28C119.193 24.28 119.513 24.196 119.809 24.028C120.105 23.86 120.345 23.608 120.529 23.272C120.713 22.936 120.805 22.52 120.805 22.024C120.805 21.528 120.713 21.112 120.529 20.776C120.353 20.44 120.117 20.188 119.821 20.02C119.525 19.852 119.209 19.768 118.873 19.768C118.529 19.768 118.209 19.852 117.913 20.02C117.617 20.188 117.377 20.44 117.193 20.776C117.009 21.112 116.917 21.528 116.917 22.024C116.917 22.52 117.009 22.936 117.193 23.272C117.377 23.608 117.613 23.86 117.901 24.028C118.197 24.196 118.513 24.28 118.849 24.28ZM125.518 25.144C125.022 25.144 124.61 25.06 124.282 24.892C123.954 24.724 123.71 24.5 123.55 24.22C123.39 23.94 123.31 23.636 123.31 23.308C123.31 22.7 123.542 22.232 124.006 21.904C124.47 21.576 125.102 21.412 125.902 21.412H127.51V21.34C127.51 20.82 127.374 20.428 127.102 20.164C126.83 19.892 126.466 19.756 126.01 19.756C125.618 19.756 125.278 19.856 124.99 20.056C124.71 20.248 124.534 20.532 124.462 20.908H123.43C123.47 20.476 123.614 20.112 123.862 19.816C124.118 19.52 124.434 19.296 124.81 19.144C125.186 18.984 125.586 18.904 126.01 18.904C126.842 18.904 127.466 19.128 127.882 19.576C128.306 20.016 128.518 20.604 128.518 21.34V25H127.618L127.558 23.932C127.39 24.268 127.142 24.556 126.814 24.796C126.494 25.028 126.062 25.144 125.518 25.144ZM125.674 24.292C126.058 24.292 126.386 24.192 126.658 23.992C126.938 23.792 127.15 23.532 127.294 23.212C127.438 22.892 127.51 22.556 127.51 22.204V22.192H125.986C125.394 22.192 124.974 22.296 124.726 22.504C124.486 22.704 124.366 22.956 124.366 23.26C124.366 23.572 124.478 23.824 124.702 24.016C124.934 24.2 125.258 24.292 125.674 24.292ZM133.03 25.144C132.438 25.144 131.918 25.008 131.47 24.736C131.03 24.464 130.686 24.092 130.438 23.62C130.198 23.148 130.078 22.612 130.078 22.012C130.078 21.412 130.202 20.88 130.45 20.416C130.698 19.944 131.042 19.576 131.482 19.312C131.922 19.04 132.442 18.904 133.042 18.904C133.53 18.904 133.962 19.004 134.338 19.204C134.714 19.404 135.006 19.684 135.214 20.044V16.36H136.222V25H135.31L135.214 24.016C135.022 24.304 134.746 24.564 134.386 24.796C134.026 25.028 133.574 25.144 133.03 25.144ZM133.138 24.268C133.538 24.268 133.89 24.176 134.194 23.992C134.506 23.8 134.746 23.536 134.914 23.2C135.09 22.864 135.178 22.472 135.178 22.024C135.178 21.576 135.09 21.184 134.914 20.848C134.746 20.512 134.506 20.252 134.194 20.068C133.89 19.876 133.538 19.78 133.138 19.78C132.746 19.78 132.394 19.876 132.082 20.068C131.778 20.252 131.538 20.512 131.362 20.848C131.194 21.184 131.11 21.576 131.11 22.024C131.11 22.472 131.194 22.864 131.362 23.2C131.538 23.536 131.778 23.8 132.082 23.992C132.394 24.176 132.746 24.268 133.138 24.268ZM144.353 25.144C143.793 25.144 143.289 25.016 142.841 24.76C142.393 24.504 142.037 24.144 141.773 23.68C141.517 23.208 141.389 22.656 141.389 22.024C141.389 21.392 141.521 20.844 141.785 20.38C142.049 19.908 142.405 19.544 142.853 19.288C143.309 19.032 143.817 18.904 144.377 18.904C144.937 18.904 145.441 19.032 145.889 19.288C146.337 19.544 146.689 19.908 146.945 20.38C147.209 20.844 147.341 21.392 147.341 22.024C147.341 22.656 147.209 23.208 146.945 23.68C146.681 24.144 146.321 24.504 145.865 24.76C145.417 25.016 144.913 25.144 144.353 25.144ZM144.353 24.28C144.697 24.28 145.017 24.196 145.313 24.028C145.609 23.86 145.849 23.608 146.033 23.272C146.217 22.936 146.309 22.52 146.309 22.024C146.309 21.528 146.217 21.112 146.033 20.776C145.857 20.44 145.621 20.188 145.325 20.02C145.029 19.852 144.713 19.768 144.377 19.768C144.033 19.768 143.713 19.852 143.417 20.02C143.121 20.188 142.881 20.44 142.697 20.776C142.513 21.112 142.421 21.528 142.421 22.024C142.421 22.52 142.513 22.936 142.697 23.272C142.881 23.608 143.117 23.86 143.405 24.028C143.701 24.196 144.017 24.28 144.353 24.28ZM149.043 25V19.048H149.955L150.015 20.116C150.207 19.74 150.483 19.444 150.843 19.228C151.203 19.012 151.611 18.904 152.067 18.904C152.771 18.904 153.331 19.12 153.747 19.552C154.171 19.976 154.383 20.632 154.383 21.52V25H153.375V21.628C153.375 20.388 152.863 19.768 151.839 19.768C151.327 19.768 150.899 19.956 150.555 20.332C150.219 20.7 150.051 21.228 150.051 21.916V25H149.043ZM162.038 25C161.494 25 161.066 24.868 160.754 24.604C160.442 24.34 160.286 23.864 160.286 23.176V19.9H159.254V19.048H160.286L160.418 17.62H161.294V19.048H163.046V19.9H161.294V23.176C161.294 23.552 161.37 23.808 161.522 23.944C161.674 24.072 161.942 24.136 162.326 24.136H162.95V25H162.038ZM164.626 25V16.36H165.634V20.068C165.834 19.7 166.118 19.416 166.486 19.216C166.854 19.008 167.254 18.904 167.686 18.904C168.374 18.904 168.926 19.12 169.342 19.552C169.758 19.976 169.966 20.632 169.966 21.52V25H168.97V21.628C168.97 20.388 168.47 19.768 167.47 19.768C166.95 19.768 166.514 19.956 166.162 20.332C165.81 20.7 165.634 21.228 165.634 21.916V25H164.626ZM174.47 25.144C173.902 25.144 173.398 25.016 172.958 24.76C172.518 24.496 172.17 24.132 171.914 23.668C171.666 23.204 171.542 22.656 171.542 22.024C171.542 21.4 171.666 20.856 171.914 20.392C172.162 19.92 172.506 19.556 172.946 19.3C173.394 19.036 173.91 18.904 174.494 18.904C175.07 18.904 175.566 19.036 175.982 19.3C176.406 19.556 176.73 19.896 176.954 20.32C177.178 20.744 177.29 21.2 177.29 21.688C177.29 21.776 177.286 21.864 177.278 21.952C177.278 22.04 177.278 22.14 177.278 22.252H172.538C172.562 22.708 172.666 23.088 172.85 23.392C173.042 23.688 173.278 23.912 173.558 24.064C173.846 24.216 174.15 24.292 174.47 24.292C174.886 24.292 175.234 24.196 175.514 24.004C175.794 23.812 175.998 23.552 176.126 23.224H177.122C176.962 23.776 176.654 24.236 176.198 24.604C175.75 24.964 175.174 25.144 174.47 25.144ZM174.47 19.756C173.99 19.756 173.562 19.904 173.186 20.2C172.818 20.488 172.606 20.912 172.55 21.472H176.294C176.27 20.936 176.086 20.516 175.742 20.212C175.398 19.908 174.974 19.756 174.47 19.756Z" fill="white"/>
<path d="M35.3809 30.2598C35.3483 28.4694 36.1621 27.0859 37.8223 26.1094C36.9108 24.8073 35.5273 24.0749 33.6719 23.9121C33.1836 23.8796 32.6302 23.9447 32.0117 24.1074C31.6536 24.2051 31.1654 24.3678 30.5469 24.5957C29.9284 24.8236 29.5215 24.9375 29.3262 24.9375C29.1309 24.9375 28.6914 24.8073 28.0078 24.5469C26.9336 24.1562 26.1361 23.9609 25.6152 23.9609C24.6712 23.9935 23.7598 24.2539 22.8809 24.7422C22.0345 25.2305 21.3509 25.9466 20.8301 26.8906C20.2767 27.8997 20 29.1042 20 30.5039C20 31.7734 20.2279 33.0918 20.6836 34.459C20.944 35.1751 21.3184 35.9727 21.8066 36.8516C22.4251 37.9258 23.0436 38.7721 23.6621 39.3906C24.4759 40.2044 25.2409 40.5951 25.957 40.5625C26.3151 40.5625 26.8359 40.4323 27.5195 40.1719C28.3659 39.8464 29.0658 39.6836 29.6191 39.6836C30.1725 39.6836 30.8398 39.8301 31.6211 40.123C32.3372 40.416 32.9232 40.5625 33.3789 40.5625C34.4206 40.5299 35.4785 39.7812 36.5527 38.3164C37.3665 37.1771 37.9688 35.9889 38.3594 34.752C37.0573 34.1335 36.1784 33.222 35.7227 32.0176C35.4622 31.4316 35.3483 30.8457 35.3809 30.2598ZM32.5977 22.2031C33.4766 21.1615 33.8672 19.9896 33.7695 18.6875C33.1836 18.7201 32.5814 18.8991 31.9629 19.2246C31.3444 19.5501 30.8398 19.9408 30.4492 20.3965C29.5052 21.4382 29.0983 22.61 29.2285 23.9121C30.4329 24.0098 31.556 23.4564 32.5977 22.252V22.2031Z" fill="white"/>
<path d="M80.364 44L83.976 34.2H85.6L89.184 44H87.616L86.776 41.606H82.772L81.932 44H80.364ZM83.192 40.43H86.356L84.774 35.964L83.192 40.43ZM90.4946 47.08V37.056H91.8246L91.9786 38.134C92.2026 37.8073 92.5106 37.518 92.9026 37.266C93.2946 37.014 93.7986 36.888 94.4146 36.888C95.0866 36.888 95.6793 37.0467 96.1926 37.364C96.706 37.6813 97.1073 38.1153 97.3966 38.666C97.6953 39.2167 97.8446 39.842 97.8446 40.542C97.8446 41.242 97.6953 41.8673 97.3966 42.418C97.1073 42.9593 96.706 43.3887 96.1926 43.706C95.6793 44.014 95.082 44.168 94.4006 44.168C93.8593 44.168 93.3786 44.0607 92.9586 43.846C92.548 43.6313 92.2213 43.328 91.9786 42.936V47.08H90.4946ZM94.1486 42.88C94.7833 42.88 95.306 42.6653 95.7166 42.236C96.1273 41.7973 96.3326 41.228 96.3326 40.528C96.3326 40.0707 96.2393 39.6647 96.0526 39.31C95.866 38.9553 95.6093 38.68 95.2826 38.484C94.956 38.2787 94.578 38.176 94.1486 38.176C93.514 38.176 92.9913 38.3953 92.5806 38.834C92.1793 39.2727 91.9786 39.8373 91.9786 40.528C91.9786 41.228 92.1793 41.7973 92.5806 42.236C92.9913 42.6653 93.514 42.88 94.1486 42.88ZM99.4497 47.08V37.056H100.78L100.934 38.134C101.158 37.8073 101.466 37.518 101.858 37.266C102.25 37.014 102.754 36.888 103.37 36.888C104.042 36.888 104.634 37.0467 105.148 37.364C105.661 37.6813 106.062 38.1153 106.352 38.666C106.65 39.2167 106.8 39.842 106.8 40.542C106.8 41.242 106.65 41.8673 106.352 42.418C106.062 42.9593 105.661 43.3887 105.148 43.706C104.634 44.014 104.037 44.168 103.356 44.168C102.814 44.168 102.334 44.0607 101.914 43.846C101.503 43.6313 101.176 43.328 100.934 42.936V47.08H99.4497ZM103.104 42.88C103.738 42.88 104.261 42.6653 104.672 42.236C105.082 41.7973 105.288 41.228 105.288 40.528C105.288 40.0707 105.194 39.6647 105.008 39.31C104.821 38.9553 104.564 38.68 104.238 38.484C103.911 38.2787 103.533 38.176 103.104 38.176C102.469 38.176 101.946 38.3953 101.536 38.834C101.134 39.2727 100.934 39.8373 100.934 40.528C100.934 41.228 101.134 41.7973 101.536 42.236C101.946 42.6653 102.469 42.88 103.104 42.88ZM108.405 44V33.92H109.889V44H108.405ZM115.016 44.168C114.335 44.168 113.728 44.0187 113.196 43.72C112.673 43.412 112.263 42.9873 111.964 42.446C111.665 41.9047 111.516 41.2747 111.516 40.556C111.516 39.828 111.661 39.1887 111.95 38.638C112.249 38.0873 112.659 37.658 113.182 37.35C113.714 37.042 114.33 36.888 115.03 36.888C115.711 36.888 116.304 37.042 116.808 37.35C117.312 37.6487 117.704 38.05 117.984 38.554C118.264 39.058 118.404 39.6133 118.404 40.22C118.404 40.3133 118.399 40.416 118.39 40.528C118.39 40.6307 118.385 40.7473 118.376 40.878H112.972C113.019 41.55 113.238 42.0633 113.63 42.418C114.031 42.7633 114.493 42.936 115.016 42.936C115.436 42.936 115.786 42.8427 116.066 42.656C116.355 42.46 116.57 42.1987 116.71 41.872H118.194C118.007 42.5253 117.634 43.0713 117.074 43.51C116.523 43.9487 115.837 44.168 115.016 44.168ZM115.016 38.106C114.521 38.106 114.083 38.2553 113.7 38.554C113.317 38.8433 113.084 39.282 113 39.87H116.92C116.892 39.3287 116.701 38.8993 116.346 38.582C115.991 38.2647 115.548 38.106 115.016 38.106ZM126.761 44.168C126.043 44.168 125.413 44.042 124.871 43.79C124.33 43.538 123.905 43.1787 123.597 42.712C123.299 42.2453 123.145 41.69 123.135 41.046H124.703C124.713 41.5687 124.895 42.012 125.249 42.376C125.604 42.74 126.103 42.922 126.747 42.922C127.317 42.922 127.76 42.7867 128.077 42.516C128.404 42.236 128.567 41.8813 128.567 41.452C128.567 41.1067 128.488 40.8267 128.329 40.612C128.18 40.3973 127.97 40.22 127.699 40.08C127.438 39.94 127.135 39.814 126.789 39.702C126.444 39.59 126.08 39.4687 125.697 39.338C124.941 39.086 124.372 38.7593 123.989 38.358C123.616 37.9567 123.429 37.4293 123.429 36.776C123.42 36.2253 123.546 35.7447 123.807 35.334C124.078 34.9233 124.451 34.606 124.927 34.382C125.413 34.1487 125.977 34.032 126.621 34.032C127.256 34.032 127.811 34.1487 128.287 34.382C128.773 34.6153 129.151 34.942 129.421 35.362C129.692 35.7727 129.832 36.2533 129.841 36.804H128.273C128.273 36.552 128.208 36.314 128.077 36.09C127.947 35.8567 127.755 35.6653 127.503 35.516C127.251 35.3667 126.943 35.292 126.579 35.292C126.113 35.2827 125.725 35.3993 125.417 35.642C125.119 35.8847 124.969 36.2207 124.969 36.65C124.969 37.0327 125.081 37.3267 125.305 37.532C125.529 37.7373 125.837 37.91 126.229 38.05C126.621 38.1807 127.069 38.3347 127.573 38.512C128.059 38.6707 128.493 38.862 128.875 39.086C129.258 39.31 129.561 39.604 129.785 39.968C130.019 40.332 130.135 40.794 130.135 41.354C130.135 41.8487 130.009 42.3107 129.757 42.74C129.505 43.16 129.127 43.5053 128.623 43.776C128.119 44.0373 127.499 44.168 126.761 44.168ZM134.614 44C133.932 44 133.391 43.8367 132.99 43.51C132.588 43.174 132.388 42.5813 132.388 41.732V38.302H131.198V37.056H132.388L132.57 35.292H133.872V37.056H135.832V38.302H133.872V41.732C133.872 42.1147 133.951 42.3807 134.11 42.53C134.278 42.67 134.562 42.74 134.964 42.74H135.762V44H134.614ZM140.432 44.168C139.769 44.168 139.172 44.0187 138.64 43.72C138.117 43.412 137.702 42.9873 137.394 42.446C137.086 41.8953 136.932 41.256 136.932 40.528C136.932 39.8 137.086 39.1653 137.394 38.624C137.711 38.0733 138.136 37.6487 138.668 37.35C139.2 37.042 139.793 36.888 140.446 36.888C141.109 36.888 141.701 37.042 142.224 37.35C142.756 37.6487 143.176 38.0733 143.484 38.624C143.801 39.1653 143.96 39.8 143.96 40.528C143.96 41.256 143.801 41.8953 143.484 42.446C143.176 42.9873 142.756 43.412 142.224 43.72C141.692 44.0187 141.095 44.168 140.432 44.168ZM140.432 42.894C140.787 42.894 141.113 42.8053 141.412 42.628C141.72 42.4507 141.967 42.1893 142.154 41.844C142.341 41.4893 142.434 41.0507 142.434 40.528C142.434 40.0053 142.341 39.5713 142.154 39.226C141.977 38.8713 141.734 38.6053 141.426 38.428C141.127 38.2507 140.801 38.162 140.446 38.162C140.091 38.162 139.76 38.2507 139.452 38.428C139.153 38.6053 138.911 38.8713 138.724 39.226C138.537 39.5713 138.444 40.0053 138.444 40.528C138.444 41.0507 138.537 41.4893 138.724 41.844C138.911 42.1893 139.153 42.4507 139.452 42.628C139.751 42.8053 140.077 42.894 140.432 42.894ZM145.565 44V37.056H146.895L147.021 38.372C147.264 37.9147 147.6 37.5553 148.029 37.294C148.468 37.0233 148.995 36.888 149.611 36.888V38.442H149.205C148.794 38.442 148.426 38.512 148.099 38.652C147.782 38.7827 147.525 39.0113 147.329 39.338C147.142 39.6553 147.049 40.0987 147.049 40.668V44H145.565ZM153.94 44.168C153.259 44.168 152.652 44.0187 152.12 43.72C151.597 43.412 151.187 42.9873 150.888 42.446C150.589 41.9047 150.44 41.2747 150.44 40.556C150.44 39.828 150.585 39.1887 150.874 38.638C151.173 38.0873 151.583 37.658 152.106 37.35C152.638 37.042 153.254 36.888 153.954 36.888C154.635 36.888 155.228 37.042 155.732 37.35C156.236 37.6487 156.628 38.05 156.908 38.554C157.188 39.058 157.328 39.6133 157.328 40.22C157.328 40.3133 157.323 40.416 157.314 40.528C157.314 40.6307 157.309 40.7473 157.3 40.878H151.896C151.943 41.55 152.162 42.0633 152.554 42.418C152.955 42.7633 153.417 42.936 153.94 42.936C154.36 42.936 154.71 42.8427 154.99 42.656C155.279 42.46 155.494 42.1987 155.634 41.872H157.118C156.931 42.5253 156.558 43.0713 155.998 43.51C155.447 43.9487 154.761 44.168 153.94 44.168ZM153.94 38.106C153.445 38.106 153.007 38.2553 152.624 38.554C152.241 38.8433 152.008 39.282 151.924 39.87H155.844C155.816 39.3287 155.625 38.8993 155.27 38.582C154.915 38.2647 154.472 38.106 153.94 38.106Z" fill="white"/>
</svg>
