<svg width="60" height="60" viewBox="0 0 60 60" fill="none" xmlns="http://www.w3.org/2000/svg">
<rect width="60" height="60" rx="30" fill="#181A1F"/>
<g clip-path="url(#clip0_112_3098)">
<path fill-rule="evenodd" clip-rule="evenodd" d="M21.5701 24.8912L22.5866 26.6484L23.6031 24.8912L25.3603 23.8747L23.6031 22.8583L22.5866 21.1011L21.5701 22.8583L19.8113 23.8747L21.5701 24.8912Z" fill="white"/>
<path fill-rule="evenodd" clip-rule="evenodd" d="M27.9762 22.2205L29.0956 24.1554L30.2134 22.2205L32.1483 21.1027L30.2134 19.9833L29.0956 18.0483L27.9762 19.9833L26.0413 21.1027L27.9762 22.2205Z" fill="white"/>
<path fill-rule="evenodd" clip-rule="evenodd" d="M17.9211 33.7885H23.6895V29.6812H21.6167C20.4972 29.6812 19.8246 30.01 19.2864 31.0763L17.9211 33.7885Z" fill="white"/>
<path fill-rule="evenodd" clip-rule="evenodd" d="M28.5542 29.6812H33.4206V33.7885H28.5542V29.6812Z" fill="white"/>
<path d="M43.1613 33.7728C42.3285 33.4104 41.2166 33.2026 40.1107 33.2026H39.5963L37.0212 30.1688C36.1722 29.1692 35.6188 29.1174 34.4481 29.0953C34.4444 29.0953 34.4408 29.0952 34.4371 29.0952H21.6166C20.2055 29.0952 19.3789 29.5927 18.7631 30.8128L17.5601 33.2026H16.1241C15.5043 33.2026 15 33.7068 15 34.3266V38.5602C15 39.18 15.5043 39.6843 16.1241 39.6843H19.2773C19.4902 40.9687 20.6083 41.9514 21.9521 41.9514C23.296 41.9514 24.414 40.9687 24.627 39.6843H34.9546C35.1674 40.9687 36.2855 41.9514 37.6294 41.9514C38.9732 41.9514 40.0913 40.9687 40.3042 39.6843H43.0904C44.1434 39.6843 45.0001 38.8284 45.0001 37.7763V36.1619C45 35.4369 44.681 34.434 43.1613 33.7728ZM19.8095 31.3402C20.2195 30.5278 20.6586 30.267 21.6166 30.267H34.4314C35.4093 30.2854 35.5866 30.2899 36.128 30.9273L38.0592 33.2026H18.8721L19.8095 31.3402ZM21.9521 40.7796C21.103 40.7796 20.4121 40.0887 20.4121 39.2396C20.4121 38.3904 21.103 37.6995 21.9521 37.6995C22.8013 37.6995 23.4922 38.3904 23.4922 39.2396C23.4922 40.0887 22.8013 40.7796 21.9521 40.7796ZM37.6293 40.7796C36.7802 40.7796 36.0893 40.0887 36.0893 39.2396C36.0893 38.3904 36.7802 37.6995 37.6293 37.6995C38.4785 37.6995 39.1693 38.3904 39.1693 39.2396C39.1693 40.0887 38.4785 40.7796 37.6293 40.7796ZM43.0903 38.5125H40.2414C39.9227 37.3692 38.8727 36.5277 37.6293 36.5277C36.3859 36.5277 35.3359 37.3692 35.0173 38.5125H24.5642C24.2455 37.3692 23.1956 36.5277 21.9521 36.5277C20.7087 36.5277 19.6587 37.3692 19.3401 38.5125H16.1719V36.9655H17.1738C17.4974 36.9655 17.7597 36.7031 17.7597 36.3795C17.7597 36.0559 17.4974 35.7936 17.1738 35.7936H16.1719V34.3745H40.1107C41.605 34.3745 43.8281 34.8505 43.8281 36.1619V36.227H42.7416C42.4179 36.227 42.1556 36.4893 42.1556 36.8129C42.1556 37.1366 42.4179 37.3989 42.7416 37.3989H43.8281V37.7763C43.8281 38.1822 43.4972 38.5125 43.0903 38.5125Z" fill="white"/>
<path d="M29.7201 35.8584H27.1358C26.8122 35.8584 26.5499 36.1207 26.5499 36.4443C26.5499 36.7679 26.8122 37.0303 27.1358 37.0303H29.7201C30.0438 37.0303 30.3061 36.7679 30.3061 36.4443C30.3061 36.1207 30.0438 35.8584 29.7201 35.8584Z" fill="white"/>
</g>
<defs>
<clipPath id="clip0_112_3098">
<rect width="30" height="30" fill="white" transform="translate(15 15)"/>
</clipPath>
</defs>
</svg>
