<svg width="20" height="21" viewBox="0 0 20 21" fill="none" xmlns="http://www.w3.org/2000/svg">
<g clip-path="url(#clip0_820_2047)">
<path d="M19.1873 12.7059L17.4123 10.9309C17.031 10.5668 16.524 10.3636 15.9967 10.3636C15.4695 10.3636 14.9625 10.5668 14.5811 10.9309L13.9561 11.5559C13.532 11.9784 12.9578 12.2156 12.3592 12.2156C11.7606 12.2156 11.1864 11.9784 10.7623 11.5559C10.2811 11.0746 9.97485 10.7496 9.6686 10.4309C9.36235 10.1121 9.0436 9.76836 8.5436 9.27461C8.12148 8.85161 7.88441 8.27844 7.88441 7.68086C7.88441 7.08328 8.12148 6.5101 8.5436 6.08711L9.1686 5.46211C9.35497 5.27715 9.50285 5.05709 9.60369 4.81465C9.70453 4.57221 9.75633 4.31219 9.7561 4.04961C9.75383 3.5198 9.54272 3.01225 9.1686 2.63711L7.3936 0.849609C6.89217 0.35033 6.2137 0.0695087 5.5061 0.0683594C5.15754 0.068873 4.81251 0.138143 4.49077 0.272203C4.16903 0.406262 3.87689 0.602477 3.6311 0.849609L1.93735 2.53086C0.716803 3.7531 0.03125 5.4098 0.03125 7.13711C0.03125 8.86442 0.716803 10.5211 1.93735 11.7434C2.91235 12.7184 4.02485 13.8184 5.1311 14.9684C6.23735 16.1184 7.32485 17.1934 8.2936 18.1934C9.51558 19.412 11.1709 20.0963 12.8967 20.0963C14.6225 20.0963 16.2779 19.412 17.4998 18.1934L19.1873 16.5059C19.6836 16.0075 19.9642 15.3341 19.9686 14.6309C19.9748 14.2739 19.9087 13.9194 19.7745 13.5886C19.6402 13.2578 19.4405 12.9576 19.1873 12.7059ZM18.2436 15.5371L18.0623 15.6934L16.2498 13.8746C16.1895 13.8058 16.1157 13.7502 16.033 13.7111C15.9503 13.672 15.8604 13.6503 15.769 13.6473C15.6775 13.6443 15.5865 13.6601 15.5014 13.6938C15.4163 13.7274 15.339 13.7781 15.2743 13.8428C15.2096 13.9075 15.1589 13.9848 15.1253 14.0699C15.0916 14.155 15.0758 14.246 15.0788 14.3375C15.0818 14.4289 15.1035 14.5188 15.1426 14.6015C15.1817 14.6842 15.2373 14.758 15.3061 14.8184L17.1498 16.6621L16.5873 17.2246C15.615 18.194 14.2979 18.7384 12.9248 18.7384C11.5518 18.7384 10.2347 18.194 9.26235 17.2246C8.29985 16.2621 7.2061 15.1496 6.13735 14.0371C5.0686 12.9246 3.91235 11.7809 2.93735 10.8059C1.96793 9.83347 1.42357 8.51642 1.42357 7.14336C1.42357 5.7703 1.96793 4.45324 2.93735 3.48086L3.49985 2.91836L5.2811 4.75586C5.40542 4.88432 5.57568 4.95814 5.75442 4.96107C5.93317 4.964 6.10576 4.8958 6.23422 4.77148C6.36269 4.64716 6.4365 4.4769 6.43943 4.29816C6.44236 4.11941 6.37417 3.94682 6.24985 3.81836L4.37485 1.94336L4.5561 1.76211C4.67927 1.63695 4.82619 1.53765 4.98825 1.47003C5.15031 1.40242 5.32425 1.36785 5.49985 1.36836C5.85417 1.36942 6.19359 1.51103 6.4436 1.76211L8.22485 3.56836C8.34848 3.69311 8.41807 3.86148 8.4186 4.03711C8.41867 4.12414 8.4016 4.21033 8.36836 4.29076C8.33511 4.37119 8.28635 4.44428 8.22485 4.50586L7.59985 5.13086C6.92813 5.80452 6.55092 6.71703 6.55092 7.66836C6.55092 8.61969 6.92813 9.5322 7.59985 10.2059C8.12485 10.6934 8.41235 10.9996 8.74985 11.3184C9.08735 11.6371 9.37485 11.9809 9.8686 12.4684C10.5423 13.1401 11.4548 13.5173 12.4061 13.5173C13.3574 13.5173 14.2699 13.1401 14.9436 12.4684L15.5686 11.8434C15.6962 11.7229 15.865 11.6558 16.0405 11.6558C16.2159 11.6558 16.3847 11.7229 16.5123 11.8434L18.2873 13.6184C18.4122 13.7417 18.5113 13.8887 18.5789 14.0507C18.6465 14.2127 18.6813 14.3866 18.6811 14.5621C18.6779 14.7448 18.6374 14.925 18.5622 15.0916C18.487 15.2582 18.3786 15.4076 18.2436 15.5309V15.5371Z" fill="white"/>
</g>
<defs>
<clipPath id="clip0_820_2047">
<rect width="20" height="20" fill="white" transform="translate(0 0.0683594)"/>
</clipPath>
</defs>
</svg>
