<svg width="22" height="22" viewBox="0 0 22 22" fill="none" xmlns="http://www.w3.org/2000/svg">
<path d="M17.8689 9.35001C17.5669 9.04678 17.2078 8.8064 16.8124 8.64277C16.4169 8.47914 15.993 8.39549 15.565 8.39668V5.78723C15.5875 5.1741 15.4861 4.56274 15.2669 3.98967C15.0478 3.4166 14.7154 2.89359 14.2895 2.45189C13.8637 2.01018 13.3532 1.65885 12.7885 1.41888C12.2239 1.17892 11.6166 1.05524 11.0031 1.05524C10.3895 1.05524 9.78229 1.17892 9.21762 1.41888C8.65295 1.65885 8.14245 2.01018 7.71662 2.45189C7.29079 2.89359 6.95837 3.4166 6.73922 3.98967C6.52007 4.56274 6.41868 5.1741 6.44113 5.78723V8.39668C6.01287 8.39587 5.58866 8.47953 5.19277 8.64286C4.79688 8.80619 4.43708 9.04599 4.13397 9.34853C3.83086 9.65107 3.59039 10.0104 3.42632 10.406C3.26225 10.8016 3.17779 11.2256 3.1778 11.6539V17.5206C3.1778 18.3844 3.52097 19.2129 4.13181 19.8238C4.74266 20.4346 5.57115 20.7778 6.43502 20.7778H15.565C16.4289 20.7778 17.2574 20.4346 17.8682 19.8238C18.4791 19.2129 18.8222 18.3844 18.8222 17.5206V11.6539C18.8238 11.2259 18.7403 10.8018 18.5766 10.4063C18.413 10.0109 18.1724 9.6518 17.8689 9.35001ZM7.7428 5.78723C7.7428 5.35909 7.82713 4.93513 7.99097 4.53958C8.15481 4.14402 8.39496 3.78461 8.69771 3.48187C9.00045 3.17912 9.35986 2.93897 9.75542 2.77513C10.151 2.61129 10.5749 2.52696 11.0031 2.52696C11.4312 2.52696 11.8552 2.61129 12.2507 2.77513C12.6463 2.93897 13.0057 3.17912 13.3084 3.48187C13.6112 3.78461 13.8513 4.14402 14.0152 4.53958C14.179 4.93513 14.2634 5.35909 14.2634 5.78723V8.39668H7.7428V5.78723ZM17.5206 17.5206C17.5206 18.0392 17.3145 18.5366 16.9478 18.9034C16.5811 19.2701 16.0837 19.4761 15.565 19.4761H6.43502C5.91637 19.4761 5.41897 19.2701 5.05223 18.9034C4.68549 18.5366 4.47946 18.0392 4.47946 17.5206V11.6539C4.47946 11.1353 4.68549 10.6379 5.05223 10.2711C5.41897 9.90438 5.91637 9.69834 6.43502 9.69834H15.565C16.0837 9.69834 16.5811 9.90438 16.9478 10.2711C17.3145 10.6379 17.5206 11.1353 17.5206 11.6539V17.5206Z" fill="white"/>
<path d="M11 11.6539C10.539 11.6519 10.0923 11.8134 9.73903 12.1095C9.38581 12.4057 9.14897 12.8175 9.07058 13.2718C8.99218 13.726 9.0773 14.1934 9.31081 14.5908C9.54432 14.9883 9.91112 15.2901 10.3461 15.4428V17.5206H11.6478V15.4428C12.0822 15.2903 12.4487 14.989 12.6822 14.5921C12.9158 14.1953 13.0013 13.7287 12.9237 13.2748C12.8461 12.821 12.6104 12.4092 12.2583 12.1125C11.9062 11.8158 11.4604 11.6534 11 11.6539ZM11 14.2633C10.8707 14.2633 10.7442 14.225 10.6367 14.1531C10.5292 14.0813 10.4454 13.9792 10.3959 13.8597C10.3464 13.7402 10.3334 13.6087 10.3587 13.4819C10.3839 13.355 10.4462 13.2385 10.5376 13.1471C10.6291 13.0556 10.7456 12.9933 10.8724 12.9681C10.9993 12.9429 11.1307 12.9558 11.2502 13.0053C11.3697 13.0548 11.4718 13.1386 11.5437 13.2462C11.6155 13.3537 11.6539 13.4801 11.6539 13.6094C11.6523 13.7818 11.5827 13.9466 11.4602 14.0679C11.3377 14.1892 11.1723 14.2572 11 14.2572V14.2633Z" fill="white"/>
</svg>
