<svg width="22" height="22" viewBox="0 0 22 22" fill="none" xmlns="http://www.w3.org/2000/svg">
<path d="M11 1.22223C9.06609 1.22223 7.17566 1.79569 5.56771 2.87008C3.95976 3.94448 2.70652 5.47156 1.96646 7.25821C1.2264 9.04487 1.03277 11.0109 1.41005 12.9076C1.78733 14.8043 2.71857 16.5465 4.08602 17.9139C5.45346 19.2814 7.1957 20.2126 9.0924 20.5899C10.9891 20.9672 12.9551 20.7736 14.7417 20.0335C16.5284 19.2934 18.0555 18.0402 19.1299 16.4323C20.2043 14.8243 20.7777 12.9339 20.7777 11C20.7777 8.40678 19.7476 5.91976 17.9139 4.08607C16.0802 2.25239 13.5932 1.22223 11 1.22223ZM2.52384 11C2.52101 8.80838 3.3678 6.70097 4.88627 5.12062C6.40474 3.54028 8.47667 2.61004 10.6667 2.52538C12.8567 2.44072 14.9942 3.20824 16.6301 4.66665C18.2661 6.12506 19.273 8.16081 19.4394 10.3461H17.5205C17.3471 10.3461 17.1808 10.415 17.0581 10.5376C16.9355 10.6603 16.8666 10.8266 16.8666 11C16.865 12.5554 16.2464 14.0467 15.1465 15.1466C14.0467 16.2464 12.5554 16.8651 11 16.8667C10.8265 16.8667 10.6602 16.9356 10.5376 17.0582C10.415 17.1808 10.3461 17.3471 10.3461 17.5206V19.4456C8.21904 19.2796 6.2327 18.3181 4.78296 16.7528C3.33323 15.1876 2.52659 13.1335 2.52384 11ZM11.6538 19.4395V18.1439C13.3231 17.9898 14.8858 17.2565 16.0711 16.0712C17.2565 14.8858 17.9897 13.3231 18.1438 11.6539H19.4455C19.2871 13.667 18.4151 15.5575 16.9867 16.9848C15.5582 18.4122 13.6671 19.2826 11.6538 19.4395Z" fill="#181A1F"/>
<path d="M12.4973 13.4444L13.4445 12.4972L11.6784 10.7311V6.45331H10.3462V11C10.3467 11.1717 10.4148 11.3363 10.5356 11.4583L12.4973 13.4444Z" fill="#181A1F"/>
</svg>
