<svg width="22" height="22" viewBox="0 0 22 22" fill="none" xmlns="http://www.w3.org/2000/svg">
<g clip-path="url(#clip0_132_6246)">
<path d="M13.0625 13.4062L17.0088 9.515C17.1141 9.41332 17.1868 9.2825 17.2174 9.13929C17.248 8.99608 17.2351 8.847 17.1805 8.71114C17.1258 8.57528 17.0319 8.45881 16.9107 8.37666C16.7894 8.29451 16.6464 8.25041 16.5 8.25H14.3C14.1181 8.26765 13.9492 8.35242 13.8263 8.48777C13.7035 8.62313 13.6354 8.79938 13.6354 8.98219C13.6354 9.16499 13.7035 9.34124 13.8263 9.4766C13.9492 9.61196 14.1181 9.69672 14.3 9.71438H14.7194L12.045 12.375L9.52188 10.0306C9.3811 9.89421 9.21402 9.7879 9.03081 9.71816C8.8476 9.64842 8.65211 9.61672 8.45626 9.625C8.26178 9.63487 8.07116 9.68308 7.89536 9.76685C7.71957 9.85062 7.56206 9.9683 7.43188 10.1131L5.16313 12.6156C5.05308 12.763 5.00225 12.9463 5.02066 13.1293C5.03907 13.3124 5.12539 13.4819 5.26259 13.6044C5.39979 13.7269 5.57792 13.7936 5.76186 13.7913C5.94579 13.789 6.12219 13.7178 6.25626 13.5919L8.52501 11.0894L11.0481 13.4338C11.3236 13.6878 11.6861 13.8265 12.0608 13.8214C12.4355 13.8163 12.794 13.6677 13.0625 13.4062Z" fill="white"/>
<path d="M20.9275 1.07252C20.588 0.731077 20.184 0.460449 19.7391 0.276341C19.2942 0.0922336 18.8171 -0.00168889 18.3356 2.2986e-05H3.66438C2.69252 2.2986e-05 1.76047 0.38609 1.07327 1.07329C0.386067 1.7605 0 2.69255 0 3.6644L0 18.3356C0 19.3075 0.386067 20.2396 1.07327 20.9268C1.76047 21.614 2.69252 22 3.66438 22H18.3356C19.3075 22 20.2395 21.614 20.9267 20.9268C21.6139 20.2396 22 19.3075 22 18.3356V3.6644C22.0017 3.18289 21.9078 2.70583 21.7237 2.2609C21.5396 1.81598 21.2689 1.41204 20.9275 1.07252ZM20.5356 18.3288C20.5356 18.9123 20.3038 19.4718 19.8913 19.8844C19.4787 20.297 18.9191 20.5288 18.3356 20.5288H3.66438C3.0809 20.5288 2.52132 20.297 2.10874 19.8844C1.69616 19.4718 1.46438 18.9123 1.46438 18.3288V3.6644C1.46438 3.08092 1.69616 2.52134 2.10874 2.10876C2.52132 1.69618 3.0809 1.4644 3.66438 1.4644H18.3356C18.9191 1.4644 19.4787 1.69618 19.8913 2.10876C20.3038 2.52134 20.5356 3.08092 20.5356 3.6644V18.3288Z" fill="white"/>
<path d="M5.13564 4.75065H7.33564C7.51759 4.733 7.68644 4.64823 7.8093 4.51288C7.93217 4.37752 8.00023 4.20126 8.00023 4.01846C8.00023 3.83566 7.93217 3.65941 7.8093 3.52405C7.68644 3.38869 7.51759 3.30393 7.33564 3.28627H5.13564C5.03352 3.27637 4.93047 3.28793 4.83309 3.32022C4.73571 3.35251 4.64616 3.40481 4.57019 3.47376C4.49422 3.54271 4.43352 3.6268 4.39198 3.7206C4.35044 3.81441 4.32898 3.91587 4.32898 4.01846C4.32898 4.12106 4.35044 4.22251 4.39198 4.31632C4.43352 4.41013 4.49422 4.49421 4.57019 4.56316C4.64616 4.63212 4.73571 4.68442 4.83309 4.7167C4.93047 4.74899 5.03352 4.76056 5.13564 4.75065Z" fill="white"/>
<path d="M6.60001 16.1356H5.13564C5.03352 16.1257 4.93047 16.1373 4.83309 16.1696C4.73571 16.2019 4.64616 16.2542 4.57019 16.3231C4.49422 16.3921 4.43352 16.4762 4.39198 16.57C4.35044 16.6638 4.32898 16.7652 4.32898 16.8678C4.32898 16.9704 4.35044 17.0719 4.39198 17.1657C4.43352 17.2595 4.49422 17.3436 4.57019 17.4125C4.64616 17.4815 4.73571 17.5338 4.83309 17.5661C4.93047 17.5984 5.03352 17.6099 5.13564 17.6H6.60001C6.70213 17.6099 6.80518 17.5984 6.90256 17.5661C6.99994 17.5338 7.08949 17.4815 7.16546 17.4125C7.24142 17.3436 7.30213 17.2595 7.34367 17.1657C7.38521 17.0719 7.40667 16.9704 7.40667 16.8678C7.40667 16.7652 7.38521 16.6638 7.34367 16.57C7.30213 16.4762 7.24142 16.3921 7.16546 16.3231C7.08949 16.2542 6.99994 16.2019 6.90256 16.1696C6.80518 16.1373 6.70213 16.1257 6.60001 16.1356Z" fill="white"/>
<path d="M16.8644 16.1356H9.5356C9.43349 16.1257 9.33043 16.1373 9.23305 16.1696C9.13567 16.2019 9.04612 16.2542 8.97015 16.3231C8.89419 16.3921 8.83348 16.4762 8.79194 16.57C8.7504 16.6638 8.72894 16.7652 8.72894 16.8678C8.72894 16.9704 8.7504 17.0719 8.79194 17.1657C8.83348 17.2595 8.89419 17.3436 8.97015 17.4125C9.04612 17.4815 9.13567 17.5338 9.23305 17.5661C9.33043 17.5984 9.43349 17.6099 9.5356 17.6H16.8644C16.9665 17.6099 17.0695 17.5984 17.1669 17.5661C17.2643 17.5338 17.3538 17.4815 17.4298 17.4125C17.5058 17.3436 17.5665 17.2595 17.608 17.1657C17.6495 17.0719 17.671 16.9704 17.671 16.8678C17.671 16.7652 17.6495 16.6638 17.608 16.57C17.5665 16.4762 17.5058 16.3921 17.4298 16.3231C17.3538 16.2542 17.2643 16.2019 17.1669 16.1696C17.0695 16.1373 16.9665 16.1257 16.8644 16.1356Z" fill="white"/>
</g>
<defs>
<clipPath id="clip0_132_6246">
<rect width="22" height="22" fill="white"/>
</clipPath>
</defs>
</svg>
