<svg width="34" height="34" viewBox="0 0 34 34" fill="none" xmlns="http://www.w3.org/2000/svg">
<rect width="34" height="34" rx="6" fill="#F6F6F6"/>
<g clip-path="url(#clip0_146_6071)">
<path d="M11.7009 14.1016L12.4274 22.8717C12.4795 23.5041 13.0182 24 13.6531 24H20.347C20.9818 24 21.5206 23.5041 21.5726 22.8717L22.2991 14.1016H11.7009ZM14.9488 22.3594C14.7341 22.3594 14.5535 22.1924 14.5399 21.9748L14.1297 15.3577C14.1157 15.1314 14.2875 14.9367 14.5135 14.9227C14.7478 14.9062 14.934 15.0801 14.9484 15.3064L15.3586 21.9236C15.3731 22.1579 15.1877 22.3594 14.9488 22.3594ZM17.4102 21.9492C17.4102 22.1759 17.2267 22.3594 17 22.3594C16.7733 22.3594 16.5899 22.1759 16.5899 21.9492V15.332C16.5899 15.1053 16.7733 14.9219 17 14.9219C17.2267 14.9219 17.4102 15.1053 17.4102 15.332V21.9492ZM19.8703 15.3577L19.4601 21.9749C19.4466 22.1902 19.2672 22.3696 19.0251 22.3586C18.7992 22.3446 18.6274 22.1499 18.6414 21.9236L19.0516 15.3064C19.0656 15.0801 19.2639 14.9155 19.4866 14.9227C19.7125 14.9367 19.8843 15.1314 19.8703 15.3577Z" fill="#181A1F"/>
<path d="M22.332 11.6406H19.8711V11.2305C19.8711 10.552 19.3191 10 18.6406 10H15.3594C14.6809 10 14.1289 10.552 14.1289 11.2305V11.6406H11.668C11.2149 11.6406 10.8477 12.0079 10.8477 12.4609C10.8477 12.9139 11.2149 13.2812 11.668 13.2812C15.4405 13.2812 18.5597 13.2812 22.332 13.2812C22.7851 13.2812 23.1523 12.9139 23.1523 12.4609C23.1523 12.0079 22.7851 11.6406 22.332 11.6406ZM19.0508 11.6406H14.9492V11.2305C14.9492 11.0042 15.1331 10.8203 15.3594 10.8203H18.6406C18.8669 10.8203 19.0508 11.0042 19.0508 11.2305V11.6406Z" fill="#181A1F"/>
</g>
<defs>
<clipPath id="clip0_146_6071">
<rect width="14" height="14" fill="white" transform="translate(10 10)"/>
</clipPath>
</defs>
</svg>
