<svg width="60" height="60" viewBox="0 0 60 60" fill="none" xmlns="http://www.w3.org/2000/svg">
<rect width="60" height="60" rx="30" fill="#F0FBF7"/>
<path d="M32.4671 30.6692C31.412 30.6692 30.3807 30.3563 29.5034 29.7701C28.6261 29.184 27.9424 28.3508 27.5386 27.376C27.1349 26.4013 27.0292 25.3287 27.2351 24.2939C27.4409 23.2591 27.949 22.3085 28.695 21.5625C29.4411 20.8164 30.3916 20.3083 31.4264 20.1025C32.4612 19.8967 33.5338 20.0023 34.5086 20.4061C35.4833 20.8098 36.3165 21.4936 36.9027 22.3708C37.4888 23.2481 37.8017 24.2795 37.8017 25.3346C37.8001 26.7489 37.2375 28.1048 36.2374 29.1049C35.2373 30.1049 33.8814 30.6675 32.4671 30.6692ZM32.4671 21.3321C31.6755 21.3321 30.9017 21.5668 30.2435 22.0066C29.5853 22.4464 29.0722 23.0715 28.7693 23.8029C28.4664 24.5343 28.3871 25.339 28.5415 26.1154C28.696 26.8918 29.0772 27.605 29.6369 28.1648C30.1967 28.7245 30.9099 29.1057 31.6863 29.2602C32.4627 29.4146 33.2675 29.3353 33.9988 29.0324C34.7302 28.7295 35.3553 28.2165 35.7951 27.5583C36.2349 26.9 36.4696 26.1262 36.4696 25.3346C36.4696 24.2725 36.0481 23.2538 35.2977 22.5022C34.5473 21.7506 33.5292 21.3275 32.4671 21.3258V21.3321Z" fill="#181A1F"/>
<path d="M38.0143 40.006H26.9261C26.6139 40.0065 26.3058 39.9339 26.0266 39.7941C25.7474 39.6542 25.5048 39.4509 25.3182 39.2005C25.1316 38.9501 25.0062 38.6595 24.952 38.352C24.8979 38.0445 24.9164 37.7285 25.0062 37.4294L25.6316 35.3281C25.916 34.3641 26.5058 33.5185 27.3122 32.9185C28.1186 32.3185 29.098 31.9965 30.1031 32.001H34.8186C35.8237 31.9965 36.8031 32.3185 37.6095 32.9185C38.4159 33.5185 39.0056 34.3641 39.2901 35.3281L39.9155 37.4294C40.0048 37.727 40.0236 38.0413 39.9705 38.3474C39.9173 38.6535 39.7936 38.943 39.6091 39.193C39.4246 39.443 39.1845 39.6467 38.9077 39.7878C38.6309 39.9289 38.325 40.0036 38.0143 40.006ZM30.1094 33.3331C29.3911 33.3295 28.6911 33.5593 28.1148 33.9879C27.5384 34.4165 27.1169 35.0207 26.9136 35.7096L26.2882 37.8109C26.2595 37.9093 26.2537 38.013 26.2713 38.1139C26.289 38.2149 26.3296 38.3105 26.39 38.3933C26.4504 38.476 26.5291 38.5438 26.6199 38.5914C26.7107 38.639 26.8112 38.6651 26.9136 38.6677H38.0143C38.1175 38.6654 38.2187 38.6392 38.3101 38.5913C38.4015 38.5433 38.4806 38.4749 38.5411 38.3913C38.6017 38.3078 38.6421 38.2113 38.6592 38.1095C38.6763 38.0078 38.6696 37.9034 38.6397 37.8046L38.0143 35.7033C37.811 35.0144 37.3895 34.4102 36.8131 33.9816C36.2368 33.553 35.5368 33.3232 34.8186 33.3269L30.1094 33.3331Z" fill="#181A1F"/>
<path d="M26.676 30.5881H26.5509C25.3272 30.3595 24.2219 29.7101 23.4266 28.7525C22.6312 27.7948 22.1958 26.5891 22.1958 25.3442C22.1958 24.0993 22.6312 22.8936 23.4266 21.9359C24.2219 20.9782 25.3272 20.3288 26.5509 20.1003C26.6389 20.0793 26.7303 20.0764 26.8194 20.0917C26.9086 20.107 26.9937 20.1402 27.0696 20.1894C27.1456 20.2385 27.2108 20.3025 27.2613 20.3776C27.3118 20.4526 27.3465 20.5371 27.3635 20.626C27.3804 20.7148 27.3791 20.8062 27.3597 20.8946C27.3404 20.9829 27.3033 21.0664 27.2507 21.1401C27.1981 21.2137 27.1312 21.2759 27.0539 21.3229C26.9766 21.3699 26.8906 21.4008 26.8011 21.4136C25.8874 21.5892 25.0633 22.0776 24.4707 22.795C23.8781 23.5123 23.5539 24.4137 23.5539 25.3442C23.5539 26.2746 23.8781 27.176 24.4707 27.8934C25.0633 28.6107 25.8874 29.0992 26.8011 29.2747C26.9582 29.3121 27.0965 29.4049 27.1905 29.5361C27.2845 29.6674 27.3279 29.8282 27.3127 29.989C27.2974 30.1497 27.2246 30.2995 27.1076 30.4107C26.9906 30.522 26.8373 30.5872 26.676 30.5943V30.5881Z" fill="#181A1F"/>
<path d="M23.3365 40.0062H22.0044C21.6922 40.0067 21.3841 39.9341 21.1049 39.7942C20.8257 39.6543 20.5831 39.4511 20.3965 39.2007C20.2099 38.9503 20.0845 38.6597 20.0304 38.3521C19.9762 38.0446 19.9947 37.7287 20.0845 37.4296L20.7099 35.3283C20.9946 34.3632 21.5854 33.5168 22.393 32.9167C23.2007 32.3166 24.1815 31.9953 25.1877 32.0012C25.2806 31.9922 25.3743 32.0027 25.4629 32.0321C25.5515 32.0614 25.6329 32.109 25.702 32.1717C25.7711 32.2344 25.8264 32.3109 25.8642 32.3963C25.9019 32.4816 25.9215 32.5739 25.9215 32.6672C25.9215 32.7605 25.9019 32.8528 25.8642 32.9382C25.8264 33.0235 25.7711 33.1 25.702 33.1627C25.6329 33.2254 25.5515 33.273 25.4629 33.3024C25.3743 33.3317 25.2806 33.3423 25.1877 33.3333C24.4694 33.3296 23.7695 33.5594 23.1931 33.988C22.6167 34.4166 22.1952 35.0208 21.9919 35.7097L21.3665 37.811C21.3378 37.9094 21.332 38.0131 21.3496 38.1141C21.3673 38.215 21.4079 38.3106 21.4683 38.3934C21.5287 38.4762 21.6074 38.544 21.6982 38.5916C21.789 38.6392 21.8895 38.6652 21.9919 38.6678H23.3365C23.4294 38.6588 23.5232 38.6693 23.6117 38.6987C23.7003 38.7281 23.7818 38.7757 23.8509 38.8384C23.92 38.9011 23.9752 38.9776 24.013 39.0629C24.0508 39.1483 24.0703 39.2406 24.0703 39.3339C24.0703 39.4272 24.0508 39.5195 24.013 39.6048C23.9752 39.6902 23.92 39.7666 23.8509 39.8294C23.7818 39.8921 23.7003 39.9397 23.6117 39.969C23.5232 39.9984 23.4294 40.0089 23.3365 39.9999V40.0062Z" fill="#181A1F"/>
</svg>
