<svg width="8" height="8" viewBox="0 0 12 19" fill="none" xmlns="http://www.w3.org/2000/svg">
<path d="M6.87 8.21011H5.13C4.86147 8.21011 4.60393 8.10343 4.41405 7.91355C4.22417 7.72367 4.1175 7.46614 4.1175 7.19761C4.1175 6.92908 4.22417 6.67154 4.41405 6.48166C4.60393 6.29178 4.86147 6.18511 5.13 6.18511H9.135C9.35779 6.20672 9.58265 6.18149 9.79511 6.11105C10.0076 6.0406 10.203 5.92649 10.3687 5.77605C10.5344 5.6256 10.6669 5.44215 10.7575 5.23748C10.8482 5.03281 10.895 4.81145 10.895 4.58761C10.895 4.36377 10.8482 4.1424 10.7575 3.93773C10.6669 3.73306 10.5344 3.54961 10.3687 3.39917C10.203 3.24873 10.0076 3.13462 9.79511 3.06417C9.58265 2.99372 9.35779 2.96849 9.135 2.99011H7.635V2.16511C7.59649 1.76813 7.41155 1.39971 7.11622 1.13165C6.82089 0.863588 6.43634 0.715088 6.0375 0.715088C5.63866 0.715088 5.2541 0.863588 4.95878 1.13165C4.66345 1.39971 4.47851 1.76813 4.44 2.16511V3.06511C3.40147 3.24253 2.46756 3.80378 1.82349 4.63755C1.17941 5.47132 0.87222 6.51671 0.962839 7.56637C1.05346 8.61604 1.53527 9.59331 2.31271 10.3044C3.09015 11.0154 4.10643 11.4083 5.16 11.4051H6.9C7.16853 11.4051 7.42606 11.5118 7.61594 11.7017C7.80582 11.8915 7.9125 12.1491 7.9125 12.4176C7.9125 12.6861 7.80582 12.9437 7.61594 13.1336C7.42606 13.3234 7.16853 13.4301 6.9 13.4301H2.865C2.6422 13.4085 2.41735 13.4337 2.20489 13.5042C1.99242 13.5746 1.79704 13.6887 1.6313 13.8392C1.46555 13.9896 1.33311 14.1731 1.24247 14.3777C1.15184 14.5824 1.10502 14.8038 1.10502 15.0276C1.10502 15.2514 1.15184 15.4728 1.24247 15.6775C1.33311 15.8822 1.46555 16.0656 1.6313 16.216C1.79704 16.3665 1.99242 16.4806 2.20489 16.551C2.41735 16.6215 2.6422 16.6467 2.865 16.6251H4.365V17.4501C4.40351 17.8471 4.58845 18.2155 4.88377 18.4836C5.1791 18.7516 5.56366 18.9001 5.9625 18.9001C6.36134 18.9001 6.74589 18.7516 7.04122 18.4836C7.33654 18.2155 7.52149 17.8471 7.56 17.4501V16.5501C8.59852 16.3727 9.53243 15.8114 10.1765 14.9777C10.8206 14.1439 11.1278 13.0985 11.0372 12.0488C10.9465 10.9992 10.4647 10.0219 9.68729 9.31086C8.90985 8.59981 7.89356 8.20692 6.84 8.21011H6.87Z" fill="#181A1F"/>
</svg>
