<svg width="60" height="60" viewBox="0 0 60 60" fill="none" xmlns="http://www.w3.org/2000/svg">
<path d="M4.29401 28.4851V49.9561H13.8622L14.3453 50.0101C23.2282 51.9781 29.1144 53.3971 32.048 54.2761C35.9447 55.4431 37.3973 55.7281 40.0404 55.8961C42.0171 56.0251 44.2623 55.3021 45.2855 54.3121C45.8507 53.7661 46.2739 52.6441 46.4412 50.9041C46.4759 50.5392 46.6132 50.1899 46.8388 49.8927C47.0643 49.5956 47.3698 49.3615 47.7233 49.2151C48.5096 48.8911 49.1633 48.3631 49.7096 47.5951C50.2148 46.8931 50.5432 45.5851 50.6032 43.6921C50.6138 43.344 50.7176 43.0043 50.9049 42.7051C51.0923 42.4059 51.3569 42.157 51.6737 41.9821C53.5116 40.9711 54.421 39.8311 54.6105 38.4931C54.8189 37.0141 54.3136 35.3491 52.9905 33.4531C52.6801 33.0084 52.5645 32.4662 52.6682 31.9418C52.772 31.4175 53.087 30.9522 53.5463 30.6451C54.8126 29.7991 55.5073 28.6231 55.681 26.9551C55.9589 24.2971 54.1747 22.3321 50.1359 21.9391C46.5387 21.6011 42.9068 21.8888 39.4183 22.7881C39.0225 22.8863 38.6055 22.8751 38.2162 22.7559C37.827 22.6366 37.4816 22.4142 37.2209 22.1148C36.9602 21.8154 36.7948 21.4515 36.7444 21.0659C36.694 20.6802 36.7605 20.289 36.9362 19.9381C38.5151 16.7641 39.393 14.1451 39.5983 12.1171C39.8667 9.42606 39.213 7.47606 37.6846 5.86805C36.5257 4.65005 34.6721 3.95406 33.9774 4.09806C33.0616 4.28406 32.4648 4.78805 31.688 6.55206C31.2301 7.59606 31.009 8.48406 30.6301 10.5571C30.267 12.5251 30.068 13.4131 29.6543 14.5771C28.407 18.1051 25.3471 21.7621 21.2388 24.2851C18.3595 26.0512 15.239 27.4341 11.9643 28.3951C11.7597 28.455 11.5468 28.4853 11.3328 28.4851H4.29401ZM4.16138 54.0451C3.14141 54.0721 2.22564 53.8561 1.4583 53.3461C0.479377 52.6951 0.0183373 51.6691 0.00886385 50.4871L0.0183373 28.5181C-0.0890281 27.3481 0.274119 26.2741 1.13304 25.4761C1.93828 24.7261 2.98983 24.3721 4.10138 24.3961H11.0012C13.7922 23.5512 16.4532 22.3588 18.9146 20.8501C22.224 18.8161 24.6618 15.9001 25.5934 13.2721C25.9123 12.3661 26.0829 11.6161 26.405 9.85205C26.8407 7.48505 27.1123 6.38406 27.7376 4.96806C29.0323 2.02206 30.7311 0.582055 33.0742 0.0990551C35.3794 -0.374945 38.7362 0.888055 40.8582 3.12005C43.2108 5.59205 44.2497 8.68506 43.8645 12.5071C43.7003 14.1511 43.2203 15.9901 42.4308 18.0391C45.1269 17.6658 47.8611 17.6094 50.5716 17.8711C56.9094 18.4861 60.4682 22.4071 59.9503 27.3631C59.723 29.4991 58.9082 31.3141 57.522 32.7391C58.6872 34.8721 59.1514 36.9811 58.8609 39.0391C58.5261 41.4091 57.1367 43.3831 54.8252 44.9161C54.6452 46.9951 54.1431 48.6541 53.2526 49.8961C52.551 50.8995 51.6355 51.7518 50.5653 52.3981C50.2243 54.4501 49.5075 56.0551 48.3359 57.1831C46.3939 59.0611 42.9234 60.1801 39.753 59.9761C36.7436 59.7841 34.9626 59.4361 30.7627 58.1761C27.9933 57.3451 22.2588 55.9651 13.6158 54.0451H4.16138ZM9.5328 27.5521C9.53197 27.2837 9.5869 27.0177 9.69444 26.7695C9.80198 26.5213 9.96002 26.2957 10.1595 26.1057C10.359 25.9156 10.596 25.7648 10.8569 25.6619C11.1178 25.559 11.3976 25.5061 11.6801 25.5061C11.9621 25.5068 12.2412 25.5604 12.5014 25.6636C12.7616 25.7669 12.9978 25.9178 13.1966 26.1078C13.3954 26.2978 13.5529 26.5231 13.6601 26.7709C13.7672 27.0187 13.8219 27.2842 13.8211 27.5521V50.5861C13.8215 50.854 13.7664 51.1193 13.6589 51.367C13.5513 51.6146 13.3935 51.8397 13.1944 52.0294C12.9953 52.2191 12.7588 52.3697 12.4985 52.4726C12.2381 52.5755 11.9589 52.6287 11.677 52.6291C11.395 52.6287 11.1158 52.5755 10.8555 52.4726C10.5951 52.3697 10.3586 52.2191 10.1595 52.0294C9.9604 51.8397 9.80258 51.6146 9.69505 51.367C9.58752 51.1193 9.53239 50.854 9.5328 50.5861V27.5521Z" fill="white"/>
</svg>
