<svg width="20" height="20" viewBox="0 0 20 20" fill="none" xmlns="http://www.w3.org/2000/svg">
<path d="M12.2615 10.6134C11.2943 10.6134 10.3489 10.3266 9.54474 9.78926C8.74058 9.25194 8.11381 8.48822 7.74369 7.59468C7.37358 6.70114 7.27674 5.71792 7.46542 4.76935C7.65411 3.82078 8.11984 2.94946 8.80372 2.26557C9.4876 1.58169 10.3589 1.11596 11.3075 0.927276C12.2561 0.738593 13.2393 0.835432 14.1328 1.20555C15.0264 1.57566 15.7901 2.20243 16.3274 3.00659C16.8647 3.81075 17.1515 4.75619 17.1515 5.72335C17.15 7.0198 16.6343 8.26272 15.7176 9.17945C14.8009 10.0962 13.5579 10.6119 12.2615 10.6134ZM12.2615 2.05439C11.5358 2.05439 10.8265 2.26957 10.2231 2.67272C9.61977 3.07587 9.14951 3.64888 8.87182 4.3193C8.59412 4.98971 8.52147 5.72742 8.66303 6.43912C8.8046 7.15083 9.15404 7.80458 9.66715 8.31769C10.1803 8.8308 10.834 9.18024 11.5457 9.32181C12.2574 9.46337 12.9951 9.39072 13.6655 9.11302C14.336 8.83533 14.909 8.36507 15.3121 7.76171C15.7153 7.15835 15.9304 6.449 15.9304 5.72335C15.9305 4.74975 15.5441 3.81595 14.8562 3.12697C14.1683 2.438 13.2351 2.05018 12.2615 2.04866V2.05439Z" fill="white"/>
<path d="M17.3464 19.1724H7.18225C6.896 19.1728 6.61361 19.1063 6.35768 18.9781C6.10174 18.8499 5.87936 18.6635 5.70832 18.434C5.53729 18.2045 5.42234 17.9381 5.37267 17.6562C5.32301 17.3743 5.34 17.0846 5.4223 16.8105L5.99557 14.8843C6.25633 14.0006 6.79696 13.2254 7.53615 12.6754C8.27534 12.1254 9.17313 11.8303 10.0945 11.8345H14.417C15.3383 11.8303 16.2361 12.1254 16.9753 12.6754C17.7145 13.2254 18.2551 14.0006 18.5159 14.8843L19.0892 16.8105C19.1711 17.0833 19.1883 17.3714 19.1396 17.652C19.0908 17.9326 18.9774 18.198 18.8083 18.4271C18.6392 18.6563 18.4191 18.843 18.1653 18.9723C17.9116 19.1017 17.6312 19.1702 17.3464 19.1724ZM10.1002 13.0555C9.44183 13.0522 8.80018 13.2629 8.27185 13.6557C7.74353 14.0486 7.35712 14.6025 7.17079 15.234L6.59751 17.1602C6.57114 17.2504 6.56583 17.3454 6.58201 17.4379C6.59818 17.5305 6.63541 17.6181 6.6908 17.694C6.7462 17.7699 6.81829 17.832 6.90151 17.8757C6.98473 17.9193 7.07686 17.9432 7.17079 17.9456H17.3464C17.441 17.9434 17.5338 17.9195 17.6176 17.8755C17.7013 17.8316 17.7738 17.7688 17.8293 17.6922C17.8848 17.6156 17.9219 17.5272 17.9376 17.4339C17.9532 17.3406 17.9471 17.245 17.9197 17.1544L17.3464 15.2282C17.1601 14.5968 16.7737 14.0429 16.2453 13.65C15.717 13.2571 15.0754 13.0465 14.417 13.0498L10.1002 13.0555Z" fill="white"/>
<path d="M6.95301 10.5389H6.83836C5.71659 10.3293 4.70343 9.7341 3.97433 8.85622C3.24524 7.97834 2.84613 6.87311 2.84613 5.73195C2.84613 4.59079 3.24524 3.48556 3.97433 2.60768C4.70343 1.7298 5.71659 1.13456 6.83836 0.925046C6.91901 0.905818 7.00273 0.903142 7.08445 0.917181C7.16617 0.931219 7.2442 0.961681 7.31382 1.00672C7.38343 1.05177 7.44319 1.11046 7.48949 1.17925C7.53579 1.24804 7.56765 1.3255 7.58317 1.40695C7.59868 1.48841 7.59752 1.57216 7.57976 1.65315C7.56199 1.73415 7.52799 1.8107 7.47981 1.87818C7.43162 1.94566 7.37026 2.00267 7.29942 2.04577C7.22858 2.08886 7.14974 2.11715 7.06767 2.12892C6.23007 2.28988 5.47472 2.73764 4.93149 3.3952C4.38827 4.05275 4.09111 4.87903 4.09111 5.73195C4.09111 6.58488 4.38827 7.41115 4.93149 8.06871C5.47472 8.72627 6.23007 9.17402 7.06767 9.33498C7.21166 9.36918 7.33843 9.45428 7.42461 9.5746C7.51079 9.69492 7.55056 9.84233 7.53659 9.98967C7.52263 10.137 7.45587 10.2743 7.34862 10.3763C7.24137 10.4783 7.10086 10.5381 6.95301 10.5446V10.5389Z" fill="white"/>
<path d="M3.89179 19.1723H2.67072C2.38446 19.1728 2.10208 19.1062 1.84614 18.978C1.59021 18.8498 1.36783 18.6635 1.19679 18.434C1.02575 18.2044 0.910802 17.938 0.861136 17.6561C0.81147 17.3742 0.828466 17.0846 0.910764 16.8104L1.48404 14.8842C1.74506 13.9996 2.28656 13.2238 3.02691 12.6737C3.76726 12.1236 4.66635 11.829 5.58868 11.8344C5.67383 11.8261 5.75977 11.8358 5.84097 11.8627C5.92217 11.8896 5.99684 11.9332 6.06018 11.9907C6.12353 12.0482 6.17415 12.1184 6.20879 12.1966C6.24342 12.2748 6.26132 12.3594 6.26132 12.4449C6.26132 12.5305 6.24342 12.6151 6.20879 12.6933C6.17415 12.7715 6.12353 12.8416 6.06018 12.8991C5.99684 12.9566 5.92217 13.0003 5.84097 13.0272C5.75977 13.0541 5.67383 13.0637 5.58868 13.0555C4.9303 13.0522 4.28865 13.2628 3.76032 13.6557C3.23199 14.0486 2.84558 14.6024 2.65925 15.2339L2.08598 17.1601C2.0596 17.2503 2.0543 17.3453 2.07047 17.4379C2.08665 17.5305 2.12387 17.6181 2.17927 17.694C2.23466 17.7698 2.30675 17.832 2.38997 17.8756C2.47319 17.9192 2.56532 17.9431 2.65925 17.9455H3.89179C3.97694 17.9373 4.06287 17.9469 4.14408 17.9738C4.22528 18.0007 4.29995 18.0444 4.36329 18.1019C4.42664 18.1593 4.47725 18.2295 4.51189 18.3077C4.54653 18.3859 4.56443 18.4705 4.56443 18.5561C4.56443 18.6416 4.54653 18.7262 4.51189 18.8044C4.47725 18.8826 4.42664 18.9528 4.36329 19.0103C4.29995 19.0677 4.22528 19.1114 4.14408 19.1383C4.06287 19.1652 3.97694 19.1749 3.89179 19.1666V19.1723Z" fill="white"/>
</svg>
