<svg width="60" height="60" viewBox="0 0 60 60" fill="none" xmlns="http://www.w3.org/2000/svg">
<rect width="60" height="60" rx="30" fill="#F0FBF7"/>
<g clip-path="url(#clip0_112_3105)">
<path d="M19.8594 26.1328H32.9272C33.323 27.9724 34.9619 29.3555 36.918 29.3555C39.1688 29.3555 41 27.5243 41 25.2734C41 23.0226 39.1688 21.1914 36.918 21.1914C34.9619 21.1914 33.323 22.5745 32.9272 24.4141H19.8594C19.3847 24.4141 19 24.7988 19 25.2734C19 25.7481 19.3847 26.1328 19.8594 26.1328ZM36.918 22.9102C38.2211 22.9102 39.2812 23.9703 39.2812 25.2734C39.2812 26.5766 38.2211 27.6367 36.918 27.6367C35.6148 27.6367 34.5547 26.5766 34.5547 25.2734C34.5547 23.9703 35.6148 22.9102 36.918 22.9102ZM40.1406 33.8672H27.0728C26.677 32.0276 25.0381 30.6445 23.082 30.6445C20.8312 30.6445 19 32.4757 19 34.7266C19 36.9774 20.8312 38.8086 23.082 38.8086C25.0381 38.8086 26.677 37.4255 27.0728 35.5859H40.1406C40.6153 35.5859 41 35.2012 41 34.7266C41 34.2519 40.6153 33.8672 40.1406 33.8672ZM23.082 37.0898C21.7789 37.0898 20.7188 36.0297 20.7188 34.7266C20.7188 33.4234 21.7789 32.3633 23.082 32.3633C24.3852 32.3633 25.4453 33.4234 25.4453 34.7266C25.4453 36.0297 24.3852 37.0898 23.082 37.0898Z" fill="#181A1F"/>
</g>
<defs>
<clipPath id="clip0_112_3105">
<rect width="22" height="22" fill="white" transform="translate(19 19)"/>
</clipPath>
</defs>
</svg>
