<svg width="100" height="43" viewBox="0 0 100 43" fill="none" xmlns="http://www.w3.org/2000/svg">
<path d="M0 0H85C93.2843 0 100 6.71573 100 15V40H15C6.71573 40 0 33.2843 0 25V0Z" fill="white"/>
<g filter="url(#filter0_d_100_947)">
<path d="M18.001 20.9515C16.6372 20.9523 15.3042 21.3574 14.1706 22.1157C13.037 22.874 12.1538 23.9515 11.6325 25.2118C11.1113 26.4721 10.9755 27.8587 11.2423 29.1961C11.5091 30.5336 12.1665 31.762 13.1314 32.7258C14.0963 33.6897 15.3253 34.3458 16.6631 34.6111C18.0009 34.8765 19.3873 34.7392 20.6471 34.2166C21.9068 33.694 22.9833 32.8096 23.7404 31.6752C24.4975 30.5408 24.9012 29.2073 24.9004 27.8435C24.9024 26.9372 24.7252 26.0395 24.3791 25.202C24.033 24.3644 23.5247 23.6036 22.8836 22.9631C22.2424 22.3226 21.481 21.8152 20.6431 21.47C19.8052 21.1248 18.9073 20.9486 18.001 20.9515ZM18.001 33.2519C16.9304 33.2534 15.8835 32.9373 14.9925 32.3437C14.1016 31.7501 13.4068 30.9055 12.9959 29.9169C12.585 28.9283 12.4765 27.8401 12.6842 26.7898C12.8919 25.7396 13.4064 24.7745 14.1626 24.0167C14.9189 23.2589 15.8829 22.7424 16.9327 22.5326C17.9825 22.3227 19.071 22.4289 20.0604 22.8378C21.0499 23.2466 21.8958 23.9397 22.4913 24.8294C23.0868 25.7191 23.405 26.7654 23.4057 27.836C23.4092 28.546 23.2723 29.2497 23.003 29.9066C22.7337 30.5636 22.3372 31.1608 21.8364 31.6641C21.3355 32.1673 20.7402 32.5667 20.0846 32.8392C19.4289 33.1117 18.7259 33.252 18.0159 33.2519H18.001Z" fill="#588A87"/>
<path d="M81.0613 20.9518C79.6973 20.9518 78.3639 21.3563 77.2299 22.1142C76.0958 22.872 75.212 23.9492 74.6901 25.2095C74.1683 26.4697 74.032 27.8564 74.2984 29.1941C74.5648 30.5319 75.2219 31.7605 76.1866 32.7248C77.1514 33.689 78.3804 34.3455 79.7183 34.6111C81.0562 34.8768 82.4428 34.7397 83.7027 34.2172C84.9627 33.6947 86.0394 32.8103 86.7967 31.6758C87.5539 30.5413 87.9577 29.2077 87.957 27.8437C87.9585 26.938 87.7811 26.0408 87.435 25.2037C87.0889 24.3666 86.581 23.6061 85.9403 22.9658C85.2997 22.3255 84.5389 21.8179 83.7016 21.4723C82.8644 21.1267 81.9671 20.9498 81.0613 20.9518ZM81.0613 33.2522C79.9906 33.2544 78.9432 32.939 78.0518 32.3458C77.1604 31.7526 76.4649 30.9083 76.0535 29.9198C75.642 28.9313 75.533 27.8429 75.7403 26.7924C75.9476 25.7419 76.4618 24.7765 77.2179 24.0183C77.9739 23.2601 78.9379 22.7433 79.9878 22.5331C81.0378 22.323 82.1264 22.4289 83.1161 22.8377C84.1057 23.2464 84.9519 23.9395 85.5476 24.8293C86.1432 25.7191 86.4616 26.7655 86.4623 27.8363C86.4652 28.5458 86.3281 29.249 86.0589 29.9055C85.7896 30.5619 85.3935 31.1588 84.8931 31.6619C84.3928 32.165 83.7981 32.5645 83.1431 32.8374C82.4881 33.1103 81.7858 33.2512 81.0762 33.2522H81.0613Z" fill="#588A87"/>
<path d="M90.0107 17.6566C85.9627 12.2407 73.6101 12.4383 71.1463 12.2519C64.2021 11.6816 59.0285 4.66666 44.4208 4.66666C29.8131 4.66666 24.2929 8.70716 22.2577 9.5831C20.6698 10.2652 13.3119 11.0741 10.1809 11.3872C10.1308 11.3939 10.0849 11.4186 10.0516 11.4566C10.0184 11.4947 10 11.5435 10 11.594C10 11.6446 10.0184 11.6934 10.0516 11.7314C10.0849 11.7695 10.1308 11.7942 10.1809 11.8009L13.3753 12.442C29.9399 16.147 59.8523 15.0512 72.8497 15.0512C85.8472 15.0512 89.6938 18.4059 89.6938 18.4059L90.6667 18.719C90.4666 18.3537 90.2476 17.9991 90.0107 17.6566ZM25.2843 12.4383C30.3872 5.18104 42.6429 5.62833 42.6429 5.62833L43.5039 12.5352L25.2843 12.4383ZM45.3899 12.4718L44.5438 5.62833C44.5438 5.62833 57.6158 5.7066 64.0828 13.0086L45.3899 12.4718Z" fill="#588A87"/>
<path d="M10.8148 13.6534C11.8324 13.9889 12.8499 14.3318 13.875 14.6598C19.278 16.404 24.8003 17.7544 30.3985 18.7003C35.236 19.5387 40.1341 19.9787 45.0435 20.0161C47.7384 20.0161 50.4296 19.8596 53.1208 19.7142C55.3572 19.5912 57.5601 19.3899 59.7779 19.2035C61.9957 19.0172 64.2508 18.7861 66.4872 18.5997C71.143 18.1619 75.819 17.9753 80.4948 18.0406C82.7679 18.0732 85.0257 18.4194 87.2041 19.0693C88.1233 19.3484 89.0009 19.7496 89.8133 20.2621C89.5897 20.0646 89.3772 19.8521 89.1386 19.6769C87.8352 18.7841 86.3821 18.1327 84.8484 17.7536C82.5619 17.1388 80.2141 16.78 77.8483 16.6838C74.2011 16.4835 70.5461 16.4674 66.8973 16.6354C65.0336 16.7099 63.1699 16.8404 61.3062 16.9559C58.9206 17.0976 56.5351 17.2616 54.1495 17.3995C51.764 17.5374 49.3039 17.7238 46.8885 17.7722C44.1936 17.8132 41.495 17.7722 38.8075 17.6492C36.4556 17.5411 34.111 17.3175 31.7702 17.0528C29.0753 16.7472 26.3767 16.4154 23.7004 15.9644C19.4363 15.2189 15.187 14.4064 10.9303 13.6199C10.8956 13.6162 10.8606 13.6162 10.8259 13.6199L10.8148 13.6534Z" fill="#588A87"/>
<path d="M11.0159 14.1047C16.033 16.1324 26.6114 18.708 26.6375 18.7154C24.1326 18.5254 23.335 18.4694 21.6987 18.2122C20.0241 17.9673 18.3783 17.5552 16.7859 16.9822C14.7761 16.2072 12.8442 15.2437 11.0159 14.1047Z" fill="#588A87"/>
<path d="M65.6559 31.5598L71.7651 28.6897L30.8345 29.3122L65.6559 31.5598Z" fill="#588A87"/>
<path d="M26.6375 30.4264L29.2691 29.0883L64.4967 29.599L60.5941 31.5596L26.6375 30.4264Z" fill="#588A87" stroke="white" stroke-miterlimit="10"/>
<path d="M51.6299 27.3517L50.452 24.3996C50.2545 23.9076 50.2545 23.9188 49.7065 23.9038C49.6298 23.8938 49.5522 23.9132 49.4892 23.9582C49.4263 24.0032 49.3827 24.0703 49.3673 24.1461C49.1561 24.7127 48.9399 25.2755 48.7188 25.8346L48.0665 27.4971L46.9296 25.9166L47.0452 25.8794C47.2704 25.825 47.4668 25.6878 47.5953 25.4951C47.7238 25.3023 47.7749 25.0682 47.7385 24.8394C47.7445 24.6103 47.6597 24.3881 47.5026 24.2212C47.3455 24.0544 47.1289 23.9564 46.8998 23.9486C46.2028 23.9001 45.502 23.9486 44.7975 23.9486V27.5418H45.5207V26.0508C45.6833 26.0093 45.855 26.0209 46.0106 26.0839C46.1662 26.147 46.2976 26.2582 46.3854 26.4012C46.6016 26.7404 46.829 27.0759 47.0675 27.4001C47.1245 27.4791 47.2102 27.5326 47.3061 27.5492C47.7646 27.5492 48.2193 27.5492 48.6778 27.5492C48.723 27.5418 48.7659 27.5237 48.8028 27.4965C48.8397 27.4693 48.8697 27.4337 48.8902 27.3927C48.9983 27.184 49.017 26.8709 49.181 26.7665C49.345 26.6621 49.6543 26.7255 49.8966 26.7255C50.5787 26.7255 50.5787 26.7255 50.8247 27.3666C50.8247 27.3964 50.8248 27.4411 50.862 27.4635C50.8993 27.4859 50.9515 27.553 50.9962 27.553C51.2199 27.553 51.4435 27.553 51.6895 27.553C51.6746 27.4449 51.6485 27.4001 51.6299 27.3517ZM46.6911 25.3836C46.3183 25.4321 45.9456 25.4395 45.5207 25.4619V24.5561C45.9158 24.5561 46.3034 24.5338 46.6911 24.5561C46.8849 24.5561 46.9818 24.7425 46.9855 24.9289C46.9893 25.1152 46.911 25.3538 46.6911 25.3836ZM49.3785 26.0732L49.8519 24.7723C50.0234 25.2383 50.1725 25.6408 50.329 26.0732H49.3785Z" fill="#588A87"/>
<path d="M29.6304 25.678C29.5894 25.6556 29.5522 25.6258 29.5074 25.596C29.9025 25.2232 30.0293 24.8952 29.8802 24.5188C29.8178 24.3431 29.7019 24.1914 29.5488 24.0851C29.3956 23.9788 29.213 23.9232 29.0266 23.9261C28.3892 23.9 27.7481 23.9261 27.0883 23.9261V27.497C27.8338 27.497 28.5458 27.497 29.2614 27.497C29.4693 27.4779 29.6645 27.389 29.8154 27.2449C29.9664 27.1007 30.064 26.9098 30.0926 26.703C30.1474 26.5051 30.1311 26.2942 30.0467 26.107C29.9623 25.9198 29.815 25.768 29.6304 25.678ZM27.8189 24.5411C28.1917 24.5411 28.5644 24.5411 28.9073 24.5411C29.1235 24.5411 29.2167 24.7238 29.213 24.9139C29.213 25.0127 29.1737 25.1075 29.1038 25.1774C29.0339 25.2473 28.9391 25.2866 28.8402 25.2866C28.5085 25.3052 28.1768 25.2866 27.8264 25.2866L27.8189 24.5411ZM28.9371 26.908C28.5644 26.9341 28.1917 26.908 27.8189 26.908V25.9911C28.1917 25.9911 28.5868 25.965 28.9632 25.9911C29.2465 26.0172 29.336 26.1849 29.336 26.4719C29.34 26.5271 29.3328 26.5825 29.3147 26.6348C29.2966 26.6871 29.2679 26.7351 29.2306 26.776C29.1933 26.8168 29.148 26.8496 29.0975 26.8723C29.047 26.895 28.9925 26.9072 28.9371 26.908Z" fill="#588A87"/>
<path d="M67.7283 25.9167L67.8438 25.8757C68.0688 25.8213 68.2649 25.684 68.3928 25.4911C68.5207 25.2982 68.5709 25.0641 68.5334 24.8357C68.5397 24.6165 68.461 24.4033 68.3137 24.2407C68.1664 24.0781 67.962 23.9788 67.7432 23.9635C67.035 23.9113 66.3156 23.9635 65.5888 23.9635V27.5381H66.3342V26.0471C66.5003 25.9984 66.6781 26.0089 66.8373 26.0769C66.9964 26.1449 67.1269 26.2662 67.2064 26.4199C67.4263 26.7479 67.6425 27.0759 67.8662 27.3965C67.909 27.4687 67.9787 27.521 68.06 27.5418C68.3098 27.5418 68.5595 27.5418 68.895 27.5418L67.7283 25.9167ZM67.4785 25.3837C67.1058 25.4358 66.7331 25.4396 66.3305 25.4657V24.5487C66.7032 24.5487 67.076 24.5487 67.4487 24.5487C67.6575 24.5487 67.7544 24.7351 67.7581 24.9438C67.7618 25.1526 67.7022 25.3538 67.4785 25.3837Z" fill="#588A87"/>
<path d="M54.9395 23.9336V27.5379C54.726 27.5491 54.512 27.5491 54.2984 27.5379C54.2276 27.5379 54.153 27.4299 54.1046 27.3553L52.9342 25.4543C52.9006 25.3984 52.8596 25.3462 52.7776 25.227V27.5305H52.1104V23.9186C52.3151 23.9037 52.5207 23.9037 52.7254 23.9186C52.8037 23.9186 52.8857 24.0342 52.9379 24.1162C53.3405 24.7648 53.7356 25.4171 54.1307 26.0656C54.1568 26.1066 54.1866 26.1439 54.2537 26.2371V23.9298L54.9395 23.9336Z" fill="#588A87"/>
<path d="M41.3198 27.5381C40.9918 27.5381 40.7086 27.5381 40.429 27.5381C40.3619 27.5381 40.2911 27.4225 40.2426 27.3442C39.9519 26.8597 39.6686 26.3677 39.3928 25.8943C38.6473 26.2409 38.7479 26.8895 38.7852 27.5381H38.0397V23.9411H38.7554V25.4321L38.8188 25.4544C39.1058 25.1413 39.4002 24.8357 39.6835 24.5189C40.2501 23.8852 40.2501 23.8815 41.0887 23.9188C41.1278 23.9249 41.1664 23.9336 41.2043 23.9448L39.8699 25.3277L41.3198 27.5381Z" fill="#588A87"/>
<path d="M64.9399 26.9117V27.523H62.2152V23.9298H64.8803V24.5261H62.9644V25.3164H64.72V25.9351H62.9607V26.9117H64.9399Z" fill="#588A87"/>
<path d="M58.4695 26.6993C58.4377 26.9103 58.3384 27.1052 58.1866 27.255C58.0348 27.4049 57.8385 27.5015 57.6271 27.5305C57.2815 27.5864 56.9291 27.5864 56.5835 27.5305C56.2973 27.4954 56.0345 27.3549 55.8463 27.1364C55.6581 26.9179 55.5582 26.6372 55.5659 26.3489C55.6762 26.3445 55.7859 26.3308 55.8939 26.3079C56.1287 26.2408 56.2666 26.2781 56.3598 26.5428C56.4188 26.6525 56.502 26.7474 56.603 26.8203C56.704 26.8933 56.8202 26.9424 56.9429 26.9639C57.0656 26.9854 57.1917 26.9788 57.3115 26.9446C57.4313 26.9104 57.5417 26.8495 57.6346 26.7664C57.677 26.7259 57.7092 26.6761 57.7287 26.6208C57.7482 26.5655 57.7543 26.5065 57.7467 26.4484C57.7391 26.3903 57.7179 26.3348 57.6848 26.2864C57.6517 26.2381 57.6077 26.1982 57.5563 26.17C57.3397 26.0846 57.1182 26.0124 56.8928 25.9538C56.6572 25.8892 56.4267 25.807 56.2033 25.7078C56.0337 25.6299 55.8924 25.5014 55.7989 25.3398C55.7055 25.1782 55.6644 24.9917 55.6814 24.8058C55.6828 24.6236 55.7405 24.4463 55.8466 24.2981C55.9527 24.15 56.102 24.0383 56.2741 23.9783C56.518 23.8765 56.7804 23.8262 57.0447 23.8307C57.309 23.8352 57.5695 23.8944 57.8098 24.0044C57.9917 24.0823 58.1448 24.215 58.2477 24.384C58.3506 24.5531 58.3982 24.7501 58.3838 24.9474H57.6681C57.6389 24.8468 57.5879 24.7539 57.5186 24.6753C57.4494 24.5967 57.3636 24.5343 57.2675 24.4927C57.1714 24.451 57.0673 24.4311 56.9625 24.4343C56.8578 24.4376 56.7551 24.4638 56.6617 24.5113C56.5536 24.5561 56.412 24.694 56.4083 24.7946C56.4186 24.8597 56.4447 24.9213 56.4843 24.9739C56.524 25.0266 56.5759 25.0687 56.6356 25.0965C57.0084 25.2344 57.3811 25.3239 57.7539 25.4432C57.8842 25.4772 58.0064 25.537 58.1133 25.619C58.2202 25.7009 58.3096 25.8034 58.3763 25.9205C58.443 26.0375 58.4856 26.1667 58.5016 26.3005C58.5176 26.4342 58.5067 26.5698 58.4695 26.6993Z" fill="#588A87"/>
<path d="M71.9813 26.4757C71.986 26.6976 71.9194 26.9152 71.7912 27.0963C71.6631 27.2775 71.4801 27.4127 71.2694 27.4821C70.8095 27.6424 70.309 27.6424 69.8492 27.4821C69.6132 27.4019 69.4094 27.2475 69.2683 27.0419C69.1272 26.8364 69.0564 26.5907 69.0664 26.3416L69.7262 26.2745C69.9871 26.8969 70.3785 27.1057 70.8929 26.9044C70.9881 26.8832 71.0737 26.8311 71.1364 26.7563C71.199 26.6815 71.2353 26.5881 71.2395 26.4907C71.2395 26.2633 71.0942 26.1589 70.9115 26.1179C70.5611 26.0061 70.207 25.9241 69.8604 25.8048C69.6815 25.7531 69.5214 25.6505 69.3997 25.5096C69.2779 25.3687 69.1997 25.1954 69.1746 25.0109C69.1382 24.7914 69.1813 24.5661 69.2961 24.3756C69.4108 24.185 69.5898 24.0415 69.8008 23.9709C70.2643 23.7884 70.7798 23.7884 71.2433 23.9709C71.4378 24.0428 71.6038 24.1757 71.7167 24.3496C71.8295 24.5236 71.8831 24.7294 71.8695 24.9363H71.1613C71.1302 24.8345 71.077 24.7408 71.0055 24.6619C70.934 24.583 70.846 24.5208 70.7478 24.4799C70.6495 24.439 70.5434 24.4202 70.437 24.425C70.3307 24.4298 70.2267 24.458 70.1325 24.5077C70.0281 24.5524 69.8977 24.6791 69.8939 24.776C69.8998 24.8377 69.921 24.8969 69.9555 24.9483C69.9899 24.9997 70.0367 25.0417 70.0915 25.0705C70.3435 25.17 70.6011 25.2547 70.8631 25.324C70.9972 25.365 71.1352 25.3985 71.2656 25.4433C71.4854 25.5069 71.6766 25.6442 71.8069 25.8323C71.9373 26.0204 71.9989 26.2476 71.9813 26.4757Z" fill="#588A87"/>
<path d="M33.9244 27.3443L32.7391 24.3624C32.5528 23.9002 32.5528 23.9114 32.0607 23.8927C31.8222 23.8927 31.729 23.9673 31.6507 24.1835C31.3078 25.1004 30.9462 26.0099 30.5884 26.9231C30.5139 27.1169 30.443 27.2959 30.361 27.527C30.581 27.527 30.7636 27.527 30.9463 27.527C30.9759 27.5328 31.0065 27.5326 31.0361 27.5264C31.0657 27.5201 31.0937 27.5079 31.1185 27.4904C31.1432 27.473 31.1641 27.4507 31.18 27.425C31.1959 27.3992 31.2064 27.3705 31.2109 27.3406C31.2817 27.1281 31.319 26.8337 31.4755 26.733C31.6321 26.6324 31.934 26.692 32.1688 26.692C32.8733 26.692 32.8733 26.692 33.1305 27.3518C33.1305 27.3741 33.1305 27.4077 33.1566 27.4226C33.1827 27.4375 33.261 27.5158 33.3131 27.5195C33.5331 27.5195 33.7492 27.5195 33.9878 27.5195C33.9617 27.445 33.9468 27.3965 33.9244 27.3443ZM31.688 26.0733C31.8408 25.6446 31.9899 25.2383 32.1577 24.7724C32.3328 25.2383 32.4782 25.6446 32.6385 26.0733H31.688Z" fill="#588A87"/>
<path d="M36.8133 26.2335L37.3835 26.4124C37.3394 26.7335 37.1823 27.0283 36.9405 27.2441C36.6988 27.46 36.3881 27.5827 36.064 27.5903C34.8787 27.6499 34.1109 26.7628 34.2563 25.4955C34.3569 24.6046 34.7744 24.0455 35.5012 23.8964C36.4219 23.7063 37.1785 24.053 37.391 24.9065L36.6902 25.078C36.4629 24.5897 36.2243 24.4406 35.7696 24.4853C35.5813 24.501 35.4054 24.5858 35.276 24.7235C35.1466 24.8612 35.0728 25.0419 35.0688 25.2308C35.0253 25.5955 35.0341 25.9645 35.0949 26.3267C35.1186 26.5072 35.2075 26.6727 35.3448 26.7922C35.4821 26.9117 35.6584 26.9768 35.8404 26.9752C36.0176 26.9912 36.1947 26.9432 36.3396 26.84C36.4845 26.7367 36.5877 26.5851 36.6306 26.4124L36.6977 26.2447C36.7357 26.2369 36.7745 26.2332 36.8133 26.2335Z" fill="#588A87"/>
<path d="M61.5671 24.5298H59.8413C59.8413 24.7721 59.8413 24.9734 59.8413 25.1709C59.8413 25.3685 59.8972 25.3871 60.0537 25.3834C60.3967 25.3834 60.7396 25.3834 61.0825 25.3834C61.1682 25.3834 61.254 25.3834 61.3509 25.3834V25.9835H59.8599V27.508H59.1294V23.9148H61.5634L61.5671 24.5298Z" fill="#588A87"/>
<path d="M44.2827 23.9339V24.5265H43.2465V27.5234H42.5122V24.5452H41.435V23.9339H44.2827Z" fill="#588A87"/>
</g>
<defs>
<filter id="filter0_d_100_947" x="6" y="4.66666" width="88.6667" height="38.0765" filterUnits="userSpaceOnUse" color-interpolation-filters="sRGB">
<feFlood flood-opacity="0" result="BackgroundImageFix"/>
<feColorMatrix in="SourceAlpha" type="matrix" values="0 0 0 0 0 0 0 0 0 0 0 0 0 0 0 0 0 0 127 0" result="hardAlpha"/>
<feOffset dy="4"/>
<feGaussianBlur stdDeviation="2"/>
<feComposite in2="hardAlpha" operator="out"/>
<feColorMatrix type="matrix" values="0 0 0 0 0 0 0 0 0 0 0 0 0 0 0 0 0 0 0.1 0"/>
<feBlend mode="normal" in2="BackgroundImageFix" result="effect1_dropShadow_100_947"/>
<feBlend mode="normal" in="SourceGraphic" in2="effect1_dropShadow_100_947" result="shape"/>
</filter>
</defs>
</svg>
