<svg width="22" height="22" viewBox="0 0 22 22" fill="none" xmlns="http://www.w3.org/2000/svg">
<path d="M11 20.7778C12.9339 20.7778 14.8243 20.2043 16.4323 19.1299C18.0402 18.0555 19.2935 16.5285 20.0335 14.7418C20.7736 12.9552 20.9672 10.9892 20.59 9.09246C20.2127 7.19576 19.2814 5.45353 17.914 4.08608C16.5465 2.71863 14.8043 1.78739 12.9076 1.41011C11.0109 1.03283 9.04491 1.22647 7.25826 1.96652C5.4716 2.70658 3.94452 3.95982 2.87012 5.56777C1.79573 7.17572 1.22227 9.06615 1.22227 11C1.22227 13.5932 2.25243 16.0803 4.08611 17.9139C5.9198 19.7476 8.40682 20.7778 11 20.7778ZM11 2.5239C12.6765 2.5239 14.3152 3.02102 15.7091 3.95238C17.103 4.88375 18.1894 6.20754 18.831 7.75634C19.4725 9.30515 19.6403 11.0094 19.3133 12.6536C18.9862 14.2978 18.179 15.8081 16.9936 16.9935C15.8082 18.1789 14.2979 18.9862 12.6537 19.3133C11.0095 19.6403 9.30519 19.4725 7.75638 18.8309C6.20757 18.1894 4.88379 17.103 3.95242 15.7091C3.02105 14.3152 2.52394 12.6764 2.52394 11C2.52555 8.7525 3.41909 6.59751 5.00832 5.00828C6.59755 3.41905 8.75254 2.52552 11 2.5239Z" fill="#181A1F"/>
<path d="M8.39052 14.5139H12.9555V13.2061H8.39052C8.03962 13.2061 7.7031 13.0667 7.45498 12.8186C7.20686 12.5705 7.06746 12.2339 7.06746 11.883C7.06746 11.5321 7.20686 11.1956 7.45498 10.9475C7.7031 10.6994 8.03962 10.56 8.39052 10.56H15.565C15.6988 10.5591 15.8291 10.5171 15.9383 10.4398C16.0476 10.3624 16.1304 10.2534 16.1757 10.1275C16.2211 10.0015 16.2266 9.86475 16.1917 9.73554C16.1568 9.60634 16.0831 9.49096 15.9805 9.40499L13.3711 7.22943L12.5339 8.23165L13.7561 9.25221H8.38441C7.69234 9.25221 7.02862 9.52713 6.53925 10.0165C6.04989 10.5059 5.77496 11.1696 5.77496 11.8617C5.7717 12.5597 6.04506 13.2307 6.53522 13.7277C7.02539 14.2248 7.69247 14.5074 8.39052 14.5139Z" fill="#181A1F"/>
</svg>
