<svg width="210" height="60" viewBox="0 0 210 60" fill="none" xmlns="http://www.w3.org/2000/svg">
<rect width="210" height="60" rx="12" fill="black"/>
<rect opacity="0.2" x="64" y="15" width="1" height="30" fill="white"/>
<path d="M90.5 25.144C89.716 25.144 89.028 24.964 88.436 24.604C87.844 24.236 87.384 23.728 87.056 23.08C86.728 22.424 86.564 21.668 86.564 20.812C86.564 19.956 86.728 19.2 87.056 18.544C87.392 17.888 87.864 17.376 88.472 17.008C89.088 16.64 89.812 16.456 90.644 16.456C91.588 16.456 92.372 16.684 92.996 17.14C93.628 17.596 94.036 18.224 94.22 19.024H93.056C92.944 18.52 92.676 18.12 92.252 17.824C91.836 17.528 91.3 17.38 90.644 17.38C90.028 17.38 89.492 17.52 89.036 17.8C88.58 18.072 88.224 18.464 87.968 18.976C87.72 19.488 87.596 20.1 87.596 20.812C87.596 21.524 87.72 22.136 87.968 22.648C88.216 23.16 88.56 23.556 89 23.836C89.44 24.108 89.952 24.244 90.536 24.244C91.432 24.244 92.108 23.984 92.564 23.464C93.02 22.936 93.28 22.216 93.344 21.304H90.92V20.512H94.376V25H93.452L93.368 23.62C93.064 24.108 92.692 24.484 92.252 24.748C91.812 25.012 91.228 25.144 90.5 25.144ZM98.886 25.144C98.318 25.144 97.814 25.016 97.374 24.76C96.934 24.496 96.586 24.132 96.33 23.668C96.082 23.204 95.958 22.656 95.958 22.024C95.958 21.4 96.082 20.856 96.33 20.392C96.578 19.92 96.922 19.556 97.362 19.3C97.81 19.036 98.326 18.904 98.91 18.904C99.486 18.904 99.982 19.036 100.398 19.3C100.822 19.556 101.146 19.896 101.37 20.32C101.594 20.744 101.706 21.2 101.706 21.688C101.706 21.776 101.702 21.864 101.694 21.952C101.694 22.04 101.694 22.14 101.694 22.252H96.954C96.978 22.708 97.082 23.088 97.266 23.392C97.458 23.688 97.694 23.912 97.974 24.064C98.262 24.216 98.566 24.292 98.886 24.292C99.302 24.292 99.65 24.196 99.93 24.004C100.21 23.812 100.414 23.552 100.542 23.224H101.538C101.378 23.776 101.07 24.236 100.614 24.604C100.166 24.964 99.59 25.144 98.886 25.144ZM98.886 19.756C98.406 19.756 97.978 19.904 97.602 20.2C97.234 20.488 97.022 20.912 96.966 21.472H100.71C100.686 20.936 100.502 20.516 100.158 20.212C99.814 19.908 99.39 19.756 98.886 19.756ZM105.495 25C104.951 25 104.523 24.868 104.211 24.604C103.899 24.34 103.743 23.864 103.743 23.176V19.9H102.711V19.048H103.743L103.875 17.62H104.751V19.048H106.503V19.9H104.751V23.176C104.751 23.552 104.827 23.808 104.979 23.944C105.131 24.072 105.399 24.136 105.783 24.136H106.407V25H105.495ZM112.171 17.728C111.971 17.728 111.803 17.664 111.667 17.536C111.539 17.4 111.475 17.232 111.475 17.032C111.475 16.84 111.539 16.68 111.667 16.552C111.803 16.424 111.971 16.36 112.171 16.36C112.363 16.36 112.527 16.424 112.663 16.552C112.799 16.68 112.867 16.84 112.867 17.032C112.867 17.232 112.799 17.4 112.663 17.536C112.527 17.664 112.363 17.728 112.171 17.728ZM111.667 25V19.048H112.675V25H111.667ZM114.73 25V19.048H115.642L115.702 20.116C115.894 19.74 116.17 19.444 116.53 19.228C116.89 19.012 117.298 18.904 117.754 18.904C118.458 18.904 119.018 19.12 119.434 19.552C119.858 19.976 120.07 20.632 120.07 21.52V25H119.062V21.628C119.062 20.388 118.55 19.768 117.526 19.768C117.014 19.768 116.586 19.956 116.242 20.332C115.906 20.7 115.738 21.228 115.738 21.916V25H114.73ZM128.085 25.144C127.525 25.144 127.021 25.016 126.573 24.76C126.125 24.504 125.769 24.144 125.505 23.68C125.249 23.208 125.121 22.656 125.121 22.024C125.121 21.392 125.253 20.844 125.517 20.38C125.781 19.908 126.137 19.544 126.585 19.288C127.041 19.032 127.549 18.904 128.109 18.904C128.669 18.904 129.173 19.032 129.621 19.288C130.069 19.544 130.421 19.908 130.677 20.38C130.941 20.844 131.073 21.392 131.073 22.024C131.073 22.656 130.941 23.208 130.677 23.68C130.413 24.144 130.053 24.504 129.597 24.76C129.149 25.016 128.645 25.144 128.085 25.144ZM128.085 24.28C128.429 24.28 128.749 24.196 129.045 24.028C129.341 23.86 129.581 23.608 129.765 23.272C129.949 22.936 130.041 22.52 130.041 22.024C130.041 21.528 129.949 21.112 129.765 20.776C129.589 20.44 129.353 20.188 129.057 20.02C128.761 19.852 128.445 19.768 128.109 19.768C127.765 19.768 127.445 19.852 127.149 20.02C126.853 20.188 126.613 20.44 126.429 20.776C126.245 21.112 126.153 21.528 126.153 22.024C126.153 22.52 126.245 22.936 126.429 23.272C126.613 23.608 126.849 23.86 127.137 24.028C127.433 24.196 127.749 24.28 128.085 24.28ZM132.775 25V19.048H133.687L133.747 20.116C133.939 19.74 134.215 19.444 134.575 19.228C134.935 19.012 135.343 18.904 135.799 18.904C136.503 18.904 137.063 19.12 137.479 19.552C137.903 19.976 138.115 20.632 138.115 21.52V25H137.107V21.628C137.107 20.388 136.595 19.768 135.571 19.768C135.059 19.768 134.631 19.956 134.287 20.332C133.951 20.7 133.783 21.228 133.783 21.916V25H132.775Z" fill="white"/>
<path d="M34.8691 29.5996L24.0781 18.7598L37.7988 26.6699L34.8691 29.5996ZM21.2949 18.125L33.7949 30.625L21.2949 43.125C20.6602 42.832 20.2207 42.1973 20.2207 41.416V19.8828C20.2207 19.1016 20.6602 18.4668 21.2949 18.125ZM42.0469 29.1602C42.9746 29.8438 42.9746 31.4551 42.0957 32.1387L39.166 33.7988L35.9434 30.625L39.166 27.5L42.0469 29.1602ZM24.0781 42.4902L34.8691 31.6992L37.7988 34.6289L24.0781 42.4902Z" fill="white"/>
<path d="M91.25 44.168C90.326 44.168 89.5187 43.958 88.828 43.538C88.1373 43.118 87.6007 42.53 87.218 41.774C86.8353 41.018 86.644 40.136 86.644 39.128C86.644 38.1293 86.84 37.2473 87.232 36.482C87.624 35.7167 88.1793 35.1193 88.898 34.69C89.626 34.2513 90.4847 34.032 91.474 34.032C92.594 34.032 93.5273 34.3027 94.274 34.844C95.0207 35.3853 95.506 36.132 95.73 37.084H94.05C93.9007 36.5613 93.6067 36.1507 93.168 35.852C92.7293 35.5533 92.1647 35.404 91.474 35.404C90.4473 35.404 89.64 35.7353 89.052 36.398C88.464 37.0607 88.17 37.9753 88.17 39.142C88.17 40.3087 88.4593 41.2187 89.038 41.872C89.6167 42.5253 90.3867 42.852 91.348 42.852C92.3187 42.852 93.0467 42.5767 93.532 42.026C94.0267 41.4753 94.316 40.7427 94.4 39.828H91.74V38.68H95.898V44H94.54L94.414 42.558C94.0873 43.0713 93.6767 43.468 93.182 43.748C92.6873 44.028 92.0433 44.168 91.25 44.168ZM100.891 44.168C100.228 44.168 99.6311 44.0187 99.0991 43.72C98.5764 43.412 98.1611 42.9873 97.8531 42.446C97.5451 41.8953 97.3911 41.256 97.3911 40.528C97.3911 39.8 97.5451 39.1653 97.8531 38.624C98.1704 38.0733 98.5951 37.6487 99.1271 37.35C99.6591 37.042 100.252 36.888 100.905 36.888C101.568 36.888 102.16 37.042 102.683 37.35C103.215 37.6487 103.635 38.0733 103.943 38.624C104.26 39.1653 104.419 39.8 104.419 40.528C104.419 41.256 104.26 41.8953 103.943 42.446C103.635 42.9873 103.215 43.412 102.683 43.72C102.151 44.0187 101.554 44.168 100.891 44.168ZM100.891 42.894C101.246 42.894 101.572 42.8053 101.871 42.628C102.179 42.4507 102.426 42.1893 102.613 41.844C102.8 41.4893 102.893 41.0507 102.893 40.528C102.893 40.0053 102.8 39.5713 102.613 39.226C102.436 38.8713 102.193 38.6053 101.885 38.428C101.586 38.2507 101.26 38.162 100.905 38.162C100.55 38.162 100.219 38.2507 99.9111 38.428C99.6124 38.6053 99.3697 38.8713 99.1831 39.226C98.9964 39.5713 98.9031 40.0053 98.9031 40.528C98.9031 41.0507 98.9964 41.4893 99.1831 41.844C99.3697 42.1893 99.6124 42.4507 99.9111 42.628C100.21 42.8053 100.536 42.894 100.891 42.894ZM109.272 44.168C108.609 44.168 108.012 44.0187 107.48 43.72C106.957 43.412 106.542 42.9873 106.234 42.446C105.926 41.8953 105.772 41.256 105.772 40.528C105.772 39.8 105.926 39.1653 106.234 38.624C106.551 38.0733 106.976 37.6487 107.508 37.35C108.04 37.042 108.633 36.888 109.286 36.888C109.949 36.888 110.541 37.042 111.064 37.35C111.596 37.6487 112.016 38.0733 112.324 38.624C112.641 39.1653 112.8 39.8 112.8 40.528C112.8 41.256 112.641 41.8953 112.324 42.446C112.016 42.9873 111.596 43.412 111.064 43.72C110.532 44.0187 109.935 44.168 109.272 44.168ZM109.272 42.894C109.627 42.894 109.953 42.8053 110.252 42.628C110.56 42.4507 110.807 42.1893 110.994 41.844C111.181 41.4893 111.274 41.0507 111.274 40.528C111.274 40.0053 111.181 39.5713 110.994 39.226C110.817 38.8713 110.574 38.6053 110.266 38.428C109.967 38.2507 109.641 38.162 109.286 38.162C108.931 38.162 108.6 38.2507 108.292 38.428C107.993 38.6053 107.751 38.8713 107.564 39.226C107.377 39.5713 107.284 40.0053 107.284 40.528C107.284 41.0507 107.377 41.4893 107.564 41.844C107.751 42.1893 107.993 42.4507 108.292 42.628C108.591 42.8053 108.917 42.894 109.272 42.894ZM116.878 41.872C116.514 41.872 116.178 41.83 115.87 41.746L115.268 42.334C115.37 42.3993 115.496 42.4553 115.646 42.502C115.795 42.5487 116.005 42.5907 116.276 42.628C116.546 42.6653 116.915 42.7027 117.382 42.74C118.306 42.824 118.973 43.048 119.384 43.412C119.794 43.7667 120 44.2427 120 44.84C120 45.2507 119.888 45.638 119.664 46.002C119.449 46.3753 119.108 46.674 118.642 46.898C118.184 47.1313 117.596 47.248 116.878 47.248C115.907 47.248 115.118 47.0613 114.512 46.688C113.914 46.324 113.616 45.7687 113.616 45.022C113.616 44.7327 113.69 44.4433 113.84 44.154C113.998 43.874 114.246 43.608 114.582 43.356C114.386 43.272 114.213 43.1833 114.064 43.09C113.924 42.9873 113.798 42.8847 113.686 42.782V42.446L114.89 41.214C114.348 40.7473 114.078 40.136 114.078 39.38C114.078 38.9227 114.185 38.5073 114.4 38.134C114.624 37.7513 114.946 37.448 115.366 37.224C115.786 37 116.29 36.888 116.878 36.888C117.27 36.888 117.634 36.944 117.97 37.056H120.56V38.036L119.328 38.106C119.552 38.4887 119.664 38.9133 119.664 39.38C119.664 39.8467 119.552 40.2667 119.328 40.64C119.113 41.0133 118.796 41.312 118.376 41.536C117.965 41.76 117.466 41.872 116.878 41.872ZM116.878 40.71C117.307 40.71 117.652 40.598 117.914 40.374C118.184 40.1407 118.32 39.814 118.32 39.394C118.32 38.9647 118.184 38.638 117.914 38.414C117.652 38.19 117.307 38.078 116.878 38.078C116.439 38.078 116.084 38.19 115.814 38.414C115.552 38.638 115.422 38.9647 115.422 39.394C115.422 39.814 115.552 40.1407 115.814 40.374C116.084 40.598 116.439 40.71 116.878 40.71ZM115.016 44.882C115.016 45.2833 115.193 45.582 115.548 45.778C115.902 45.9833 116.346 46.086 116.878 46.086C117.391 46.086 117.806 45.974 118.124 45.75C118.441 45.5353 118.6 45.246 118.6 44.882C118.6 44.6113 118.492 44.378 118.278 44.182C118.063 43.9953 117.657 43.8787 117.06 43.832C116.612 43.804 116.215 43.762 115.87 43.706C115.543 43.8833 115.319 44.0747 115.198 44.28C115.076 44.4853 115.016 44.686 115.016 44.882ZM121.883 44V33.92H123.367V44H121.883ZM128.495 44.168C127.813 44.168 127.207 44.0187 126.675 43.72C126.152 43.412 125.741 42.9873 125.443 42.446C125.144 41.9047 124.995 41.2747 124.995 40.556C124.995 39.828 125.139 39.1887 125.429 38.638C125.727 38.0873 126.138 37.658 126.661 37.35C127.193 37.042 127.809 36.888 128.509 36.888C129.19 36.888 129.783 37.042 130.287 37.35C130.791 37.6487 131.183 38.05 131.463 38.554C131.743 39.058 131.883 39.6133 131.883 40.22C131.883 40.3133 131.878 40.416 131.869 40.528C131.869 40.6307 131.864 40.7473 131.855 40.878H126.451C126.497 41.55 126.717 42.0633 127.109 42.418C127.51 42.7633 127.972 42.936 128.495 42.936C128.915 42.936 129.265 42.8427 129.545 42.656C129.834 42.46 130.049 42.1987 130.189 41.872H131.673C131.486 42.5253 131.113 43.0713 130.553 43.51C130.002 43.9487 129.316 44.168 128.495 44.168ZM128.495 38.106C128 38.106 127.561 38.2553 127.179 38.554C126.796 38.8433 126.563 39.282 126.479 39.87H130.399C130.371 39.3287 130.179 38.8993 129.825 38.582C129.47 38.2647 129.027 38.106 128.495 38.106ZM137.006 44V34.2H140.436C141.201 34.2 141.836 34.3307 142.34 34.592C142.844 34.844 143.217 35.194 143.46 35.642C143.712 36.0807 143.838 36.58 143.838 37.14C143.838 37.672 143.716 38.162 143.474 38.61C143.24 39.0487 142.872 39.3987 142.368 39.66C141.864 39.9213 141.22 40.052 140.436 40.052H138.49V44H137.006ZM138.49 38.834H140.366C141.066 38.834 141.565 38.6847 141.864 38.386C142.172 38.078 142.326 37.6627 142.326 37.14C142.326 36.5987 142.172 36.1787 141.864 35.88C141.565 35.572 141.066 35.418 140.366 35.418H138.49V38.834ZM145.249 44V33.92H146.733V44H145.249ZM150.964 44.168C150.376 44.168 149.89 44.07 149.508 43.874C149.125 43.678 148.84 43.4213 148.654 43.104C148.467 42.7773 148.374 42.4227 148.374 42.04C148.374 41.368 148.635 40.836 149.158 40.444C149.68 40.052 150.427 39.856 151.398 39.856H153.218V39.73C153.218 39.1887 153.068 38.7827 152.77 38.512C152.48 38.2413 152.102 38.106 151.636 38.106C151.225 38.106 150.866 38.2087 150.558 38.414C150.259 38.61 150.077 38.904 150.012 39.296H148.528C148.574 38.792 148.742 38.3627 149.032 38.008C149.33 37.644 149.704 37.3687 150.152 37.182C150.609 36.986 151.108 36.888 151.65 36.888C152.62 36.888 153.372 37.1447 153.904 37.658C154.436 38.162 154.702 38.8527 154.702 39.73V44H153.414L153.288 42.81C153.092 43.1927 152.807 43.5147 152.434 43.776C152.06 44.0373 151.57 44.168 150.964 44.168ZM151.258 42.964C151.659 42.964 151.995 42.8707 152.266 42.684C152.546 42.488 152.76 42.2313 152.91 41.914C153.068 41.5967 153.166 41.2467 153.204 40.864H151.552C150.964 40.864 150.544 40.9667 150.292 41.172C150.049 41.3773 149.928 41.634 149.928 41.942C149.928 42.2593 150.044 42.5113 150.278 42.698C150.52 42.8753 150.847 42.964 151.258 42.964ZM157.025 47.08L158.691 43.426H158.285L155.541 37.056H157.151L159.279 42.194L161.505 37.056H163.073L158.593 47.08H157.025Z" fill="white"/>
</svg>
