<svg width="60" height="56" viewBox="0 0 60 56" fill="none" xmlns="http://www.w3.org/2000/svg">
<path d="M57.2088 26.7213L58.9992 26.5709C58.9951 26.824 58.975 27.0773 58.9385 27.3291L58.9373 27.3377L58.9362 27.3462C58.7845 28.539 58.2976 29.6205 57.5878 30.482L57.394 30.7173L57.3644 31.0207L57.3625 31.0399C57.3181 31.3625 57.2535 31.6715 57.1701 31.9613C56.8011 32.9451 56.1574 33.7916 55.3234 34.3964C54.7027 34.8399 53.9917 35.1533 53.2117 35.3042C53.0546 35.3227 52.8929 35.3312 52.722 35.3312C52.7092 35.3312 52.6933 35.3309 52.6747 35.3305C52.4958 35.3272 52.0628 35.3192 51.6417 35.5234L51.2249 35.7256L51.1096 36.1742C50.0801 40.1786 47.6898 43.6698 44.3753 46.0229L43.9542 46.3219V46.8383V55H40.9861C39.7429 55 38.6986 54.9997 37.8159 54.9563C36.9267 54.9125 36.2703 54.8271 35.7892 54.6828C35.3209 54.5423 35.0966 54.3694 34.9716 54.1979C34.8477 54.028 34.7318 53.7366 34.7241 53.1841L34.9069 51.7235L35.0784 50.3532L33.723 50.6179C30.0756 51.3302 26.3306 51.3403 22.6797 50.6475L21.4932 50.4224V51.63V53.125C21.4932 53.719 21.3747 54.0269 21.2479 54.2033C21.1256 54.3735 20.907 54.5444 20.448 54.6837C19.9753 54.8272 19.3282 54.9126 18.448 54.9563C17.5744 54.9997 16.5397 55 15.3057 55H12.2567L12.2066 46.7518L12.2036 46.2529L11.8031 45.9552C9.72208 44.4085 7.9723 42.4388 6.66373 40.1675L6.37521 39.6667H5.79725H3.77576C3.37448 39.6667 2.82015 39.317 2.27568 37.9099C1.76863 36.5996 1.44804 34.79 1.25646 32.8992C1.06659 31.0252 1.00991 29.1427 1.00125 27.7231C0.997894 27.174 1.00173 26.6962 1.00767 26.3174L5.8624 26.2374L6.43826 26.2279L6.71904 25.725C7.86114 23.6795 9.36465 21.8712 11.1517 20.392L11.6681 19.9646L11.4689 19.3245L8.88517 11.0236C12.8639 11.1648 15.2682 11.9207 16.6904 12.7567C18.2452 13.6707 18.6334 14.6783 18.7027 15.1752L18.8624 16.3202L19.9725 15.9972C22.5994 15.2327 25.3164 14.8424 28.0468 14.8372L28.0752 14.8371L28.1035 14.8354C28.5377 14.8099 28.9784 14.7988 29.4262 14.7988C38.1502 14.7988 45.7965 19.5831 50.055 26.8436L51.204 28.8025L51.8732 26.6324C51.9635 26.3395 52.0819 26.0718 52.226 25.8296L52.2308 25.8217L52.2354 25.8137C52.552 25.2588 53.0543 24.8495 53.6404 24.6577C54.226 24.466 54.8597 24.5027 55.4216 24.7618L55.4215 24.7618L55.4308 24.766C55.9793 25.0122 56.4587 25.4016 56.8201 25.8985C56.9914 26.1488 57.1228 26.4266 57.2088 26.7213ZM22.3561 22.4501L22.3547 22.4449C24.3047 21.9767 26.337 21.7295 28.4267 21.7295L28.7599 21.7295L28.7628 21.7295C30.8321 21.7233 32.8948 21.9709 34.9069 22.4671L35.0248 22.4962H35.1463H35.719H35.8033L35.8864 22.4821C36.3126 22.4097 36.7153 22.2387 37.064 21.9838C37.4126 21.729 37.6976 21.3974 37.8988 21.0158L37.9401 20.9374L37.967 20.853C38.0452 20.6077 38.0851 20.3517 38.0854 20.0943V20.0932C38.0854 19.497 37.8784 18.9594 37.5783 18.5502C37.2963 18.1657 36.864 17.8067 36.3264 17.6919C33.914 17.0928 31.3988 16.7778 28.8085 16.7778V16.7778L28.7984 16.7779L28.4341 16.7816C25.827 16.7369 23.225 17.0285 20.6895 17.6494C20.3537 17.7202 20.0371 17.8613 19.7597 18.0625L20.3467 18.8721L19.7596 18.0625C19.4758 18.2684 19.2395 18.5323 19.0652 18.8356C18.8909 19.1389 18.7821 19.4754 18.7449 19.8227C18.7077 20.1701 18.7428 20.5218 18.8483 20.855L18.8728 20.9324L18.9095 21.0048C19.2189 21.616 19.7326 22.101 20.3647 22.3679C20.9974 22.635 21.7035 22.6644 22.3561 22.4501ZM55.2098 33.5337L55.2679 33.4904L55.3192 33.4391L55.4727 33.2858L57.1819 31.5783H54.7659H54.6873C54.0703 31.5783 53.5022 31.3691 53.0542 31.0215L51.4412 29.7703V31.8117V33.4983V34.5064L52.4493 34.4983L52.9247 34.4945L53.0228 34.4937L53.1189 34.4738C53.8753 34.3176 54.5884 33.9965 55.2098 33.5337ZM55.054 31.1149L56.04 30.9734L56.0384 30.9621C56.0756 30.9555 56.1128 30.9486 56.1499 30.9413L56.8452 30.8041L56.9462 30.1026C57.0329 29.4998 57.0373 28.8842 56.9592 28.2801C56.9451 27.7369 56.7778 27.2069 56.4742 26.7547C56.1693 26.3006 55.7398 25.9441 55.2361 25.7317C54.7685 25.4864 54.2286 25.4147 53.7112 25.533C53.1703 25.6567 52.6981 25.9777 52.3803 26.4282L52.3406 26.4844L52.3091 26.5455C52.0629 27.0218 51.9344 27.5509 51.9335 28.0873C51.9325 28.6169 52.056 29.1398 52.2945 29.6123C52.5331 30.1195 52.9242 30.5413 53.4162 30.8136C53.915 31.0895 54.4892 31.1959 55.054 31.1149ZM15.8727 24.5184C15.1605 23.7892 14.1895 23.375 13.1719 23.375C12.1543 23.375 11.1834 23.7892 10.4712 24.5184C9.75985 25.2468 9.36432 26.2298 9.36432 27.25C9.36432 28.2702 9.75985 29.2532 10.4712 29.9816C11.1834 30.7108 12.1543 31.125 13.1719 31.125C14.1895 31.125 15.1605 30.7108 15.8727 29.9816C16.584 29.2532 16.9796 28.2702 16.9796 27.25C16.9796 26.2298 16.584 25.2468 15.8727 24.5184Z" stroke="white" stroke-width="2"/>
<circle cx="33" cy="6" r="5.25" stroke="white" stroke-width="1.5"/>
</svg>
