<svg width="145" height="42" viewBox="0 0 145 42" fill="none" xmlns="http://www.w3.org/2000/svg">
<path d="M71.5 16.144C70.716 16.144 70.028 15.964 69.436 15.604C68.844 15.236 68.384 14.728 68.056 14.08C67.728 13.424 67.564 12.668 67.564 11.812C67.564 10.956 67.728 10.2 68.056 9.544C68.392 8.888 68.864 8.376 69.472 8.008C70.088 7.64 70.812 7.456 71.644 7.456C72.588 7.456 73.372 7.684 73.996 8.14C74.628 8.596 75.036 9.224 75.22 10.024H74.056C73.944 9.52 73.676 9.12 73.252 8.824C72.836 8.528 72.3 8.38 71.644 8.38C71.028 8.38 70.492 8.52 70.036 8.8C69.58 9.072 69.224 9.464 68.968 9.976C68.72 10.488 68.596 11.1 68.596 11.812C68.596 12.524 68.72 13.136 68.968 13.648C69.216 14.16 69.56 14.556 70 14.836C70.44 15.108 70.952 15.244 71.536 15.244C72.432 15.244 73.108 14.984 73.564 14.464C74.02 13.936 74.28 13.216 74.344 12.304H71.92V11.512H75.376V16H74.452L74.368 14.62C74.064 15.108 73.692 15.484 73.252 15.748C72.812 16.012 72.228 16.144 71.5 16.144ZM79.886 16.144C79.318 16.144 78.814 16.016 78.374 15.76C77.934 15.496 77.586 15.132 77.33 14.668C77.082 14.204 76.958 13.656 76.958 13.024C76.958 12.4 77.082 11.856 77.33 11.392C77.578 10.92 77.922 10.556 78.362 10.3C78.81 10.036 79.326 9.904 79.91 9.904C80.486 9.904 80.982 10.036 81.398 10.3C81.822 10.556 82.146 10.896 82.37 11.32C82.594 11.744 82.706 12.2 82.706 12.688C82.706 12.776 82.702 12.864 82.694 12.952C82.694 13.04 82.694 13.14 82.694 13.252H77.954C77.978 13.708 78.082 14.088 78.266 14.392C78.458 14.688 78.694 14.912 78.974 15.064C79.262 15.216 79.566 15.292 79.886 15.292C80.302 15.292 80.65 15.196 80.93 15.004C81.21 14.812 81.414 14.552 81.542 14.224H82.538C82.378 14.776 82.07 15.236 81.614 15.604C81.166 15.964 80.59 16.144 79.886 16.144ZM79.886 10.756C79.406 10.756 78.978 10.904 78.602 11.2C78.234 11.488 78.022 11.912 77.966 12.472H81.71C81.686 11.936 81.502 11.516 81.158 11.212C80.814 10.908 80.39 10.756 79.886 10.756ZM86.4948 16C85.9508 16 85.5228 15.868 85.2108 15.604C84.8988 15.34 84.7428 14.864 84.7428 14.176V10.9H83.7108V10.048H84.7428L84.8748 8.62H85.7508V10.048H87.5028V10.9H85.7508V14.176C85.7508 14.552 85.8268 14.808 85.9788 14.944C86.1308 15.072 86.3988 15.136 86.7828 15.136H87.4068V16H86.4948ZM93.1713 8.728C92.9713 8.728 92.8033 8.664 92.6673 8.536C92.5393 8.4 92.4753 8.232 92.4753 8.032C92.4753 7.84 92.5393 7.68 92.6673 7.552C92.8033 7.424 92.9713 7.36 93.1713 7.36C93.3633 7.36 93.5273 7.424 93.6633 7.552C93.7993 7.68 93.8673 7.84 93.8673 8.032C93.8673 8.232 93.7993 8.4 93.6633 8.536C93.5273 8.664 93.3633 8.728 93.1713 8.728ZM92.6673 16V10.048H93.6753V16H92.6673ZM95.7303 16V10.048H96.6423L96.7023 11.116C96.8943 10.74 97.1703 10.444 97.5303 10.228C97.8903 10.012 98.2983 9.904 98.7543 9.904C99.4583 9.904 100.018 10.12 100.434 10.552C100.858 10.976 101.07 11.632 101.07 12.52V16H100.062V12.628C100.062 11.388 99.5503 10.768 98.5263 10.768C98.0143 10.768 97.5863 10.956 97.2423 11.332C96.9063 11.7 96.7383 12.228 96.7383 12.916V16H95.7303ZM109.085 16.144C108.525 16.144 108.021 16.016 107.573 15.76C107.125 15.504 106.769 15.144 106.505 14.68C106.249 14.208 106.121 13.656 106.121 13.024C106.121 12.392 106.253 11.844 106.517 11.38C106.781 10.908 107.137 10.544 107.585 10.288C108.041 10.032 108.549 9.904 109.109 9.904C109.669 9.904 110.173 10.032 110.621 10.288C111.069 10.544 111.421 10.908 111.677 11.38C111.941 11.844 112.073 12.392 112.073 13.024C112.073 13.656 111.941 14.208 111.677 14.68C111.413 15.144 111.053 15.504 110.597 15.76C110.149 16.016 109.645 16.144 109.085 16.144ZM109.085 15.28C109.429 15.28 109.749 15.196 110.045 15.028C110.341 14.86 110.581 14.608 110.765 14.272C110.949 13.936 111.041 13.52 111.041 13.024C111.041 12.528 110.949 12.112 110.765 11.776C110.589 11.44 110.353 11.188 110.057 11.02C109.761 10.852 109.445 10.768 109.109 10.768C108.765 10.768 108.445 10.852 108.149 11.02C107.853 11.188 107.613 11.44 107.429 11.776C107.245 12.112 107.153 12.528 107.153 13.024C107.153 13.52 107.245 13.936 107.429 14.272C107.613 14.608 107.849 14.86 108.137 15.028C108.433 15.196 108.749 15.28 109.085 15.28ZM113.775 16V10.048H114.687L114.747 11.116C114.939 10.74 115.215 10.444 115.575 10.228C115.935 10.012 116.343 9.904 116.799 9.904C117.503 9.904 118.063 10.12 118.479 10.552C118.903 10.976 119.115 11.632 119.115 12.52V16H118.107V12.628C118.107 11.388 117.595 10.768 116.571 10.768C116.059 10.768 115.631 10.956 115.287 11.332C114.951 11.7 114.783 12.228 114.783 12.916V16H113.775Z" fill="white"/>
<path d="M15.8691 20.5996L5.07812 9.75977L18.7988 17.6699L15.8691 20.5996ZM2.29492 9.125L14.7949 21.625L2.29492 34.125C1.66016 33.832 1.2207 33.1973 1.2207 32.416V10.8828C1.2207 10.1016 1.66016 9.4668 2.29492 9.125ZM23.0469 20.1602C23.9746 20.8438 23.9746 22.4551 23.0957 23.1387L20.166 24.7988L16.9434 21.625L20.166 18.5L23.0469 20.1602ZM5.07812 33.4902L15.8691 22.6992L18.7988 25.6289L5.07812 33.4902Z" fill="white"/>
<path d="M72.25 35.168C71.326 35.168 70.5187 34.958 69.828 34.538C69.1373 34.118 68.6007 33.53 68.218 32.774C67.8353 32.018 67.644 31.136 67.644 30.128C67.644 29.1293 67.84 28.2473 68.232 27.482C68.624 26.7167 69.1793 26.1193 69.898 25.69C70.626 25.2513 71.4847 25.032 72.474 25.032C73.594 25.032 74.5273 25.3027 75.274 25.844C76.0207 26.3853 76.506 27.132 76.73 28.084H75.05C74.9007 27.5613 74.6067 27.1507 74.168 26.852C73.7293 26.5533 73.1647 26.404 72.474 26.404C71.4473 26.404 70.64 26.7353 70.052 27.398C69.464 28.0607 69.17 28.9753 69.17 30.142C69.17 31.3087 69.4593 32.2187 70.038 32.872C70.6167 33.5253 71.3867 33.852 72.348 33.852C73.3187 33.852 74.0467 33.5767 74.532 33.026C75.0267 32.4753 75.316 31.7427 75.4 30.828H72.74V29.68H76.898V35H75.54L75.414 33.558C75.0873 34.0713 74.6767 34.468 74.182 34.748C73.6873 35.028 73.0433 35.168 72.25 35.168ZM81.8911 35.168C81.2284 35.168 80.6311 35.0187 80.0991 34.72C79.5764 34.412 79.1611 33.9873 78.8531 33.446C78.5451 32.8953 78.3911 32.256 78.3911 31.528C78.3911 30.8 78.5451 30.1653 78.8531 29.624C79.1704 29.0733 79.5951 28.6487 80.1271 28.35C80.6591 28.042 81.2517 27.888 81.9051 27.888C82.5677 27.888 83.1604 28.042 83.6831 28.35C84.2151 28.6487 84.6351 29.0733 84.9431 29.624C85.2604 30.1653 85.4191 30.8 85.4191 31.528C85.4191 32.256 85.2604 32.8953 84.9431 33.446C84.6351 33.9873 84.2151 34.412 83.6831 34.72C83.1511 35.0187 82.5537 35.168 81.8911 35.168ZM81.8911 33.894C82.2457 33.894 82.5724 33.8053 82.8711 33.628C83.1791 33.4507 83.4264 33.1893 83.6131 32.844C83.7997 32.4893 83.8931 32.0507 83.8931 31.528C83.8931 31.0053 83.7997 30.5713 83.6131 30.226C83.4357 29.8713 83.1931 29.6053 82.8851 29.428C82.5864 29.2507 82.2597 29.162 81.9051 29.162C81.5504 29.162 81.2191 29.2507 80.9111 29.428C80.6124 29.6053 80.3697 29.8713 80.1831 30.226C79.9964 30.5713 79.9031 31.0053 79.9031 31.528C79.9031 32.0507 79.9964 32.4893 80.1831 32.844C80.3697 33.1893 80.6124 33.4507 80.9111 33.628C81.2097 33.8053 81.5364 33.894 81.8911 33.894ZM90.2719 35.168C89.6093 35.168 89.0119 35.0187 88.4799 34.72C87.9573 34.412 87.5419 33.9873 87.2339 33.446C86.9259 32.8953 86.7719 32.256 86.7719 31.528C86.7719 30.8 86.9259 30.1653 87.2339 29.624C87.5513 29.0733 87.9759 28.6487 88.5079 28.35C89.0399 28.042 89.6326 27.888 90.2859 27.888C90.9486 27.888 91.5413 28.042 92.0639 28.35C92.5959 28.6487 93.0159 29.0733 93.3239 29.624C93.6413 30.1653 93.7999 30.8 93.7999 31.528C93.7999 32.256 93.6413 32.8953 93.3239 33.446C93.0159 33.9873 92.5959 34.412 92.0639 34.72C91.5319 35.0187 90.9346 35.168 90.2719 35.168ZM90.2719 33.894C90.6266 33.894 90.9533 33.8053 91.2519 33.628C91.5599 33.4507 91.8073 33.1893 91.9939 32.844C92.1806 32.4893 92.2739 32.0507 92.2739 31.528C92.2739 31.0053 92.1806 30.5713 91.9939 30.226C91.8166 29.8713 91.5739 29.6053 91.2659 29.428C90.9673 29.2507 90.6406 29.162 90.2859 29.162C89.9313 29.162 89.5999 29.2507 89.2919 29.428C88.9933 29.6053 88.7506 29.8713 88.5639 30.226C88.3773 30.5713 88.2839 31.0053 88.2839 31.528C88.2839 32.0507 88.3773 32.4893 88.5639 32.844C88.7506 33.1893 88.9933 33.4507 89.2919 33.628C89.5906 33.8053 89.9173 33.894 90.2719 33.894ZM97.8777 32.872C97.5137 32.872 97.1777 32.83 96.8697 32.746L96.2677 33.334C96.3703 33.3993 96.4963 33.4553 96.6457 33.502C96.795 33.5487 97.005 33.5907 97.2757 33.628C97.5463 33.6653 97.915 33.7027 98.3817 33.74C99.3057 33.824 99.973 34.048 100.384 34.412C100.794 34.7667 101 35.2427 101 35.84C101 36.2507 100.888 36.638 100.664 37.002C100.449 37.3753 100.108 37.674 99.6417 37.898C99.1843 38.1313 98.5963 38.248 97.8777 38.248C96.907 38.248 96.1183 38.0613 95.5117 37.688C94.9143 37.324 94.6157 36.7687 94.6157 36.022C94.6157 35.7327 94.6903 35.4433 94.8397 35.154C94.9983 34.874 95.2457 34.608 95.5817 34.356C95.3857 34.272 95.213 34.1833 95.0637 34.09C94.9237 33.9873 94.7977 33.8847 94.6857 33.782V33.446L95.8897 32.214C95.3483 31.7473 95.0777 31.136 95.0777 30.38C95.0777 29.9227 95.185 29.5073 95.3997 29.134C95.6237 28.7513 95.9457 28.448 96.3657 28.224C96.7857 28 97.2897 27.888 97.8777 27.888C98.2697 27.888 98.6337 27.944 98.9697 28.056H101.56V29.036L100.328 29.106C100.552 29.4887 100.664 29.9133 100.664 30.38C100.664 30.8467 100.552 31.2667 100.328 31.64C100.113 32.0133 99.7957 32.312 99.3757 32.536C98.965 32.76 98.4657 32.872 97.8777 32.872ZM97.8777 31.71C98.307 31.71 98.6523 31.598 98.9137 31.374C99.1843 31.1407 99.3197 30.814 99.3197 30.394C99.3197 29.9647 99.1843 29.638 98.9137 29.414C98.6523 29.19 98.307 29.078 97.8777 29.078C97.439 29.078 97.0843 29.19 96.8137 29.414C96.5523 29.638 96.4217 29.9647 96.4217 30.394C96.4217 30.814 96.5523 31.1407 96.8137 31.374C97.0843 31.598 97.439 31.71 97.8777 31.71ZM96.0157 35.882C96.0157 36.2833 96.193 36.582 96.5477 36.778C96.9023 36.9833 97.3457 37.086 97.8777 37.086C98.391 37.086 98.8063 36.974 99.1237 36.75C99.441 36.5353 99.5997 36.246 99.5997 35.882C99.5997 35.6113 99.4923 35.378 99.2777 35.182C99.063 34.9953 98.657 34.8787 98.0597 34.832C97.6117 34.804 97.215 34.762 96.8697 34.706C96.543 34.8833 96.319 35.0747 96.1977 35.28C96.0763 35.4853 96.0157 35.686 96.0157 35.882ZM102.883 35V24.92H104.367V35H102.883ZM109.495 35.168C108.813 35.168 108.207 35.0187 107.675 34.72C107.152 34.412 106.741 33.9873 106.443 33.446C106.144 32.9047 105.995 32.2747 105.995 31.556C105.995 30.828 106.139 30.1887 106.429 29.638C106.727 29.0873 107.138 28.658 107.661 28.35C108.193 28.042 108.809 27.888 109.509 27.888C110.19 27.888 110.783 28.042 111.287 28.35C111.791 28.6487 112.183 29.05 112.463 29.554C112.743 30.058 112.883 30.6133 112.883 31.22C112.883 31.3133 112.878 31.416 112.869 31.528C112.869 31.6307 112.864 31.7473 112.855 31.878H107.451C107.497 32.55 107.717 33.0633 108.109 33.418C108.51 33.7633 108.972 33.936 109.495 33.936C109.915 33.936 110.265 33.8427 110.545 33.656C110.834 33.46 111.049 33.1987 111.189 32.872H112.673C112.486 33.5253 112.113 34.0713 111.553 34.51C111.002 34.9487 110.316 35.168 109.495 35.168ZM109.495 29.106C109 29.106 108.561 29.2553 108.179 29.554C107.796 29.8433 107.563 30.282 107.479 30.87H111.399C111.371 30.3287 111.179 29.8993 110.825 29.582C110.47 29.2647 110.027 29.106 109.495 29.106ZM118.006 35V25.2H121.436C122.201 25.2 122.836 25.3307 123.34 25.592C123.844 25.844 124.217 26.194 124.46 26.642C124.712 27.0807 124.838 27.58 124.838 28.14C124.838 28.672 124.716 29.162 124.474 29.61C124.24 30.0487 123.872 30.3987 123.368 30.66C122.864 30.9213 122.22 31.052 121.436 31.052H119.49V35H118.006ZM119.49 29.834H121.366C122.066 29.834 122.565 29.6847 122.864 29.386C123.172 29.078 123.326 28.6627 123.326 28.14C123.326 27.5987 123.172 27.1787 122.864 26.88C122.565 26.572 122.066 26.418 121.366 26.418H119.49V29.834ZM126.249 35V24.92H127.733V35H126.249ZM131.964 35.168C131.376 35.168 130.89 35.07 130.508 34.874C130.125 34.678 129.84 34.4213 129.654 34.104C129.467 33.7773 129.374 33.4227 129.374 33.04C129.374 32.368 129.635 31.836 130.158 31.444C130.68 31.052 131.427 30.856 132.398 30.856H134.218V30.73C134.218 30.1887 134.068 29.7827 133.77 29.512C133.48 29.2413 133.102 29.106 132.636 29.106C132.225 29.106 131.866 29.2087 131.558 29.414C131.259 29.61 131.077 29.904 131.012 30.296H129.528C129.574 29.792 129.742 29.3627 130.032 29.008C130.33 28.644 130.704 28.3687 131.152 28.182C131.609 27.986 132.108 27.888 132.65 27.888C133.62 27.888 134.372 28.1447 134.904 28.658C135.436 29.162 135.702 29.8527 135.702 30.73V35H134.414L134.288 33.81C134.092 34.1927 133.807 34.5147 133.434 34.776C133.06 35.0373 132.57 35.168 131.964 35.168ZM132.258 33.964C132.659 33.964 132.995 33.8707 133.266 33.684C133.546 33.488 133.76 33.2313 133.91 32.914C134.068 32.5967 134.166 32.2467 134.204 31.864H132.552C131.964 31.864 131.544 31.9667 131.292 32.172C131.049 32.3773 130.928 32.634 130.928 32.942C130.928 33.2593 131.044 33.5113 131.278 33.698C131.52 33.8753 131.847 33.964 132.258 33.964ZM138.025 38.08L139.691 34.426H139.285L136.541 28.056H138.151L140.279 33.194L142.505 28.056H144.073L139.593 38.08H138.025Z" fill="white"/>
</svg>
