<svg width="18" height="20" viewBox="0 0 18 20" fill="none" xmlns="http://www.w3.org/2000/svg">
<path d="M16.9017 0.796674C16.5349 0.43086 16.0386 0.224448 15.5206 0.222229H4.32502C3.80699 0.224448 3.31072 0.43086 2.94391 0.796674L1.11058 2.63001C0.744764 2.99681 0.538353 3.49308 0.536134 4.01112V17.8222C0.535905 18.079 0.586553 18.3332 0.685151 18.5703C0.783749 18.8073 0.928342 19.0225 1.11058 19.2033C1.47438 19.5662 1.96567 19.7724 2.47947 19.7778H15.5206C16.0392 19.7778 16.5366 19.5718 16.9034 19.205C17.2701 18.8383 17.4761 18.3409 17.4761 17.8222V2.17778C17.4739 1.65975 17.2675 1.16348 16.9017 0.796674ZM2.02113 3.5589L3.85447 1.72556C3.97644 1.60468 4.14107 1.53663 4.3128 1.53612H4.4228V3.49167C4.41972 3.65984 4.35196 3.82036 4.2336 3.93986C4.11523 4.05936 3.95538 4.12865 3.78725 4.13334H1.83169V4.02334C1.83114 3.93727 1.8476 3.85193 1.88011 3.77223C1.91262 3.69253 1.96054 3.62003 2.02113 3.5589ZM16.1684 17.8222C16.1684 17.9957 16.0995 18.162 15.9768 18.2846C15.8542 18.4072 15.6879 18.4761 15.5145 18.4761H2.47947C2.30711 18.4745 2.14235 18.4049 2.02104 18.2825C1.89973 18.16 1.83168 17.9946 1.83169 17.8222V5.43501H3.78725C4.04405 5.43501 4.29834 5.38443 4.5356 5.28615C4.77286 5.18787 4.98844 5.04383 5.17003 4.86224C5.35162 4.68065 5.49567 4.46507 5.59394 4.22781C5.69222 3.99055 5.7428 3.73626 5.7428 3.47945V1.5239H15.5206C15.6929 1.52551 15.8577 1.59511 15.979 1.71756C16.1003 1.84002 16.1684 2.00542 16.1684 2.17778V17.8222Z" fill="white"/>
</svg>
