<svg width="42" height="42" viewBox="0 0 42 42" fill="none" xmlns="http://www.w3.org/2000/svg">
<path d="M36.085 3.42998C35.3847 2.73161 34.4373 2.33755 33.4483 2.33331H12.075C11.086 2.33755 10.1386 2.73161 9.43833 3.42998L5.93833 6.92998C5.23996 7.63025 4.8459 8.57767 4.84166 9.56665V35.9333C4.84122 36.4235 4.93792 36.9088 5.12615 37.3614C5.31438 37.8139 5.59042 38.2247 5.93833 38.57C6.63285 39.2627 7.57078 39.6563 8.55166 39.6666H33.4483C34.4385 39.6666 35.3881 39.2733 36.0882 38.5732C36.7883 37.873 37.1817 36.9235 37.1817 35.9333V6.06665C37.1774 5.07767 36.7834 4.13025 36.085 3.42998ZM7.67666 8.70331L11.1767 5.20331C11.4095 4.97254 11.7238 4.84263 12.0517 4.84165H12.2617V8.57498C12.2558 8.89603 12.1264 9.20247 11.9005 9.4306C11.6745 9.65874 11.3693 9.79103 11.0483 9.79998H7.31499V9.58998C7.31395 9.42566 7.34536 9.26274 7.40743 9.11059C7.46949 8.95843 7.56098 8.82003 7.67666 8.70331ZM34.685 35.9333C34.685 36.2644 34.5535 36.5819 34.3194 36.816C34.0853 37.0501 33.7677 37.1816 33.4367 37.1816H8.55166C8.22261 37.1786 7.90808 37.0457 7.67649 36.8119C7.4449 36.5781 7.31498 36.2624 7.31499 35.9333V12.285H11.0483C11.5386 12.285 12.0241 12.1884 12.477 12.0008C12.93 11.8132 13.3415 11.5382 13.6882 11.1915C14.0349 10.8448 14.3099 10.4333 14.4975 9.98033C14.6851 9.52738 14.7817 9.04191 14.7817 8.55165V4.81831H33.4483C33.7774 4.82139 34.0919 4.95427 34.3235 5.18804C34.5551 5.42182 34.685 5.73758 34.685 6.06665V35.9333Z" fill="#181A1F"/>
<path d="M13.5333 17.2667H28.4667V19.7517H13.5333V17.2667Z" fill="#181A1F"/>
<path d="M13.5333 22.2484H21V24.7334H13.5333V22.2484Z" fill="#181A1F"/>
<path d="M21 30.9517H25.9817V33.4367H21V30.9517Z" fill="#181A1F"/>
<path d="M28.4667 30.9517H30.9517V33.4367H28.4667V30.9517Z" fill="#181A1F"/>
</svg>
