<svg width="8" height="8" viewBox="0 0 8 8" fill="none" xmlns="http://www.w3.org/2000/svg">
<path fill-rule="evenodd" clip-rule="evenodd" d="M6.86719 0.525091C6.64428 0.303025 6.34247 0.178311 6.02782 0.178243H1.26909C1.1126 0.177323 0.957484 0.207466 0.812729 0.266928C0.667974 0.326389 0.536458 0.413986 0.425802 0.524642C0.315146 0.635299 0.227549 0.766815 0.168088 0.91157C0.108627 1.05633 0.0784833 1.21144 0.0794038 1.36793V6.52208C0.0794038 6.83761 0.204745 7.14021 0.427854 7.36332C0.650963 7.58643 0.953564 7.71177 1.26909 7.71177H6.02782C6.34335 7.71177 6.64595 7.58643 6.86906 7.36332C7.09217 7.14021 7.21751 6.83761 7.21751 6.52208V1.36793C7.21668 1.05173 7.09073 0.748719 6.86719 0.525091ZM2.45877 6.12668H1.66796V1.76681H2.46224L2.45877 6.12668ZM4.04386 6.12668H3.25305V1.76681H4.04733L4.04386 6.12668ZM5.62895 6.12668H4.83814V1.76681H5.63242L5.62895 6.12668Z" fill="black"/>
</svg>
