<svg width="42" height="42" viewBox="0 0 42 42" fill="none" xmlns="http://www.w3.org/2000/svg">
<g clip-path="url(#clip0_141_6062)">
<path d="M21 42C14.2275 41.8819 5.60436 26.9719 5.60436 15.3956C5.55956 13.3616 5.92717 11.3395 6.68501 9.45138C7.44285 7.56324 8.57524 5.84815 10.0139 4.40951C11.4525 2.97087 13.1676 1.83848 15.0557 1.08064C16.9439 0.322797 18.9659 -0.0448082 21 -8.60961e-06C23.034 -0.0448082 25.0561 0.322797 26.9442 1.08064C28.8324 1.83848 30.5475 2.97087 31.9861 4.40951C33.4247 5.84815 34.5571 7.56324 35.315 9.45138C36.0728 11.3395 36.4404 13.3616 36.3956 15.3956C36.3956 24.2681 31.5131 34.3744 26.7881 39.0206C24.78 41.0025 22.8506 42 21 42ZM21 2.79562C19.33 2.7389 17.6662 3.02601 16.1119 3.63915C14.5575 4.25229 13.1458 5.17835 11.9642 6.35987C10.7827 7.54139 9.85666 8.95315 9.24352 10.5075C8.63038 12.0619 8.34327 13.7257 8.39999 15.3956C8.39999 26.4862 16.6294 39.1256 21.0262 39.1912C22.512 38.9444 23.8613 38.1767 24.8325 37.0256C29.0456 32.8781 33.6 23.4281 33.6 15.3956C33.6567 13.7257 33.3696 12.0619 32.7565 10.5075C32.1433 8.95315 31.2173 7.54139 30.0357 6.35987C28.8542 5.17835 27.4425 4.25229 25.8881 3.63915C24.3337 3.02601 22.6699 2.7389 21 2.79562Z" fill="#181A1F"/>
<path d="M21 22.4044C19.6164 22.4044 18.2639 21.9941 17.1135 21.2254C15.963 20.4567 15.0664 19.3642 14.5369 18.0859C14.0074 16.8076 13.8689 15.401 14.1388 14.044C14.4087 12.687 15.075 11.4405 16.0534 10.4621C17.0317 9.48377 18.2782 8.8175 19.6352 8.54757C20.9923 8.27764 22.3989 8.41618 23.6771 8.94566C24.9554 9.47514 26.048 10.3718 26.8167 11.5222C27.5854 12.6726 27.9956 14.0252 27.9956 15.4088C27.9922 17.2631 27.254 19.0404 25.9428 20.3516C24.6317 21.6628 22.8543 22.4009 21 22.4044ZM21 11.2088C20.1693 11.2088 19.3573 11.4551 18.6666 11.9166C17.9759 12.3781 17.4376 13.0341 17.1197 13.8015C16.8018 14.569 16.7187 15.4134 16.8807 16.2282C17.0428 17.0429 17.4428 17.7912 18.0302 18.3786C18.6176 18.966 19.3659 19.366 20.1806 19.5281C20.9954 19.6901 21.8398 19.607 22.6073 19.2891C23.3747 18.9712 24.0307 18.4329 24.4922 17.7422C24.9537 17.0515 25.2 16.2395 25.2 15.4088C25.2018 14.8561 25.0944 14.3086 24.8841 13.7975C24.6738 13.2864 24.3647 12.8218 23.9745 12.4304C23.5843 12.039 23.1208 11.7285 22.6103 11.5166C22.0999 11.3047 21.5527 11.1956 21 11.1956V11.2088Z" fill="#181A1F"/>
</g>
<defs>
<clipPath id="clip0_141_6062">
<rect width="42" height="42" fill="white"/>
</clipPath>
</defs>
</svg>
