<svg width="22" height="22" viewBox="0 0 22 22" fill="none" xmlns="http://www.w3.org/2000/svg">
<g clip-path="url(#clip0_141_6038)">
<path d="M11 22C7.4525 21.9381 2.93563 14.1281 2.93563 8.0644C2.91216 6.99894 3.10472 5.93977 3.50168 4.95075C3.89865 3.96172 4.4918 3.06334 5.24538 2.30977C5.99895 1.55619 6.89733 0.963041 7.88635 0.566076C8.87538 0.16911 9.93455 -0.0234448 11 2.1648e-05C12.0655 -0.0234448 13.1246 0.16911 14.1137 0.566076C15.1027 0.963041 16.0011 1.55619 16.7546 2.30977C17.5082 3.06334 18.1014 3.96172 18.4983 4.95075C18.8953 5.93977 19.0878 6.99894 19.0644 8.0644C19.0644 12.7119 16.5069 18.0056 14.0319 20.4394C12.98 21.4775 11.9694 22 11 22ZM11 1.4644C10.1253 1.43469 9.25375 1.58508 8.43956 1.90625C7.62538 2.22741 6.88589 2.7125 6.267 3.33139C5.64811 3.95028 5.16302 4.68977 4.84186 5.50396C4.52069 6.31815 4.37029 7.18966 4.4 8.0644C4.4 13.8738 8.71063 20.4944 11.0138 20.5288C11.792 20.3995 12.4988 19.9973 13.0075 19.3944C15.2144 17.2219 17.6 12.2719 17.6 8.0644C17.6297 7.18966 17.4793 6.31815 17.1582 5.50396C16.837 4.68977 16.3519 3.95028 15.733 3.33139C15.1141 2.7125 14.3746 2.22741 13.5604 1.90625C12.7463 1.58508 11.8747 1.43469 11 1.4644Z" fill="white"/>
<path d="M11 11.7356C10.2753 11.7356 9.5668 11.5207 8.96419 11.1181C8.36159 10.7154 7.89192 10.1431 7.61457 9.47353C7.33722 8.80396 7.26465 8.06717 7.40604 7.35635C7.54743 6.64553 7.89643 5.9926 8.4089 5.48013C8.92138 4.96766 9.57431 4.61866 10.2851 4.47727C10.9959 4.33588 11.7327 4.40845 12.4023 4.6858C13.0719 4.96314 13.6442 5.43282 14.0468 6.03542C14.4495 6.63802 14.6644 7.34649 14.6644 8.07124C14.6626 9.04253 14.2759 9.97352 13.5891 10.6603C12.9023 11.3471 11.9713 11.7338 11 11.7356ZM11 5.87124C10.5649 5.87124 10.1395 6.00026 9.77776 6.242C9.41597 6.48374 9.13399 6.82734 8.96747 7.22933C8.80096 7.63133 8.75739 8.07368 8.84228 8.50044C8.92717 8.92719 9.1367 9.3192 9.44437 9.62687C9.75205 9.93455 10.1441 10.1441 10.5708 10.229C10.9976 10.3139 11.4399 10.2703 11.8419 10.1038C12.2439 9.93726 12.5875 9.65528 12.8292 9.29349C13.071 8.9317 13.2 8.50636 13.2 8.07124C13.2009 7.78175 13.1447 7.49493 13.0345 7.22722C12.9244 6.95951 12.7625 6.71617 12.5581 6.51116C12.3537 6.30614 12.1109 6.14347 11.8435 6.03248C11.5761 5.92149 11.2895 5.86436 11 5.86436V5.87124Z" fill="white"/>
</g>
<defs>
<clipPath id="clip0_141_6038">
<rect width="22" height="22" fill="white"/>
</clipPath>
</defs>
</svg>
