<svg width="22" height="22" viewBox="0 0 22 22" fill="none" xmlns="http://www.w3.org/2000/svg">
<g clip-path="url(#clip0_132_6304)">
<path d="M19.8 14.6644C19.6049 14.6644 19.4178 14.7419 19.2798 14.8798C19.1419 15.0178 19.0644 15.2049 19.0644 15.4C19.0625 16.7615 18.5209 18.0667 17.5582 19.0294C16.5954 19.9921 15.2902 20.5338 13.9287 20.5356H8.06436C6.70405 20.532 5.40061 19.9895 4.43937 19.027C3.47813 18.0645 2.93742 16.7603 2.93561 15.4V6.6C2.93742 5.23851 3.47908 3.9333 4.4418 2.97057C5.40453 2.00785 6.70974 1.46619 8.07123 1.46438H13.9356C15.2959 1.46801 16.5994 2.01047 17.5606 2.973C18.5218 3.93552 19.0625 5.2397 19.0644 6.6C19.0544 6.70211 19.066 6.80517 19.0983 6.90255C19.1306 6.99993 19.1829 7.08948 19.2518 7.16545C19.3208 7.24141 19.4049 7.30212 19.4987 7.34366C19.5925 7.3852 19.694 7.40666 19.7965 7.40666C19.8991 7.40666 20.0006 7.3852 20.0944 7.34366C20.1882 7.30212 20.2723 7.24141 20.3412 7.16545C20.4102 7.08948 20.4625 6.99993 20.4948 6.90255C20.5271 6.80517 20.5386 6.70211 20.5287 6.6C20.5269 4.85132 19.8319 3.17468 18.5961 1.93753C17.3602 0.700381 15.6843 0.00363835 13.9356 0L8.06436 0C6.31449 0.00181994 4.63681 0.69776 3.39946 1.93511C2.16212 3.17245 1.46618 4.85013 1.46436 6.6V15.4C1.46618 17.1499 2.16212 18.8275 3.39946 20.0649C4.63681 21.3022 6.31449 21.9982 8.06436 22H13.9287C15.6786 21.9982 17.3563 21.3022 18.5936 20.0649C19.831 18.8275 20.5269 17.1499 20.5287 15.4C20.5287 15.2061 20.4522 15.02 20.3157 14.8823C20.1792 14.7445 19.9939 14.6662 19.8 14.6644Z" fill="white"/>
<path d="M19.8 10.2644H11.3025L12.9869 8.58001C13.0889 8.43727 13.1365 8.2628 13.1211 8.08805C13.1058 7.9133 13.0285 7.74978 12.9033 7.62699C12.778 7.50419 12.6129 7.43021 12.4379 7.41839C12.2629 7.40657 12.0894 7.45768 11.9488 7.56251L9.01313 10.4981C8.87584 10.636 8.79877 10.8226 8.79877 11.0172C8.79877 11.2118 8.87584 11.3984 9.01313 11.5363L11.9488 14.4375C12.0892 14.5607 12.2712 14.6259 12.4579 14.6198C12.6446 14.6137 12.822 14.5368 12.9541 14.4048C13.0862 14.2727 13.1631 14.0953 13.1692 13.9085C13.1753 13.7218 13.1101 13.5398 12.9869 13.3994L11.3025 11.715H19.8C19.9819 11.6974 20.1508 11.6126 20.2737 11.4772C20.3965 11.3419 20.4646 11.1656 20.4646 10.9828C20.4646 10.8 20.3965 10.6238 20.2737 10.4884C20.1508 10.353 19.9819 10.2683 19.8 10.2506V10.2644Z" fill="white"/>
</g>
<defs>
<clipPath id="clip0_132_6304">
<rect width="22" height="22" fill="white"/>
</clipPath>
</defs>
</svg>
