<svg width="16" height="17" viewBox="0 0 16 17" fill="none" xmlns="http://www.w3.org/2000/svg">
<g clip-path="url(#clip0_820_2001)">
<path d="M8.00018 16.0683C5.42018 16.0233 2.13518 10.3433 2.13518 5.93329C2.11811 5.15841 2.25815 4.3881 2.54686 3.66881C2.83556 2.94953 3.26694 2.29616 3.815 1.7481C4.36305 1.20005 5.01642 0.768664 5.73571 0.479962C6.455 0.19126 7.2253 0.0512198 8.00018 0.0682863C8.77506 0.0512198 9.54537 0.19126 10.2647 0.479962C10.9839 0.768664 11.6373 1.20005 12.1854 1.7481C12.7334 2.29616 13.1648 2.94953 13.4535 3.66881C13.7422 4.3881 13.8822 5.15841 13.8652 5.93329C13.8652 9.31329 12.0052 13.1633 10.2052 14.9333C9.44018 15.6883 8.70518 16.0683 8.00018 16.0683ZM8.00018 1.13329C7.36401 1.11168 6.73018 1.22106 6.13804 1.45463C5.54591 1.68821 5.0081 2.041 4.55799 2.4911C4.10789 2.9412 3.7551 3.47901 3.52153 4.07115C3.28795 4.66329 3.17857 5.29711 3.20018 5.93329C3.20018 10.1583 6.33518 14.9733 8.01018 14.9983C8.57617 14.9043 9.09019 14.6118 9.46018 14.1733C11.0652 12.5933 12.8002 8.99329 12.8002 5.93329C12.8218 5.29711 12.7124 4.66329 12.4788 4.07115C12.2453 3.47901 11.8925 2.9412 11.4424 2.4911C10.9923 2.041 10.4545 1.68821 9.86232 1.45463C9.27018 1.22106 8.63635 1.11168 8.00018 1.13329Z" fill="white"/>
<path d="M7.99996 8.60344C7.47288 8.60344 6.95762 8.44714 6.51937 8.15431C6.08111 7.86147 5.73953 7.44526 5.53782 6.95829C5.33612 6.47133 5.28334 5.93548 5.38617 5.41852C5.489 4.90156 5.74282 4.42671 6.11552 4.054C6.48823 3.68129 6.96309 3.42748 7.48005 3.32465C7.99701 3.22182 8.53285 3.27459 9.01981 3.4763C9.50678 3.67801 9.92299 4.01959 10.2158 4.45784C10.5087 4.8961 10.665 5.41135 10.665 5.93844C10.6636 6.64483 10.3824 7.32192 9.88294 7.82142C9.38344 8.32092 8.70636 8.60212 7.99996 8.60344ZM7.99996 4.33844C7.68351 4.33844 7.37417 4.43228 7.11105 4.60809C6.84793 4.7839 6.64286 5.03378 6.52176 5.32615C6.40066 5.61851 6.36897 5.94021 6.43071 6.25058C6.49244 6.56095 6.64483 6.84605 6.86859 7.06981C7.09236 7.29357 7.37745 7.44596 7.68782 7.5077C7.99819 7.56943 8.31989 7.53775 8.61226 7.41665C8.90462 7.29555 9.1545 7.09047 9.33031 6.82735C9.50612 6.56423 9.59996 6.25489 9.59996 5.93844C9.60062 5.7279 9.55972 5.51931 9.47961 5.32461C9.3995 5.12991 9.28174 4.95294 9.1331 4.80383C8.98447 4.65473 8.80786 4.53643 8.61341 4.45571C8.41897 4.37499 8.2105 4.33344 7.99996 4.33344V4.33844Z" fill="white"/>
</g>
<defs>
<clipPath id="clip0_820_2001">
<rect width="16" height="16" fill="white" transform="translate(0 0.0683594)"/>
</clipPath>
</defs>
</svg>
