<svg width="16" height="16" viewBox="0 0 16 16" fill="none" xmlns="http://www.w3.org/2000/svg">
<path d="M14.7732 13.5947C14.7732 13.5947 12.9974 10.5426 12.6788 9.9952C13.0412 9.88464 13.4273 9.78701 13.5877 9.51002C13.8551 9.04849 13.3792 8.29138 13.5042 7.79669C13.6329 7.28756 14.3928 6.847 14.3928 6.32948C14.3928 5.82527 13.6072 5.23623 13.4783 4.73008C13.3525 4.23548 13.827 3.47755 13.5588 3.01658C13.2906 2.55557 12.3972 2.59345 12.0295 2.23958C11.6511 1.87543 11.6522 0.984456 11.1959 0.740417C10.7376 0.495471 9.99288 0.990509 9.48409 0.873246C8.9811 0.757324 8.53172 0 8.00633 0C7.47315 0 6.62512 0.859064 6.49211 0.889979C5.98359 1.00819 5.23789 0.514366 4.78013 0.76035C4.32418 1.00521 4.32699 1.89627 3.9493 2.26103C3.58216 2.61554 2.68876 2.57931 2.42138 3.04084C2.15403 3.50228 2.62992 4.25922 2.505 4.75417C2.37974 5.25037 1.5934 5.75315 1.5934 6.32701C1.5934 6.84458 2.35518 7.28375 2.48468 7.79263C2.61054 8.28723 2.13609 9.04508 2.4043 9.50622C2.55031 9.75722 2.88161 9.86025 3.21247 9.95931C3.25108 9.97086 3.32411 10.0141 3.27465 10.0861C3.04829 10.4768 1.22643 13.6211 1.22643 13.6211C1.0815 13.8712 1.19919 14.0856 1.4879 14.0977L2.90106 14.1567C3.18977 14.1688 3.55193 14.3786 3.70604 14.623L4.46012 15.8196C4.61422 16.064 4.85873 16.0595 5.00363 15.8094C5.00363 15.8094 7.11354 12.1667 7.1144 12.1657C7.15673 12.1162 7.19928 12.1264 7.21965 12.1437C7.4505 12.3402 7.77232 12.5363 8.04092 12.5363C8.30433 12.5363 8.54824 12.3517 8.78951 12.1459C8.80914 12.1292 8.85692 12.0949 8.89186 12.166C8.89242 12.1672 11 15.7899 11 15.7899C11.1453 16.0396 11.3898 16.0439 11.5435 15.7992L12.2954 14.6011C12.4491 14.3565 12.8109 14.1459 13.0996 14.1333L14.5126 14.0718C14.8012 14.0591 14.9185 13.8444 14.7732 13.5947ZM10.3418 10.3181C8.7793 11.2271 6.90383 11.1297 5.47134 10.2261C3.37232 8.88159 2.68167 6.10031 3.9435 3.92243C5.21973 1.71943 8.02518 0.942082 10.248 2.15272C10.2597 2.15907 10.2713 2.16565 10.2828 2.17213C10.2993 2.18126 10.3157 2.19051 10.3321 2.19985C11.0179 2.59522 11.6126 3.16904 12.0384 3.90094C13.3398 6.13793 12.5787 9.01667 10.3418 10.3181Z" fill="#181A1F"/>
<path d="M9.98443 2.8581C9.97795 2.85433 9.97137 2.85083 9.96489 2.84711C8.77747 2.15988 7.26403 2.10964 5.99563 2.84759C4.11337 3.94265 3.47288 6.36483 4.56794 8.24705C4.90208 8.82143 5.35998 9.27993 5.88827 9.60898C5.93319 9.63743 5.97864 9.6654 6.02508 9.6923C7.90937 10.7839 10.3303 10.1391 11.4219 8.25488C12.5134 6.37058 11.8687 3.94974 9.98443 2.8581ZM10.4558 5.93846L9.79604 6.58154C9.5917 6.7807 9.46397 7.17382 9.51227 7.45509L9.66801 8.36315C9.71627 8.64441 9.54911 8.76587 9.29651 8.63308L8.48098 8.20433C8.22838 8.07154 7.81507 8.07154 7.56247 8.20433L6.74699 8.63308C6.49439 8.76587 6.32718 8.64441 6.37544 8.36315L6.53118 7.45509C6.57944 7.17382 6.45171 6.7807 6.24736 6.58154L5.58763 5.93846C5.38324 5.7393 5.44715 5.54274 5.72954 5.50166L6.64127 5.36918C6.92366 5.32814 7.25807 5.08519 7.38437 4.8293L7.79211 4.00314C7.91841 3.74725 8.12509 3.74725 8.25134 4.00314L8.65913 4.8293C8.78543 5.08519 9.11979 5.32814 9.40222 5.36918L10.314 5.50166C10.5963 5.54274 10.6602 5.7393 10.4558 5.93846Z" fill="#181A1F"/>
</svg>
