<svg width="60" height="60" viewBox="0 0 60 60" fill="none" xmlns="http://www.w3.org/2000/svg">
<rect width="60" height="60" rx="30" fill="#181A1F"/>
<path d="M38.8244 23.4792C38.5226 23.1757 38.1635 22.9352 37.7681 22.7715C37.3726 22.6079 36.9485 22.5244 36.5205 22.5259H23.4794C22.6155 22.5259 21.787 22.8691 21.1762 23.4799C20.5653 24.0908 20.2222 24.9193 20.2222 25.7831V34.2165C20.2222 35.0803 20.5653 35.9088 21.1762 36.5197C21.787 37.1305 22.6155 37.4737 23.4794 37.4737H36.5205C37.3844 37.4737 38.2129 37.1305 38.8237 36.5197C39.4346 35.9088 39.7777 35.0803 39.7777 34.2165V25.7831C39.7792 25.3551 39.6958 24.9311 39.5321 24.5356C39.3685 24.1401 39.1279 23.781 38.8244 23.4792ZM22.0983 24.402C22.2791 24.2198 22.4943 24.0752 22.7314 23.9766C22.9684 23.878 23.2226 23.8273 23.4794 23.8276H36.5205C36.7773 23.8276 37.0316 23.8781 37.2689 23.9764C37.5061 24.0747 37.7217 24.2187 37.9033 24.4003C38.0849 24.5819 38.2289 24.7975 38.3272 25.0348C38.4255 25.272 38.4761 25.5263 38.4761 25.7831H21.5238C21.5236 25.5264 21.5743 25.2721 21.6729 25.0351C21.7714 24.798 21.916 24.5829 22.0983 24.402ZM38.4761 27.0909V29.0465H21.5238V27.0909H38.4761ZM37.9016 35.6037C37.7208 35.7859 37.5056 35.9305 37.2685 36.0291C37.0315 36.1277 36.7772 36.1784 36.5205 36.1781H23.4794C22.9607 36.1781 22.4633 35.9721 22.0966 35.6054C21.7299 35.2386 21.5238 34.7412 21.5238 34.2226V30.3481H38.4761V34.2165C38.4763 34.4732 38.4256 34.7274 38.327 34.9645C38.2284 35.2015 38.0838 35.4167 37.9016 35.5976V35.6037Z" fill="white"/>
<path d="M23.4795 32.3037H26.0889V33.6054H23.4795V32.3037Z" fill="white"/>
<path d="M27.3906 32.3037H28.6923V33.6054H27.3906V32.3037Z" fill="white"/>
</svg>
