<svg width="22" height="22" viewBox="0 0 22 22" fill="none" xmlns="http://www.w3.org/2000/svg">
<path d="M18.8222 2.5239H15.565V1.22223H14.2572V2.5239H7.74278V1.22223H6.43501V2.5239H3.17778C2.65914 2.5239 2.16174 2.72993 1.795 3.09666C1.42826 3.4634 1.22223 3.96081 1.22223 4.47945V18.8222C1.22223 19.3409 1.42826 19.8383 1.795 20.205C2.16174 20.5718 2.65914 20.7778 3.17778 20.7778H18.8222C19.3409 20.7778 19.8383 20.5718 20.205 20.205C20.5718 19.8383 20.7778 19.3409 20.7778 18.8222V4.47945C20.7778 3.96081 20.5718 3.4634 20.205 3.09666C19.8383 2.72993 19.3409 2.5239 18.8222 2.5239ZM3.17778 3.83167H6.43501V5.13334H7.73667V3.83167H14.2572V5.13334H15.5589V3.83167H18.8222C18.9957 3.83167 19.162 3.90057 19.2846 4.02319C19.4072 4.14582 19.4761 4.31214 19.4761 4.48556V7.74278H2.5239V4.47945C2.52551 4.30709 2.59511 4.14234 2.71756 4.02103C2.84002 3.89972 3.00542 3.83167 3.17778 3.83167ZM18.8222 19.4761H3.17778C3.00436 19.4761 2.83804 19.4072 2.71542 19.2846C2.59279 19.162 2.5239 18.9957 2.5239 18.8222V9.04445H19.4761V18.8222C19.4761 18.9957 19.4072 19.162 19.2846 19.2846C19.162 19.4072 18.9957 19.4761 18.8222 19.4761Z" fill="white"/>
<path d="M14.0189 12.98L12.5156 12.4056L11.5072 11.1528C11.4459 11.0774 11.3686 11.0167 11.2808 10.9749C11.1931 10.9332 11.0972 10.9116 11 10.9116C10.9029 10.9116 10.8069 10.9332 10.7192 10.9749C10.6314 11.0167 10.5541 11.0774 10.4928 11.1528L9.48446 12.4056L7.98113 12.98C7.89054 13.0152 7.80894 13.0701 7.74226 13.1408C7.67558 13.2115 7.62549 13.2962 7.59564 13.3887C7.56579 13.4811 7.55693 13.5791 7.5697 13.6754C7.58247 13.7718 7.61655 13.864 7.66946 13.9456L8.55557 15.2778L8.63502 16.885C8.64011 16.9823 8.6669 17.0773 8.71342 17.1629C8.75995 17.2486 8.82503 17.3227 8.9039 17.38C8.98366 17.4363 9.07464 17.4748 9.17061 17.4927C9.26659 17.5106 9.36531 17.5076 9.46002 17.4839L11 17.0744L12.5522 17.4961C12.6472 17.5209 12.7465 17.5241 12.8428 17.5053C12.9392 17.4865 13.03 17.4462 13.1087 17.3875C13.1873 17.3288 13.2518 17.2532 13.2972 17.1662C13.3426 17.0792 13.3679 16.9831 13.3711 16.885L13.4445 15.2778L14.3245 13.9272C14.3774 13.8457 14.4115 13.7534 14.4242 13.6571C14.437 13.5608 14.4281 13.4628 14.3983 13.3703C14.3684 13.2778 14.3183 13.1932 14.2517 13.1225C14.185 13.0518 14.1034 12.9969 14.0128 12.9617L14.0189 12.98ZM12.265 14.7278C12.2024 14.8247 12.1666 14.9364 12.1611 15.0517L12.1122 16.0294L11.1711 15.7728C11.059 15.7427 10.941 15.7427 10.8289 15.7728L9.88779 16.0294L9.8389 15.0517C9.83345 14.9364 9.79761 14.8247 9.73502 14.7278L9.20335 13.9089L10.1139 13.5606C10.2218 13.5188 10.3167 13.4493 10.3889 13.3589L11 12.595L11.6111 13.3589C11.6833 13.4493 11.7782 13.5188 11.8861 13.5606L12.7967 13.9089L12.265 14.7278Z" fill="white"/>
</svg>
