<svg width="42" height="42" viewBox="0 0 42 42" fill="none" xmlns="http://www.w3.org/2000/svg">
<path d="M35.9333 4.81831H29.715V2.33331H27.2183V4.81831H14.7816V2.33331H12.285V4.81831H6.06665C5.0765 4.81831 4.12692 5.21165 3.42678 5.91178C2.72665 6.61192 2.33331 7.5615 2.33331 8.55165V35.9333C2.33331 36.9235 2.72665 37.873 3.42678 38.5732C4.12692 39.2733 5.0765 39.6666 6.06665 39.6666H35.9333C36.9235 39.6666 37.873 39.2733 38.5732 38.5732C39.2733 37.873 39.6666 36.9235 39.6666 35.9333V8.55165C39.6666 7.5615 39.2733 6.61192 38.5732 5.91178C37.873 5.21165 36.9235 4.81831 35.9333 4.81831ZM6.06665 7.31498H12.285V9.79998H14.77V7.31498H27.2183V9.79998H29.7033V7.31498H35.9333C36.2644 7.31498 36.5819 7.4465 36.816 7.68061C37.0501 7.91472 37.1816 8.23223 37.1816 8.56331V14.7816H4.81831V8.55165C4.82139 8.22259 4.95427 7.90806 5.18804 7.67647C5.42182 7.44488 5.73758 7.31497 6.06665 7.31498ZM35.9333 37.1816H6.06665C5.73557 37.1816 5.41805 37.0501 5.18394 36.816C4.94983 36.5819 4.81831 36.2644 4.81831 35.9333V17.2666H37.1816V35.9333C37.1816 36.2644 37.0501 36.5819 36.816 36.816C36.5819 37.0501 36.2644 37.1816 35.9333 37.1816Z" fill="#181A1F"/>
<path d="M26.7633 24.78L23.8933 23.6834L21.9683 21.2917C21.8513 21.1478 21.7036 21.0318 21.5361 20.9522C21.3686 20.8725 21.1855 20.8312 21 20.8312C20.8145 20.8312 20.6314 20.8725 20.4639 20.9522C20.2964 21.0318 20.1487 21.1478 20.0317 21.2917L18.1067 23.6834L15.2367 24.78C15.0637 24.8472 14.9079 24.9521 14.7806 25.087C14.6533 25.222 14.5577 25.3836 14.5007 25.5602C14.4437 25.7367 14.4268 25.9238 14.4512 26.1077C14.4756 26.2916 14.5406 26.4677 14.6417 26.6234L16.3333 29.1667L16.485 32.235C16.4947 32.4208 16.5459 32.6021 16.6347 32.7656C16.7235 32.9291 16.8477 33.0707 16.9983 33.18C17.1506 33.2875 17.3243 33.3609 17.5075 33.3951C17.6907 33.4294 17.8792 33.4236 18.06 33.3784L21 32.5967L23.9633 33.4017C24.1446 33.4491 24.3342 33.455 24.5181 33.4191C24.702 33.3833 24.8754 33.3064 25.0256 33.1944C25.1758 33.0823 25.2988 32.9379 25.3855 32.7718C25.4722 32.6057 25.5205 32.4223 25.5267 32.235L25.6667 29.1667L27.3467 26.5884C27.4477 26.4327 27.5127 26.2566 27.5371 26.0727C27.5615 25.8888 27.5446 25.7017 27.4876 25.5252C27.4306 25.3486 27.335 25.187 27.2077 25.052C27.0804 24.9171 26.9246 24.8122 26.7517 24.745L26.7633 24.78ZM23.415 28.1167C23.2955 28.3017 23.2271 28.515 23.2167 28.735L23.1233 30.6017L21.3267 30.1117C21.1127 30.0542 20.8873 30.0542 20.6733 30.1117L18.8767 30.6017L18.7833 28.735C18.7729 28.515 18.7045 28.3017 18.585 28.1167L17.57 26.5534L19.3083 25.8884C19.5143 25.8087 19.6955 25.6759 19.8333 25.5034L21 24.045L22.1667 25.5034C22.3045 25.6759 22.4857 25.8087 22.6917 25.8884L24.43 26.5534L23.415 28.1167Z" fill="#181A1F"/>
</svg>
