<svg width="13" height="14" viewBox="0 0 13 14" fill="none" xmlns="http://www.w3.org/2000/svg">
<path fill-rule="evenodd" clip-rule="evenodd" d="M5.06576 1.33264C5.64278 1.33264 6.20683 1.50374 6.68655 1.8243C7.16627 2.14486 7.54009 2.60046 7.76073 3.13347C7.98137 3.66648 8.0389 4.25293 7.92604 4.81864C7.81319 5.38434 7.53502 5.90387 7.12673 6.31148C6.71844 6.7191 6.19839 6.99649 5.63236 7.10855C5.06634 7.22061 4.47978 7.16231 3.94691 6.94103C3.41404 6.71975 2.95879 6.34542 2.63878 5.86542C2.31877 5.38542 2.14837 4.82131 2.14914 4.24447C2.14914 3.47117 2.45643 2.72954 3.0034 2.18273C3.55037 1.63593 4.29222 1.32874 5.06576 1.32874V1.33264Z" fill="#E8EDED"/>
<path fill-rule="evenodd" clip-rule="evenodd" d="M9.33331 11.9183C9.37079 12.0414 9.37919 12.1714 9.35784 12.2983C9.33649 12.4252 9.28599 12.5454 9.2103 12.6494C9.1346 12.7535 9.03579 12.8385 8.92163 12.8979C8.80748 12.9573 8.68109 12.9894 8.55242 12.9917H1.60252C1.47385 12.9894 1.34747 12.9573 1.23331 12.8979C1.11915 12.8385 1.02034 12.7535 0.944647 12.6494C0.868955 12.5454 0.818449 12.4252 0.797104 12.2983C0.775758 12.1714 0.784155 12.0414 0.821634 11.9183L1.21208 10.6068C1.36656 10.0923 1.68284 9.64127 2.11398 9.32065C2.54511 9.00003 3.06815 8.82689 3.6055 8.8269H6.54944C7.08679 8.82689 7.60983 9.00003 8.04097 9.32065C8.47211 9.64127 8.78838 10.0923 8.94287 10.6068L9.33331 11.9183Z" fill="#E8EDED"/>
<path fill-rule="evenodd" clip-rule="evenodd" d="M8.13465 1.33264C8.7115 1.33264 9.2754 1.50365 9.75503 1.82403C10.2347 2.14442 10.6085 2.59979 10.8293 3.13257C11.05 3.66535 11.1078 4.25161 10.9952 4.8172C10.8827 5.3828 10.6049 5.90233 10.197 6.3101C9.78911 6.71788 9.26942 6.99557 8.70365 7.10808C8.13788 7.22058 7.55145 7.16284 7.01851 6.94216C6.48557 6.72147 6.03005 6.34775 5.70957 5.86827C5.38909 5.38878 5.21803 4.82505 5.21803 4.24837C5.21803 3.47507 5.52532 2.73344 6.07229 2.18664C6.61926 1.63983 7.36111 1.33264 8.13465 1.33264Z" fill="#181A1F"/>
<path fill-rule="evenodd" clip-rule="evenodd" d="M12.3944 11.9183C12.4319 12.0414 12.4403 12.1714 12.4189 12.2983C12.3976 12.4252 12.3471 12.5454 12.2714 12.6494C12.1957 12.7535 12.0969 12.8385 11.9827 12.8979C11.8686 12.9573 11.7422 12.9894 11.6135 12.9917H4.67532C4.54665 12.9894 4.42027 12.9573 4.30611 12.8979C4.19195 12.8385 4.09314 12.7535 4.01745 12.6494C3.94176 12.5454 3.89125 12.4252 3.8699 12.2983C3.84856 12.1714 3.85695 12.0414 3.89443 11.9183L4.28488 10.6068C4.43936 10.0923 4.75564 9.64127 5.18678 9.32065C5.61792 9.00003 6.14095 8.82689 6.6783 8.8269H9.62224C10.1596 8.82689 10.6826 9.00003 11.1138 9.32065C11.5449 9.64127 11.8612 10.0923 12.0157 10.6068L12.4061 11.9183H12.3944Z" fill="#181A1F"/>
<path d="M11.5979 13.4055H4.67537C4.48041 13.4058 4.28808 13.3605 4.11377 13.2732C3.93946 13.1859 3.788 13.059 3.67151 12.9027C3.55502 12.7464 3.47673 12.5651 3.44291 12.3731C3.40908 12.1812 3.42066 11.984 3.47671 11.7973L3.86715 10.4858C4.04475 9.88414 4.41296 9.35637 4.9164 8.98189C5.41985 8.60741 6.03131 8.40647 6.65883 8.40929H9.60277C10.2303 8.40647 10.8417 8.60741 11.3452 8.98189C11.8486 9.35637 12.2169 9.88414 12.3944 10.4858L12.7849 11.7973C12.8407 11.983 12.8524 12.1792 12.8192 12.3703C12.786 12.5613 12.7088 12.742 12.5936 12.898C12.4784 13.0541 12.3285 13.1812 12.1557 13.2692C11.9829 13.3573 11.7919 13.4039 11.5979 13.4055ZM6.66273 9.24068C6.21432 9.23843 5.7773 9.38185 5.41747 9.64935C5.05764 9.91685 4.79447 10.294 4.66756 10.7239L4.27712 12.0354C4.25916 12.0968 4.25554 12.1615 4.26656 12.2245C4.27758 12.2876 4.30293 12.3472 4.34065 12.3989C4.37838 12.4506 4.42748 12.4929 4.48416 12.5226C4.54084 12.5523 4.60359 12.5685 4.66756 12.5702H11.5979C11.6619 12.5685 11.7247 12.5523 11.7813 12.5226C11.838 12.4929 11.8871 12.4506 11.9248 12.3989C11.9626 12.3472 11.9879 12.2876 11.9989 12.2245C12.01 12.1615 12.0063 12.0968 11.9884 12.0354L11.5979 10.7239C11.471 10.294 11.2079 9.91685 10.848 9.64935C10.4882 9.38185 10.0512 9.23843 9.60277 9.24068H6.66273ZM2.43422 13.4055H1.60258C1.40762 13.4058 1.21529 13.3605 1.04098 13.2732C0.866668 13.1859 0.71521 13.059 0.59872 12.9027C0.48223 12.7464 0.403941 12.5651 0.370115 12.3731C0.336289 12.1812 0.347865 11.984 0.403916 11.7973L0.79436 10.4858C0.972138 9.8835 1.34094 9.35526 1.84517 8.98071C2.34941 8.60617 2.96176 8.40562 3.58994 8.40929C3.64793 8.40367 3.70646 8.41023 3.76176 8.42856C3.81707 8.44689 3.86792 8.47659 3.91106 8.51574C3.95421 8.55488 3.98868 8.60262 4.01227 8.65588C4.03587 8.70914 4.04805 8.76674 4.04805 8.82499C4.04805 8.88323 4.03587 8.94084 4.01227 8.9941C3.98868 9.04735 3.95421 9.09509 3.91106 9.13424C3.86792 9.17339 3.81707 9.20308 3.76176 9.22141C3.70646 9.23974 3.64793 9.24631 3.58994 9.24068C3.14152 9.23843 2.70451 9.38185 2.34468 9.64935C1.98485 9.91685 1.72167 10.294 1.59477 10.7239L1.20433 12.0354C1.18636 12.0968 1.18275 12.1615 1.19377 12.2245C1.20478 12.2876 1.23013 12.3472 1.26786 12.3989C1.30559 12.4506 1.35469 12.4929 1.41137 12.5226C1.46805 12.5523 1.5308 12.5685 1.59477 12.5702H2.43422C2.49222 12.5645 2.55074 12.5711 2.60605 12.5894C2.66135 12.6078 2.71221 12.6375 2.75535 12.6766C2.79849 12.7158 2.83297 12.7635 2.85656 12.8167C2.88015 12.87 2.89234 12.9276 2.89234 12.9859C2.89234 13.0441 2.88015 13.1017 2.85656 13.155C2.83297 13.2082 2.79849 13.256 2.75535 13.2951C2.71221 13.3343 2.66135 13.3639 2.60605 13.3823C2.55074 13.4006 2.49222 13.4072 2.43422 13.4016V13.4055ZM8.1347 7.5779C7.476 7.5779 6.83208 7.38263 6.28438 7.01678C5.73669 6.65093 5.30981 6.13094 5.05774 5.52256C4.80566 4.91418 4.7397 4.24473 4.86821 3.59887C4.99672 2.95302 5.31392 2.35976 5.77969 1.89413C6.24547 1.42849 6.83891 1.11139 7.48496 0.982922C8.13101 0.854453 8.80066 0.920388 9.40923 1.17239C10.0178 1.42439 10.5379 1.85114 10.9039 2.39866C11.2699 2.94619 11.4652 3.58991 11.4652 4.24842C11.4642 5.13114 11.1129 5.9774 10.4886 6.60158C9.86421 7.22575 9.01769 7.57686 8.1347 7.5779ZM8.1347 1.75034C7.64048 1.75034 7.15735 1.89685 6.74642 2.17134C6.33549 2.44584 6.01521 2.83598 5.82608 3.29245C5.63694 3.74891 5.58746 4.25119 5.68388 4.73577C5.7803 5.22035 6.01829 5.66547 6.36776 6.01483C6.71723 6.3642 7.16248 6.60212 7.6472 6.6985C8.13193 6.79489 8.63437 6.74542 9.09097 6.55635C9.54757 6.36728 9.93784 6.04709 10.2124 5.63628C10.487 5.22547 10.6335 4.7425 10.6335 4.24842C10.6335 3.58553 10.3704 2.94973 9.90189 2.48063C9.43338 2.01153 8.7978 1.74747 8.1347 1.74644V1.75034ZM4.51529 7.52716H4.4372C3.67666 7.38029 2.991 6.9733 2.49794 6.37607C2.00489 5.77884 1.73521 5.02864 1.73521 4.25428C1.73521 3.47991 2.00489 2.72971 2.49794 2.13248C2.991 1.53525 3.67666 1.12826 4.4372 0.981399C4.5436 0.966147 4.65179 0.992479 4.73927 1.05492C4.82675 1.11737 4.88678 1.21111 4.9069 1.31667C4.92701 1.42223 4.90565 1.53148 4.84726 1.6217C4.78887 1.71192 4.69794 1.77616 4.59338 1.80108C4.02069 1.90862 3.5036 2.21286 3.13154 2.66117C2.75948 3.10949 2.55584 3.6737 2.55584 4.25623C2.55584 4.83875 2.75948 5.40296 3.13154 5.85128C3.5036 6.2996 4.02069 6.60384 4.59338 6.71138C4.68602 6.73877 4.7663 6.79742 4.82055 6.87734C4.8748 6.95725 4.89967 7.05349 4.89092 7.14968C4.88217 7.24586 4.84035 7.33604 4.77258 7.40487C4.7048 7.47369 4.61526 7.51691 4.51919 7.52716H4.51529Z" fill="#181A1F"/>
</svg>
