<svg width="42" height="42" viewBox="0 0 42 42" fill="none" xmlns="http://www.w3.org/2000/svg">
<g clip-path="url(#clip0_141_6049)">
<path d="M21.7612 23.8088H20.2387C20.0038 23.8088 19.7784 23.7154 19.6123 23.5493C19.4461 23.3831 19.3528 23.1578 19.3528 22.9228C19.3528 22.6878 19.4461 22.4625 19.6123 22.2964C19.7784 22.1302 20.0038 22.0369 20.2387 22.0369H23.7431C23.9381 22.0558 24.1348 22.0337 24.3207 21.9721C24.5066 21.9104 24.6776 21.8106 24.8226 21.6789C24.9676 21.5473 25.0835 21.3868 25.1628 21.2077C25.2421 21.0286 25.2831 20.8349 25.2831 20.6391C25.2831 20.4432 25.2421 20.2495 25.1628 20.0704C25.0835 19.8913 24.9676 19.7308 24.8226 19.5992C24.6776 19.4675 24.5066 19.3677 24.3207 19.3061C24.1348 19.2444 23.9381 19.2223 23.7431 19.2413H22.4306V18.5194C22.3969 18.172 22.2351 17.8497 21.9767 17.6151C21.7183 17.3805 21.3818 17.2506 21.0328 17.2506C20.6838 17.2506 20.3473 17.3805 20.0889 17.6151C19.8305 17.8497 19.6687 18.172 19.635 18.5194V19.3069C18.7263 19.4621 17.9091 19.9532 17.3456 20.6828C16.782 21.4123 16.5132 22.327 16.5925 23.2455C16.6718 24.1639 17.0934 25.0191 17.7736 25.6412C18.4539 26.2634 19.3431 26.6072 20.265 26.6044H21.7875C22.0225 26.6044 22.2478 26.6977 22.414 26.8639C22.5801 27.03 22.6734 27.2553 22.6734 27.4903C22.6734 27.7253 22.5801 27.9506 22.414 28.1168C22.2478 28.2829 22.0225 28.3763 21.7875 28.3763H18.2569C18.0619 28.3573 17.8652 28.3794 17.6793 28.4411C17.4934 28.5027 17.3224 28.6025 17.1774 28.7342C17.0324 28.8658 16.9165 29.0263 16.8372 29.2054C16.7579 29.3845 16.7169 29.5782 16.7169 29.7741C16.7169 29.9699 16.7579 30.1636 16.8372 30.3427C16.9165 30.5218 17.0324 30.6823 17.1774 30.8139C17.3224 30.9456 17.4934 31.0454 17.6793 31.1071C17.8652 31.1687 18.0619 31.1908 18.2569 31.1719H19.5694V31.8938C19.6031 32.2411 19.7649 32.5635 20.0233 32.798C20.2817 33.0326 20.6182 33.1625 20.9672 33.1625C21.3162 33.1625 21.6527 33.0326 21.9111 32.798C22.1695 32.5635 22.3313 32.2411 22.365 31.8938V31.1063C23.2737 30.951 24.0909 30.4599 24.6544 29.7304C25.218 29.0008 25.4868 28.0861 25.4075 27.1676C25.3282 26.2492 24.9066 25.3941 24.2264 24.7719C23.5461 24.1497 22.6569 23.806 21.735 23.8088H21.7612Z" fill="#181A1F"/>
<path d="M26.3288 9.30562L25.4363 6.23437C25.2672 5.66514 24.922 5.16415 24.4504 4.80335C23.9787 4.44255 23.4049 4.24051 22.8113 4.22625H22.4569C22.4557 4.04138 22.491 3.85811 22.5609 3.68693C22.6307 3.51576 22.7336 3.36005 22.8638 3.22875C22.9845 3.08858 23.1365 2.97873 23.3075 2.90806C23.4785 2.83739 23.6637 2.80787 23.8481 2.82187H26.6306C27.3768 2.82534 28.0911 3.12418 28.6175 3.65301C29.1439 4.18184 29.4394 4.89761 29.4394 5.64375C29.4731 5.9911 29.6349 6.31347 29.8933 6.54802C30.1517 6.78258 30.4882 6.91252 30.8372 6.91252C31.1862 6.91252 31.5227 6.78258 31.7811 6.54802C32.0395 6.31347 32.2013 5.9911 32.235 5.64375C32.2367 4.90322 32.0924 4.16962 31.8102 3.48497C31.528 2.80032 31.1135 2.17805 30.5905 1.65381C30.0675 1.12956 29.4462 0.713642 28.7622 0.429856C28.0782 0.14607 27.3449 -3.92125e-06 26.6044 -1.90939e-06H23.7956C23.245 -0.00293715 22.6993 0.103443 22.1901 0.312973C21.681 0.522502 21.2184 0.831013 20.8294 1.22062C20.0405 2.01165 19.5969 3.08284 19.5956 4.2H19.2413C18.6476 4.21426 18.0738 4.4163 17.6021 4.7771C17.1305 5.1379 16.7853 5.63889 16.6163 6.20812L15.7238 9.27937C11.9467 10.5455 8.74298 13.1135 6.68522 16.5245C4.62747 19.9355 3.84981 23.9671 4.49123 27.8988C5.13264 31.8304 7.15134 35.4058 10.1865 37.9859C13.2217 40.566 17.0754 41.9827 21.0591 41.9827C25.0427 41.9827 28.8965 40.566 31.9316 37.9859C34.9668 35.4058 36.9855 31.8304 37.6269 27.8988C38.2683 23.9671 37.4907 19.9355 35.4329 16.5245C33.3752 13.1135 30.1714 10.5455 26.3944 9.27937L26.3288 9.30562ZM19.2413 7.02187H22.7456L23.3231 9.00375H18.6769L19.2413 7.02187ZM21 39.2044C17.6487 39.1843 14.4159 37.9619 11.8898 35.7596C9.36358 33.5573 7.71184 30.5214 7.235 27.2041C6.75815 23.8868 7.48787 20.5086 9.29143 17.6839C11.095 14.8592 13.8525 12.7758 17.0625 11.8125H24.9375C28.1475 12.7758 30.905 14.8592 32.7086 17.6839C34.5121 20.5086 35.2419 23.8868 34.765 27.2041C34.2882 30.5214 32.6364 33.5573 30.1103 35.7596C27.5841 37.9619 24.3513 39.1843 21 39.2044Z" fill="#181A1F"/>
<path d="M32.6025 9.41063L33.9937 10.815C34.2586 11.0739 34.6143 11.2189 34.9847 11.2189C35.3551 11.2189 35.7108 11.0739 35.9756 10.815C36.2377 10.5518 36.3848 10.1955 36.3848 9.82407C36.3848 9.45264 36.2377 9.09633 35.9756 8.83313L34.5844 7.44188C34.3163 7.20665 33.9688 7.08221 33.6123 7.09382C33.2559 7.10544 32.9172 7.25223 32.665 7.50441C32.4128 7.75659 32.2661 8.09528 32.2544 8.45173C32.2428 8.80818 32.3673 9.1557 32.6025 9.42376V9.41063Z" fill="#181A1F"/>
<path d="M34.2956 6.32625C34.4784 6.32641 34.6594 6.29056 34.8283 6.22075C34.9972 6.15093 35.1507 6.04853 35.28 5.91937L36.6844 4.515C36.8288 4.38828 36.9457 4.23327 37.0278 4.05957C37.1099 3.88588 37.1555 3.69718 37.1617 3.50516C37.168 3.31313 37.1348 3.12187 37.0641 2.94319C36.9935 2.76452 36.887 2.60224 36.7511 2.46639C36.6153 2.33053 36.453 2.224 36.2743 2.15338C36.0956 2.08275 35.9044 2.04954 35.7124 2.0558C35.5203 2.06205 35.3316 2.10764 35.1579 2.18975C34.9842 2.27185 34.8292 2.38872 34.7025 2.53312L33.2981 3.9375C33.1052 4.13381 32.9741 4.3825 32.9214 4.65266C32.8686 4.92283 32.8963 5.20255 33.0012 5.45705C33.1061 5.71156 33.2835 5.92964 33.5113 6.08417C33.7391 6.23871 34.0073 6.32289 34.2825 6.32625H34.2956Z" fill="#181A1F"/>
</g>
<defs>
<clipPath id="clip0_141_6049">
<rect width="42" height="42" fill="white"/>
</clipPath>
</defs>
</svg>
