<svg width="28" height="56" viewBox="0 0 28 56" fill="none" xmlns="http://www.w3.org/2000/svg">
<path d="M26.0929 56H1.90783C1.29327 56 0.794922 55.5018 0.794922 54.8871V48.5514C0.794922 48.2458 0.92064 47.9537 1.14247 47.7435L8.45138 40.8204L5.7038 14.2833C5.18391 9.26904 6.18635 4.95064 8.45414 2.43549C9.89085 0.842248 11.8081 0 13.9987 0C16.1908 0 18.1093 0.842469 19.5465 2.4366C21.8142 4.95163 22.8168 9.26959 22.2969 14.2834L19.5494 40.8265L26.8579 47.7431C27.0799 47.9534 27.2058 48.2457 27.2058 48.5514V54.8871C27.2058 55.5018 26.7074 56 26.0929 56ZM3.02074 53.7743H24.9798V49.0307L17.6208 42.0661C17.3697 41.8284 17.2432 41.4872 17.2787 41.1432L20.0828 14.0542C20.5378 9.66597 19.7399 5.97495 17.8935 3.92721C16.8756 2.79829 15.5652 2.22593 13.9987 2.22593C12.4337 2.22593 11.1244 2.79796 10.1072 3.92622C8.26071 5.97417 7.46265 9.66564 7.9178 14.0541L10.7218 41.1368C10.7574 41.4807 10.6312 41.8216 10.3801 42.0595L3.02074 49.0305V53.7743Z" fill="black"/>
</svg>
