<svg width="24" height="24" viewBox="0 0 24 24" fill="none" xmlns="http://www.w3.org/2000/svg">
<path d="M21.1629 9.58228L4.97562 0.369445C3.25854 -0.610831 1.50793 0.461247 1.50793 2.38907V21.6218C1.50793 23.2551 2.57123 23.9998 3.55949 23.9998C4.02488 23.9998 4.49905 23.853 4.97003 23.5664L21.23 13.6136C22.0474 13.1114 22.5064 12.3682 22.4921 11.574C22.4785 10.7789 21.9947 10.0525 21.1629 9.58228ZM20.1404 11.8358L3.88119 21.7862C3.77183 21.8533 3.68562 21.8868 3.62654 21.9036C3.61058 21.8445 3.59461 21.7535 3.59461 21.6218V2.38987C3.59461 2.1919 3.63054 2.09211 3.63054 2.06737C3.6944 2.07136 3.80615 2.10409 3.94665 2.18391L20.1316 11.3968C20.3312 11.5109 20.3902 11.6099 20.4094 11.5883C20.399 11.6155 20.3312 11.7169 20.1404 11.8358Z" fill="#181A1F"/>
</svg>
