<svg width="56" height="59" viewBox="0 0 56 59" fill="none" xmlns="http://www.w3.org/2000/svg">
<path fill-rule="evenodd" clip-rule="evenodd" d="M26.6758 4.01595C22.8707 3.98773 19.1084 4.81976 15.67 6.44988C12.2316 8.08 9.20609 10.4661 6.81944 13.4298C6.48695 13.816 6.01716 14.0575 5.50961 14.1033C5.00207 14.1491 4.49664 13.9954 4.10044 13.6749C3.70423 13.3544 3.44838 12.8923 3.38708 12.3863C3.32579 11.8804 3.46388 11.3705 3.77208 10.9647C6.52908 7.54211 10.0237 4.7866 13.995 2.90396C17.9662 1.02132 22.3115 0.0601994 26.7063 0.0923777C42.8831 0.20329 55.8905 13.4714 55.7768 29.7064C55.6659 45.9386 42.4755 59.0237 26.2959 58.91C18.7997 58.8645 11.6099 55.9296 6.22327 50.7162C4.18378 48.7482 2.43838 46.4966 1.04082 44.0309C0.784169 43.5786 0.717691 43.0429 0.856014 42.5416C0.994337 42.0403 1.32613 41.6145 1.7784 41.3579C2.23068 41.1012 2.76638 41.0347 3.26767 41.1731C3.76896 41.3114 4.19477 41.6432 4.45143 42.0955C5.66337 44.234 7.17719 46.1868 8.94621 47.8935C13.6083 52.409 19.8334 54.9509 26.3236 54.9892C40.3182 55.0862 51.7562 43.7647 51.856 29.6786C51.9558 15.5926 40.6703 4.113 26.6758 4.01595Z" fill="white"/>
</svg>
