<svg width="296" height="90" viewBox="0 0 296 90" fill="none" xmlns="http://www.w3.org/2000/svg">
<path d="M85.435 0H195.435C203.719 0 210.435 6.71573 210.435 15V50H100.435C92.1507 50 85.435 43.2843 85.435 35V0Z" fill="white"/>
<g filter="url(#filter0_d_264_5831)">
<path d="M107.936 26.1886C106.231 26.1895 104.565 26.6959 103.148 27.6438C101.731 28.5917 100.627 29.9385 99.9755 31.5139C99.3239 33.0893 99.1541 34.8225 99.4876 36.4944C99.8211 38.1662 100.643 39.7017 101.849 40.9065C103.055 42.1113 104.591 42.9314 106.264 43.2631C107.936 43.5948 109.669 43.4232 111.244 42.7699C112.818 42.1167 114.164 41.0111 115.11 39.5931C116.057 38.1751 116.561 36.5083 116.56 34.8035C116.563 33.6707 116.341 32.5486 115.909 31.5017C115.476 30.4547 114.841 29.5036 114.039 28.7031C113.238 27.9025 112.286 27.2682 111.239 26.8367C110.191 26.4051 109.069 26.1849 107.936 26.1886ZM107.936 41.5641C106.598 41.566 105.289 41.1709 104.175 40.4288C103.062 39.6868 102.193 38.6311 101.68 37.3954C101.166 36.1596 101.03 34.7993 101.29 33.4865C101.55 32.1737 102.193 30.9673 103.138 30.0201C104.083 29.0728 105.288 28.4272 106.601 28.1649C107.913 27.9026 109.273 28.0353 110.51 28.5464C111.747 29.0575 112.805 29.9238 113.549 31.036C114.293 32.1481 114.691 33.456 114.692 34.7942C114.696 35.6817 114.525 36.5613 114.189 37.3825C113.852 38.2037 113.356 38.9502 112.73 39.5793C112.104 40.2084 111.36 40.7076 110.541 41.0482C109.721 41.3888 108.842 41.5641 107.955 41.5641H107.936Z" fill="#588A87"/>
<path d="M186.763 26.1888C185.058 26.1888 183.391 26.6945 181.973 27.6418C180.556 28.5891 179.451 29.9356 178.799 31.5109C178.146 33.0862 177.976 34.8196 178.309 36.4917C178.642 38.1639 179.463 39.6998 180.669 40.9051C181.875 42.1103 183.412 42.9309 185.084 43.263C186.756 43.595 188.489 43.4237 190.064 42.7706C191.639 42.1175 192.985 41.0119 193.932 39.5938C194.878 38.1757 195.383 36.5088 195.382 34.8038C195.384 33.6715 195.162 32.5501 194.73 31.5037C194.297 30.4574 193.662 29.5067 192.861 28.7063C192.061 27.9059 191.11 27.2715 190.063 26.8395C189.016 26.4075 187.895 26.1863 186.763 26.1888ZM186.763 41.5643C185.424 41.5671 184.115 41.1728 183.001 40.4313C181.886 39.6898 181.017 38.6345 180.503 37.3988C179.989 36.1632 179.852 34.8027 180.111 33.4896C180.37 32.1764 181.013 30.9697 181.958 30.022C182.903 29.0742 184.108 28.4282 185.421 28.1655C186.733 27.9028 188.094 28.0353 189.331 28.5462C190.568 29.0571 191.626 29.9235 192.37 31.0357C193.115 32.1479 193.513 33.456 193.514 34.7944C193.518 35.6814 193.346 36.5603 193.01 37.3809C192.673 38.2015 192.178 38.9476 191.552 39.5765C190.927 40.2054 190.184 40.7047 189.365 41.0458C188.546 41.3869 187.668 41.5631 186.781 41.5643H186.763Z" fill="#588A87"/>
<path d="M197.949 22.0701C192.889 15.3002 177.449 15.5472 174.369 15.3142C165.689 14.6013 159.222 5.83264 140.962 5.83264C122.702 5.83264 115.802 10.8833 113.258 11.9782C111.273 12.8308 102.076 13.8419 98.1619 14.2333C98.0993 14.2417 98.0419 14.2725 98.0003 14.3201C97.9587 14.3676 97.9358 14.4287 97.9358 14.4918C97.9358 14.555 97.9587 14.6161 98.0003 14.6636C98.0419 14.7112 98.0993 14.742 98.1619 14.7504L102.155 15.5518C122.861 20.1831 160.251 18.8133 176.498 18.8133C192.745 18.8133 197.553 23.0066 197.553 23.0066L198.769 23.398C198.519 22.9414 198.245 22.4982 197.949 22.0701ZM117.041 15.5472C123.42 6.47562 138.739 7.03473 138.739 7.03473L139.816 15.6683L117.041 15.5472ZM142.173 15.5891L141.116 7.03473C141.116 7.03473 157.456 7.13257 165.539 16.26L142.173 15.5891Z" fill="#588A87"/>
<path d="M98.9539 17.0686C100.226 17.4879 101.498 17.9165 102.779 18.3266C109.533 20.5068 116.436 22.1948 123.434 23.3772C129.48 24.4251 135.603 24.9752 141.74 25.0219C145.108 25.0219 148.472 24.8262 151.836 24.6445C154.632 24.4908 157.386 24.2392 160.158 24.0062C162.93 23.7732 165.749 23.4844 168.544 23.2514C174.364 22.7041 180.209 22.4708 186.054 22.5525C188.895 22.5933 191.718 23.026 194.441 23.8385C195.59 24.1873 196.687 24.6887 197.702 25.3294C197.423 25.0825 197.157 24.8169 196.859 24.5979C195.229 23.4819 193.413 22.6676 191.496 22.1937C188.638 21.4253 185.703 20.9768 182.746 20.8565C178.187 20.6062 173.618 20.586 169.057 20.796C166.727 20.8891 164.398 21.0522 162.068 21.1967C159.086 21.3737 156.104 21.5787 153.122 21.7511C150.14 21.9235 147.065 22.1565 144.046 22.217C140.677 22.2683 137.304 22.217 133.945 22.0633C131.005 21.9282 128.074 21.6486 125.148 21.3178C121.78 20.9357 118.406 20.5211 115.061 19.9573C109.731 19.0254 104.419 18.0097 99.0983 17.0266C99.0549 17.022 99.0112 17.022 98.9678 17.0266L98.9539 17.0686Z" fill="#588A87"/>
<path d="M99.2037 17.6293C105.475 20.164 118.698 23.3835 118.731 23.3928C115.6 23.1552 114.603 23.0853 112.557 22.7638C110.464 22.4576 108.407 21.9425 106.416 21.2263C103.904 20.2575 101.489 19.0531 99.2037 17.6293Z" fill="#588A87"/>
<path d="M167.505 39.4497L175.142 35.8621L123.978 36.6402L167.505 39.4497Z" fill="#588A87"/>
<path d="M118.734 38.0336L122.023 36.361L166.058 36.9993L161.18 39.45L118.734 38.0336Z" fill="#588A87" stroke="white" stroke-width="0.2" stroke-miterlimit="10"/>
<path d="M149.971 34.1897L148.499 30.4996C148.252 29.8845 148.252 29.8985 147.567 29.8799C147.471 29.8673 147.374 29.8916 147.295 29.9478C147.217 30.004 147.162 30.088 147.143 30.1827C146.879 30.8909 146.609 31.5945 146.332 32.2934L145.517 34.3714L144.096 32.3959L144.24 32.3493C144.522 32.2814 144.767 32.1098 144.928 31.8689C145.089 31.628 145.153 31.3353 145.107 31.0494C145.115 30.763 145.009 30.4852 144.812 30.2766C144.616 30.068 144.345 29.9455 144.059 29.9358C143.187 29.8752 142.311 29.9358 141.431 29.9358V34.4273H142.335V32.5636C142.538 32.5117 142.753 32.5262 142.947 32.605C143.142 32.6838 143.306 32.8228 143.416 33.0016C143.686 33.4256 143.97 33.8449 144.268 34.2503C144.34 34.3489 144.447 34.4158 144.567 34.4366C145.14 34.4366 145.708 34.4366 146.281 34.4366C146.338 34.4273 146.391 34.4047 146.437 34.3707C146.484 34.3366 146.521 34.2922 146.547 34.2409C146.682 33.98 146.705 33.5886 146.91 33.4582C147.115 33.3277 147.502 33.4069 147.805 33.4069C148.657 33.4069 148.657 33.4069 148.965 34.2083C148.965 34.2456 148.965 34.3015 149.011 34.3295C149.058 34.3574 149.123 34.4413 149.179 34.4413C149.459 34.4413 149.738 34.4413 150.046 34.4413C150.027 34.3062 149.995 34.2503 149.971 34.1897ZM143.798 31.7296C143.332 31.7902 142.866 31.7995 142.335 31.8274V30.6952C142.829 30.6952 143.313 30.6673 143.798 30.6952C144.04 30.6952 144.161 30.9282 144.166 31.1612C144.17 31.3941 144.073 31.6923 143.798 31.7296ZM147.157 32.5916L147.749 30.9655C147.963 31.5479 148.15 32.0511 148.345 32.5916H147.157Z" fill="#588A87"/>
<path d="M122.473 32.097C122.421 32.0691 122.375 32.0318 122.319 31.9945C122.813 31.5286 122.971 31.1186 122.785 30.648C122.707 30.4284 122.562 30.2388 122.371 30.1059C122.179 29.973 121.951 29.9035 121.718 29.9072C120.921 29.8746 120.12 29.9072 119.295 29.9072V34.3707C120.227 34.3707 121.117 34.3707 122.011 34.3707C122.271 34.3469 122.515 34.2359 122.704 34.0557C122.893 33.8755 123.015 33.6368 123.05 33.3783C123.119 33.1309 123.099 32.8673 122.993 32.6333C122.887 32.3993 122.703 32.2096 122.473 32.097ZM120.208 30.676C120.674 30.676 121.14 30.676 121.569 30.676C121.839 30.676 121.955 30.9043 121.951 31.1419C121.951 31.2655 121.902 31.384 121.814 31.4714C121.727 31.5587 121.608 31.6078 121.485 31.6078C121.07 31.6311 120.656 31.6078 120.218 31.6078L120.208 30.676ZM121.606 33.6346C121.14 33.6672 120.674 33.6346 120.208 33.6346V32.4884C120.674 32.4884 121.168 32.4558 121.639 32.4884C121.993 32.521 122.105 32.7307 122.105 33.0895C122.11 33.1584 122.101 33.2277 122.078 33.2931C122.055 33.3584 122.02 33.4185 121.973 33.4695C121.926 33.5206 121.87 33.5615 121.807 33.5899C121.743 33.6183 121.675 33.6335 121.606 33.6346Z" fill="#588A87"/>
<path d="M170.095 32.3968L170.24 32.3455C170.521 32.2776 170.766 32.1059 170.926 31.8648C171.086 31.6237 171.149 31.331 171.102 31.0456C171.11 30.7715 171.011 30.505 170.827 30.3018C170.643 30.0986 170.388 29.9744 170.114 29.9553C169.229 29.8901 168.33 29.9553 167.421 29.9553V34.4235H168.353V32.5598C168.56 32.4989 168.783 32.512 168.982 32.597C169.181 32.6821 169.344 32.8336 169.443 33.0258C169.718 33.4358 169.988 33.8458 170.268 34.2465C170.321 34.3368 170.408 34.4021 170.51 34.4282C170.822 34.4282 171.134 34.4282 171.554 34.4282L170.095 32.3968ZM169.783 31.7305C169.317 31.7957 168.851 31.8004 168.348 31.833V30.6868C168.814 30.6868 169.28 30.6868 169.746 30.6868C170.007 30.6868 170.128 30.9198 170.133 31.1807C170.137 31.4416 170.063 31.6932 169.783 31.7305Z" fill="#588A87"/>
<path d="M154.107 29.9153V34.4208C153.84 34.4347 153.573 34.4347 153.306 34.4208C153.217 34.4208 153.124 34.2857 153.064 34.1925L151.601 31.8162C151.559 31.7464 151.507 31.6811 151.405 31.532V34.4115H150.571V29.8966C150.827 29.878 151.084 29.878 151.34 29.8966C151.437 29.8966 151.54 30.0411 151.605 30.1436C152.108 30.9543 152.602 31.7697 153.096 32.5804C153.129 32.6316 153.166 32.6782 153.25 32.7947V29.9106L154.107 29.9153Z" fill="#588A87"/>
<path d="M137.086 34.4216C136.676 34.4216 136.322 34.4216 135.972 34.4216C135.888 34.4216 135.8 34.2771 135.739 34.1793C135.376 33.5736 135.022 32.9586 134.677 32.3668C133.745 32.8001 133.871 33.6109 133.917 34.4216H132.985V29.9254H133.88V31.7891L133.959 31.817C134.318 31.4257 134.686 31.0436 135.04 30.6476C135.748 29.8555 135.748 29.8508 136.797 29.8974C136.846 29.9051 136.894 29.916 136.941 29.93L135.273 31.6586L137.086 34.4216Z" fill="#588A87"/>
<path d="M166.611 33.639V34.4031H163.205V29.9116H166.536V30.657H164.141V31.6448H166.336V32.4182H164.137V33.639H166.611Z" fill="#588A87"/>
<path d="M158.523 33.3751C158.483 33.6387 158.359 33.8824 158.169 34.0697C157.979 34.257 157.734 34.3778 157.47 34.4141C157.037 34.484 156.597 34.484 156.165 34.4141C155.807 34.3702 155.479 34.1945 155.243 33.9214C155.008 33.6483 154.883 33.2974 154.893 32.9371C155.031 32.9315 155.168 32.9144 155.303 32.8859C155.597 32.802 155.769 32.8486 155.885 33.1794C155.959 33.3165 156.063 33.4352 156.189 33.5264C156.316 33.6175 156.461 33.6789 156.614 33.7058C156.768 33.7327 156.925 33.7245 157.075 33.6817C157.225 33.639 157.363 33.5628 157.479 33.4589C157.532 33.4084 157.572 33.346 157.596 33.2769C157.621 33.2078 157.629 33.134 157.619 33.0614C157.609 32.9888 157.583 32.9194 157.542 32.859C157.5 32.7985 157.445 32.7487 157.381 32.7135C157.11 32.6067 156.833 32.5165 156.552 32.4432C156.257 32.3624 155.969 32.2596 155.69 32.1357C155.478 32.0383 155.301 31.8776 155.184 31.6757C155.067 31.4737 155.016 31.2405 155.037 31.0082C155.039 30.7804 155.111 30.5588 155.244 30.3736C155.376 30.1884 155.563 30.0488 155.778 29.9738C156.083 29.8465 156.411 29.7837 156.741 29.7893C157.072 29.795 157.397 29.8689 157.698 30.0064C157.925 30.1038 158.117 30.2697 158.245 30.481C158.374 30.6923 158.433 30.9385 158.415 31.1852H157.521C157.484 31.0595 157.42 30.9433 157.334 30.8451C157.247 30.7468 157.14 30.6689 157.02 30.6168C156.9 30.5647 156.77 30.5398 156.639 30.5438C156.508 30.5479 156.38 30.5807 156.263 30.6401C156.128 30.696 155.951 30.8684 155.946 30.9942C155.959 31.0756 155.991 31.1525 156.041 31.2183C156.091 31.2841 156.156 31.3368 156.23 31.3716C156.696 31.544 157.162 31.6558 157.628 31.8049C157.791 31.8475 157.944 31.9222 158.077 32.0246C158.211 32.1271 158.323 32.2552 158.406 32.4015C158.489 32.5478 158.543 32.7093 158.563 32.8765C158.583 33.0437 158.569 33.2132 158.523 33.3751Z" fill="#588A87"/>
<path d="M175.41 33.0931C175.416 33.3704 175.333 33.6423 175.172 33.8688C175.012 34.0953 174.784 34.2643 174.52 34.3511C173.945 34.5513 173.32 34.5513 172.745 34.3511C172.45 34.2508 172.195 34.0578 172.019 33.8008C171.842 33.5438 171.754 33.2367 171.766 32.9253L172.591 32.8415C172.917 33.6196 173.407 33.8805 174.05 33.6289C174.169 33.6023 174.276 33.5373 174.354 33.4438C174.432 33.3503 174.478 33.2336 174.483 33.1117C174.483 32.8275 174.301 32.697 174.073 32.6458C173.635 32.506 173.192 32.4035 172.759 32.2544C172.535 32.1898 172.335 32.0616 172.183 31.8854C172.031 31.7092 171.933 31.4927 171.902 31.262C171.856 30.9876 171.91 30.7061 172.054 30.4678C172.197 30.2296 172.421 30.0503 172.684 29.962C173.264 29.7338 173.908 29.7338 174.488 29.962C174.731 30.0519 174.938 30.218 175.079 30.4354C175.22 30.6529 175.287 30.9101 175.27 31.1688H174.385C174.346 31.0415 174.28 30.9244 174.19 30.8257C174.101 30.7271 173.991 30.6494 173.868 30.5983C173.745 30.5471 173.613 30.5236 173.48 30.5297C173.347 30.5357 173.217 30.5709 173.099 30.633C172.969 30.6889 172.806 30.8473 172.801 30.9684C172.808 31.0455 172.835 31.1195 172.878 31.1837C172.921 31.248 172.979 31.3005 173.048 31.3365C173.363 31.4609 173.685 31.5667 174.012 31.6534C174.18 31.7046 174.352 31.7465 174.515 31.8025C174.79 31.882 175.029 32.0537 175.192 32.2888C175.355 32.5238 175.432 32.8079 175.41 33.0931Z" fill="#588A87"/>
<path d="M127.842 34.1798L126.36 30.4524C126.127 29.8746 126.127 29.8886 125.512 29.8653C125.214 29.8653 125.098 29.9585 125 30.2287C124.571 31.3749 124.119 32.5117 123.672 33.6533C123.579 33.8955 123.49 34.1192 123.388 34.4081C123.663 34.4081 123.891 34.4081 124.119 34.4081C124.156 34.4154 124.194 34.4151 124.232 34.4073C124.269 34.3994 124.304 34.3842 124.334 34.3624C124.365 34.3406 124.392 34.3128 124.411 34.2806C124.431 34.2484 124.444 34.2125 124.45 34.1751C124.539 33.9095 124.585 33.5414 124.781 33.4156C124.976 33.2898 125.354 33.3644 125.647 33.3644C126.528 33.3644 126.528 33.3644 126.85 34.1891C126.85 34.217 126.85 34.259 126.882 34.2776C126.915 34.2962 127.013 34.3941 127.078 34.3987C127.353 34.3987 127.623 34.3987 127.921 34.3987C127.889 34.3056 127.87 34.245 127.842 34.1798ZM125.046 32.591C125.237 32.0551 125.424 31.5473 125.633 30.9649C125.852 31.5473 126.034 32.0551 126.234 32.591H125.046Z" fill="#588A87"/>
<path d="M131.45 32.7905L132.163 33.0141C132.108 33.4154 131.912 33.784 131.609 34.0538C131.307 34.3236 130.919 34.4769 130.514 34.4864C129.032 34.561 128.072 33.4521 128.254 31.8679C128.38 30.7544 128.902 30.0555 129.81 29.8691C130.961 29.6315 131.907 30.0648 132.172 31.1318L131.297 31.3461C131.012 30.7357 130.714 30.5494 130.146 30.6053C129.91 30.6248 129.691 30.7309 129.529 30.903C129.367 31.0751 129.275 31.301 129.27 31.5371C129.215 31.9929 129.226 32.4542 129.302 32.9069C129.332 33.1325 129.443 33.3395 129.615 33.4889C129.786 33.6382 130.007 33.7196 130.234 33.7177C130.456 33.7375 130.677 33.6776 130.858 33.5485C131.039 33.4195 131.168 33.23 131.222 33.0141L131.306 32.8044C131.353 32.7947 131.402 32.7901 131.45 32.7905Z" fill="#588A87"/>
<path d="M162.392 30.6646H160.235C160.235 30.9674 160.235 31.219 160.235 31.466C160.235 31.7129 160.304 31.7362 160.5 31.7316C160.929 31.7316 161.357 31.7316 161.786 31.7316C161.893 31.7316 162 31.7316 162.122 31.7316V32.4817H160.258V34.3873H159.345V29.8958H162.387L162.392 30.6646Z" fill="#588A87"/>
<path d="M140.788 29.9182V30.659H139.492V34.405H138.575V30.6823H137.228V29.9182H140.788Z" fill="#588A87"/>
</g>
<path d="M20.2908 80.6842C19.8144 80.3221 19.2884 80.0229 18.7491 79.6723C18.7911 79.577 18.7968 79.5389 18.8177 79.5217C18.919 79.4466 19.0239 79.3767 19.1322 79.3121C20.8034 78.3593 21.8381 76.9949 21.6933 74.9921C21.5465 72.9493 20.2812 71.6307 18.4652 71.0323C16.8818 70.4827 15.2256 70.1712 13.5507 70.1081C9.3012 70.03 5.04983 70.1843 0.796548 70.2263C0.245832 70.2263 0 70.3768 0 70.9771C0.0152447 77.0064 0.0152447 83.0357 0 89.0649C0 89.6557 0.23058 89.8272 0.788919 89.8272C2.50395 89.8272 4.21899 89.8748 5.93402 89.8863C8.88388 89.9053 11.8414 89.993 14.7836 89.8863C16.9007 89.8158 18.9359 89.2727 20.5785 87.7901C22.7947 85.8045 22.6575 82.4887 20.2908 80.6842ZM4.34858 74.1327C4.33333 73.5439 4.49148 73.2904 5.1451 73.2866C7.74433 73.2752 10.3474 73.1285 12.9447 73.1952C14.05 73.2238 15.18 73.5515 16.2299 73.9326C17.0055 74.2147 17.4457 74.9578 17.4248 75.8382C17.4243 76.2413 17.2961 76.6339 17.0585 76.9596C16.8208 77.2852 16.486 77.5271 16.1023 77.6504C15.2786 77.9647 14.4155 78.1635 13.5373 78.2412C12.1806 78.3384 10.8124 78.2679 9.44795 78.2679C8.02066 78.2679 6.58954 78.245 5.16606 78.2793C4.54293 78.2964 4.32762 78.0754 4.34858 77.458C4.38478 76.3527 4.38097 75.2418 4.34858 74.1327ZM16.8531 85.5491C16.0642 86.1037 15.0161 86.5381 14.069 86.5705C11.0334 86.6677 7.99015 86.5705 4.95264 86.4943C4.75064 86.4943 4.3962 86.0979 4.38096 85.875C4.3257 84.5792 4.36954 83.2796 4.34667 81.98C4.34667 81.4083 4.61917 81.2997 5.10891 81.3073C6.59908 81.3244 8.08734 81.3073 9.57561 81.3073V81.3168C10.9381 81.3168 12.3101 81.2139 13.6574 81.3511C14.6911 81.4352 15.6993 81.7152 16.6282 82.1762C18.0307 82.9251 18.147 84.6421 16.8531 85.5491Z" fill="white"/>
<path d="M265.764 83.1042C267.21 82.3172 268.713 81.7322 269.937 80.7851C272.83 78.5479 272.822 74.8644 270.009 72.5224C269.265 71.9325 268.447 71.443 267.576 71.0665C265.874 70.291 264.054 70.0299 262.191 70.0585C258.379 70.1195 254.568 70.2014 250.757 70.2147C249.934 70.2147 249.675 70.4225 249.68 71.2762C249.717 77.1187 249.699 82.9594 249.699 88.8076C249.676 88.9982 249.684 89.1914 249.724 89.3793C249.778 89.5298 249.941 89.749 250.06 89.7509C251.407 89.7757 252.756 89.7661 254.191 89.7661V83.0432C255.098 83.0432 255.915 83.0337 256.733 83.0432C258.126 83.0623 259.719 82.685 260.853 83.2338C261.952 83.7692 262.568 85.2746 263.412 86.3513C264.287 87.4737 264.956 89.0191 266.107 89.5908C267.258 90.1625 268.9 89.7547 270.326 89.7642C270.768 89.7642 271.212 89.7242 271.85 89.6937C270.676 88.4189 269.67 87.3232 268.66 86.2313C267.65 85.1394 266.65 84.0627 265.764 83.1042ZM263.364 79.9066C260.479 79.979 257.592 79.9066 254.707 79.8894C254.54 79.8716 254.376 79.8371 254.216 79.7865V73.8411C254.393 73.7861 254.575 73.7479 254.759 73.7268C257.263 73.6601 259.771 73.5019 262.271 73.5857C263.53 73.6087 264.77 73.9058 265.903 74.4566C268.047 75.5771 267.999 78.0182 265.886 79.1958C265.112 79.6257 264.249 79.8691 263.364 79.9066Z" fill="white"/>
<path d="M131.448 80.7851C134.339 78.5289 134.333 74.8778 131.524 72.5225C130.782 71.9321 129.964 71.4432 129.092 71.0685C127.393 70.291 125.573 70.03 123.709 70.0605C119.934 70.1176 116.159 70.2072 112.382 70.2129C111.477 70.2129 111.197 70.4549 111.203 71.381C111.243 77.1245 111.224 82.868 111.224 88.6114V89.7052H115.685V83.0356C117.754 83.0356 119.715 82.9994 121.674 83.0661C122.15 83.1163 122.589 83.3435 122.905 83.7026C123.743 84.6935 124.475 85.774 125.27 86.8049C126.021 87.7806 126.615 89.0916 127.614 89.6023C128.578 90.094 129.969 89.7491 131.171 89.7643C131.836 89.7643 132.505 89.7643 133.437 89.7643L127.284 83.0947C128.728 82.3172 130.232 81.736 131.448 80.7851ZM125.771 79.7942C122.451 79.8628 119.128 79.8266 115.719 79.8266V73.662C116.798 73.662 117.836 73.6773 118.875 73.662C120.557 73.6335 122.238 73.5687 123.919 73.5515C125.243 73.5382 126.516 73.7726 127.633 74.5405C129.428 75.7753 129.434 77.9096 127.606 79.0892C127.061 79.4379 126.39 79.7809 125.771 79.7942Z" fill="white"/>
<path d="M178.678 85.5758V84.4419C178.678 80.0591 178.703 75.6762 178.659 71.3029C178.659 70.4435 178.92 70.171 179.743 70.2586C180.313 70.3246 180.888 70.3246 181.458 70.2586C182.379 70.1424 182.55 70.5502 182.544 71.3848C182.51 76.5909 182.527 81.7951 182.527 87.0012V89.7585C180.303 89.7585 178.186 89.7852 176.073 89.7242C175.801 89.7242 175.501 89.2783 175.282 88.983C171.979 84.3587 168.685 79.7319 165.4 75.1026C165.163 74.773 164.786 74.5443 164.476 74.268L164.197 74.449V89.7624C162.987 89.7624 161.888 89.7948 160.796 89.7281C160.63 89.7185 160.371 89.2517 160.361 88.9906C160.318 87.6567 160.34 86.3228 160.34 84.9888C160.34 80.4154 160.358 75.842 160.325 71.2781C160.325 70.5044 160.516 70.2205 161.328 70.2491C162.943 70.3101 164.567 70.2967 166.183 70.2491C166.461 70.2237 166.741 70.2777 166.99 70.4048C167.239 70.532 167.447 70.7271 167.589 70.9675C170.878 75.6756 174.186 80.3703 177.514 85.0517C177.729 85.3547 178.085 85.5529 178.388 85.8006L178.678 85.5758Z" fill="white"/>
<path d="M233.264 73.7212V78.4623H246.121V81.5436C245.77 81.5646 245.404 81.6046 245.04 81.6065C241.42 81.6065 237.799 81.6256 234.178 81.5951C233.439 81.5951 233.163 81.7856 233.201 82.5612C233.26 83.7598 233.216 84.9623 233.216 86.26C233.668 86.2809 234.035 86.3152 234.403 86.3152C238.531 86.3152 242.658 86.3381 246.79 86.3C247.609 86.3 247.893 86.4905 247.878 87.3595C247.836 89.772 247.878 89.7739 245.507 89.7739C240.267 89.7739 235.026 89.7567 229.79 89.791C228.98 89.791 228.696 89.6195 228.704 88.7468C228.744 82.936 228.744 77.1252 228.704 71.3144C228.704 70.4759 228.925 70.2454 229.767 70.2511C235.452 70.2892 241.136 70.2892 246.818 70.2511C247.676 70.2511 247.889 70.5064 247.874 71.3316C247.834 73.7193 247.874 73.7212 245.469 73.7212H233.264Z" fill="white"/>
<path d="M184.509 83.0947C185.481 83.6664 186.249 84.1676 187.059 84.5849C190.945 86.6396 195.461 87.1619 199.714 86.0484C200.481 85.8464 201.196 85.4818 201.81 84.9794C203.054 83.9618 202.749 82.2067 201.214 81.7608C200.07 81.4312 198.847 81.3797 197.652 81.3016C195.283 81.1358 192.888 81.1682 190.548 80.8404C189.237 80.6203 187.986 80.1269 186.878 79.3922C184.198 77.6771 184.132 74.1327 186.708 72.2595C187.605 71.6068 188.616 71.1267 189.688 70.8437C194.439 69.6317 199.178 69.7308 203.841 71.3372C205.375 71.867 205.366 71.9089 205.366 73.563V75.278C204.665 74.9807 204.129 74.7273 203.576 74.5158C200.031 73.1518 196.174 72.8066 192.442 73.5191C191.608 73.6932 190.82 74.0441 190.132 74.5482C189.088 75.3104 189.208 76.6653 190.399 77.1512C191.433 77.5399 192.519 77.7687 193.622 77.8296C196.209 78.0297 198.818 78.0068 201.395 78.2888C202.555 78.4146 203.74 78.9062 204.769 79.4874C207.572 81.0767 207.955 84.4953 205.644 86.7382C203.712 88.6152 201.246 89.3394 198.679 89.7434C193.862 90.5056 189.342 89.5395 185.073 87.2527C184.837 87.1251 184.553 86.8202 184.541 86.5858C184.477 85.4882 184.509 84.3829 184.509 83.0947Z" fill="white"/>
<path d="M273.243 83.1081C274.158 83.6473 274.893 84.1275 275.669 84.5334C279.72 86.6486 283.983 87.1498 288.41 86.0579C289.175 85.8558 289.89 85.4941 290.506 84.9965C291.767 83.9808 291.483 82.2334 289.934 81.7741C288.791 81.4388 287.567 81.393 286.372 81.3073C283.973 81.1358 281.553 81.1472 279.173 80.8404C277.988 80.688 276.778 80.1544 275.743 79.5236C272.862 77.7591 272.784 74.1156 275.532 72.1433C277.401 70.8094 279.592 70.4016 281.82 70.2053C285.492 69.8813 289.115 70.0662 292.613 71.362C294.065 71.9013 294.063 71.907 294.063 73.4581V75.2322C292.973 74.8206 292.051 74.4128 291.093 74.1194C287.869 73.1014 284.445 72.8945 281.123 73.5172C280.474 73.6613 279.848 73.8948 279.263 74.2108C278.579 74.5596 278.104 75.1065 278.188 75.9583C278.268 76.7777 278.842 77.2255 279.533 77.3856C280.587 77.6225 281.657 77.7755 282.735 77.8429C285.199 78.0125 287.689 77.9992 290.13 78.2926C291.318 78.4336 292.533 78.9424 293.579 79.5541C296.224 81.1034 296.628 84.3067 294.532 86.5477C293.071 88.114 291.163 88.882 289.132 89.3813C283.724 90.7152 278.617 89.8253 273.756 87.2375C273.54 87.1231 273.279 86.8468 273.27 86.6334C273.224 85.5148 273.243 84.3886 273.243 83.1081Z" fill="white"/>
<path d="M71.5531 70.272V78.0449C73.3634 78.0449 75.0918 78.0678 76.8182 78.0183C77.0564 78.0183 77.3118 77.66 77.51 77.4275C79.3546 75.2456 81.1668 73.0447 83.0362 70.8856C83.3711 70.5416 83.8207 70.3328 84.2996 70.2987C85.7459 70.2263 87.198 70.272 88.9569 70.272L80.2826 79.7485C83.2287 83.049 86.1328 86.3038 89.2275 89.7681C87.2342 89.7681 85.5039 89.791 83.7775 89.7415C83.5355 89.7415 83.2706 89.3985 83.0762 89.1698C81.1706 86.8831 79.2936 84.5563 77.3594 82.2906C77.0081 81.9185 76.5347 81.6851 76.0255 81.6332C74.8593 81.5398 73.6778 81.6446 72.5078 81.5874C71.7284 81.5512 71.5378 81.8618 71.555 82.5841C71.5931 84.583 71.5683 86.5858 71.5683 88.581V89.6995H67.094V88.7048C67.094 82.929 67.1111 77.1531 67.0768 71.3792C67.0768 70.5178 67.2865 70.1939 68.1859 70.2606C69.2454 70.3311 70.324 70.272 71.5531 70.272Z" fill="white"/>
<path d="M158.631 89.3393C155.847 83.1823 153.069 77.0235 150.247 70.8855C150.109 70.5883 149.593 70.3139 149.242 70.2986C147.527 70.2376 145.812 70.2986 144.097 70.2586C143.499 70.2453 143.198 70.4492 142.954 70.9961C140.247 76.9415 137.525 82.8819 134.788 88.8172C134.666 89.084 134.586 89.3698 134.44 89.77C135.747 89.77 136.885 89.7395 138.02 89.7833C138.592 89.8062 138.876 89.5661 139.076 89.0592C139.457 88.0854 139.924 87.1441 140.292 86.1646C140.507 85.5929 140.846 85.4328 141.435 85.4386C144.831 85.4627 148.227 85.4627 151.624 85.4386C152.257 85.4386 152.604 85.5967 152.831 86.2008C153.212 87.2108 153.642 88.2017 154.115 89.1697C154.239 89.4251 154.586 89.7262 154.843 89.7414C156.102 89.8005 157.368 89.7681 158.742 89.7681C158.714 89.623 158.677 89.4797 158.631 89.3393ZM151.148 82.3458H141.887C142.354 81.3034 142.769 80.3563 143.202 79.4169C143.964 77.7762 144.696 76.1278 145.509 74.5157C145.648 74.2413 146.125 73.9955 146.447 73.9936C146.851 73.9936 147.493 74.1403 147.628 74.4185C148.857 76.9549 149.997 79.5331 151.157 82.1019C151.18 82.1514 151.154 82.2257 151.148 82.3458Z" fill="white"/>
<path d="M45.8238 89.1945C43.0531 83.068 40.2976 76.9396 37.4811 70.8284C37.3573 70.5578 36.8713 70.3062 36.5455 70.2967C34.8647 70.2434 33.1802 70.3081 31.4995 70.2529C30.7792 70.23 30.4438 70.4949 30.1522 71.1352C27.4367 77.113 24.687 83.0737 21.9582 89.0478C21.8724 89.2383 21.8305 89.4403 21.7219 89.7776C23.0005 89.7776 24.1667 89.7528 25.3292 89.789C25.8627 89.8062 26.1295 89.5985 26.3201 89.1221C26.7298 88.0911 27.1509 87.0602 27.654 86.0731C27.7482 85.9151 27.8768 85.7803 28.0302 85.6788C28.1836 85.5772 28.3578 85.5114 28.5401 85.4862C32.0616 85.4468 35.5844 85.4468 39.1085 85.4862C39.2926 85.5118 39.4685 85.5785 39.6232 85.6815C39.778 85.7844 39.9075 85.9209 40.0022 86.0807C40.5034 87.0678 40.8826 88.1159 41.3514 89.1297C41.4695 89.385 41.7325 89.7395 41.9516 89.749C43.2684 89.8062 44.589 89.7776 46.001 89.7776C45.9525 89.5802 45.8934 89.3855 45.8238 89.1945ZM29.1365 82.3248C30.3847 79.617 31.5795 76.9892 32.8086 74.3899C33.1078 73.7554 34.5922 73.7306 34.8914 74.3613C36.1186 76.9663 37.3039 79.5922 38.5559 82.3248H29.1365Z" fill="white"/>
<path d="M226.907 70.2719V73.7687H225.763C222.015 73.7687 218.269 73.7878 214.52 73.7535C213.739 73.7535 213.459 73.9631 213.493 74.7691C213.552 76.1888 213.51 77.6123 213.51 79.152H225.794V82.3915H213.524V89.7147H209.044V88.7048C209.044 82.9251 209.061 77.1454 209.025 71.3639C209.025 70.493 209.255 70.2396 210.139 70.2472C215.38 70.2891 220.62 70.2681 225.86 70.2681L226.907 70.2719Z" fill="white"/>
<path d="M64.9292 75.7467C63.0998 74.3976 61.0227 73.8107 58.8122 73.603C56.8461 73.4077 54.8619 73.6908 53.0288 74.4281C51.8895 74.8573 50.9113 75.629 50.2288 76.6371C49.5463 77.6452 49.193 78.84 49.2176 80.0572C49.229 82.5916 50.6677 84.7392 53.1012 85.6215C57.0877 87.0698 60.9427 86.8087 64.5824 84.5068C64.6872 84.442 64.8015 84.3924 65.0664 84.2571C65.0664 85.5186 65.135 86.6829 65.0207 87.8301C64.9902 88.1312 64.4376 88.459 64.0679 88.6343C61.4382 89.8558 58.6503 90.1587 55.7938 89.911C53.5947 89.7205 51.4681 89.2383 49.5339 88.1198C46.3135 86.258 44.6613 83.4682 44.7566 79.7352C44.8519 76.0021 46.6488 73.2771 49.936 71.6955C54.5094 69.4907 59.2372 69.5002 63.9688 71.3524C64.8244 71.6878 65.215 72.1966 65.1121 73.1456C65.0283 73.9078 65.0893 74.6701 65.0759 75.4323C65.0721 75.5181 64.9997 75.6 64.9292 75.7467Z" fill="white"/>
<path d="M89.5648 70.3215H109.402V73.6677H103.091C101.85 73.6677 101.848 73.6677 101.848 74.9101C101.848 79.4493 101.848 83.989 101.848 88.5294V89.7642C100.389 89.7642 99.0299 89.789 97.675 89.7299C97.5111 89.7299 97.2405 89.2516 97.2348 88.9925C97.1986 86.8963 97.2139 84.8002 97.2139 82.704C97.2139 80.0686 97.1738 77.4331 97.2367 74.7996C97.2596 73.8468 96.9394 73.6162 96.0438 73.6563C94.1725 73.7191 92.2974 73.6563 90.4242 73.6868C89.7592 73.6982 89.5153 73.4733 89.5534 72.8083C89.5991 72.0136 89.5648 71.2209 89.5648 70.3215Z" fill="white"/>
<defs>
<filter id="filter0_d_264_5831" x="93.9358" y="5.83264" width="108.833" height="45.5954" filterUnits="userSpaceOnUse" color-interpolation-filters="sRGB">
<feFlood flood-opacity="0" result="BackgroundImageFix"/>
<feColorMatrix in="SourceAlpha" type="matrix" values="0 0 0 0 0 0 0 0 0 0 0 0 0 0 0 0 0 0 127 0" result="hardAlpha"/>
<feOffset dy="4"/>
<feGaussianBlur stdDeviation="2"/>
<feComposite in2="hardAlpha" operator="out"/>
<feColorMatrix type="matrix" values="0 0 0 0 0 0 0 0 0 0 0 0 0 0 0 0 0 0 0.1 0"/>
<feBlend mode="normal" in2="BackgroundImageFix" result="effect1_dropShadow_264_5831"/>
<feBlend mode="normal" in="SourceGraphic" in2="effect1_dropShadow_264_5831" result="shape"/>
</filter>
</defs>
</svg>
