<svg width="120" height="24" viewBox="0 0 120 24" fill="none" xmlns="http://www.w3.org/2000/svg">
<path d="M11.6196 1.17082C11.7393 0.802296 12.2607 0.802296 12.3804 1.17082L14.6044 8.0154C14.6579 8.18021 14.8115 8.2918 14.9848 8.2918H22.1816C22.5691 8.2918 22.7302 8.78764 22.4167 9.0154L16.5944 13.2456C16.4542 13.3474 16.3955 13.528 16.4491 13.6928L18.673 20.5374C18.7927 20.9059 18.3709 21.2124 18.0575 20.9846L12.2351 16.7544C12.0949 16.6526 11.9051 16.6526 11.7649 16.7544L5.94254 20.9846C5.62905 21.2124 5.20726 20.9059 5.327 20.5374L7.55094 13.6928C7.60449 13.528 7.54583 13.3474 7.40563 13.2456L1.58328 9.0154C1.2698 8.78764 1.43091 8.2918 1.8184 8.2918H9.01521C9.18851 8.2918 9.34209 8.18021 9.39564 8.0154L11.6196 1.17082Z" fill="#FFCD48"/>
<path d="M35.6196 1.17082C35.7393 0.802296 36.2607 0.802296 36.3804 1.17082L38.6044 8.0154C38.6579 8.18021 38.8115 8.2918 38.9848 8.2918H46.1816C46.5691 8.2918 46.7302 8.78764 46.4167 9.0154L40.5944 13.2456C40.4542 13.3474 40.3955 13.528 40.4491 13.6928L42.673 20.5374C42.7927 20.9059 42.3709 21.2124 42.0575 20.9846L36.2351 16.7544C36.0949 16.6526 35.9051 16.6526 35.7649 16.7544L29.9425 20.9846C29.6291 21.2124 29.2073 20.9059 29.327 20.5374L31.5509 13.6928C31.6045 13.528 31.5458 13.3474 31.4056 13.2456L25.5833 9.0154C25.2698 8.78764 25.4309 8.2918 25.8184 8.2918H33.0152C33.1885 8.2918 33.3421 8.18021 33.3956 8.0154L35.6196 1.17082Z" fill="#FFCD48"/>
<path d="M59.6196 1.17082C59.7393 0.802296 60.2607 0.802296 60.3804 1.17082L62.6044 8.0154C62.6579 8.18021 62.8115 8.2918 62.9848 8.2918H70.1816C70.5691 8.2918 70.7302 8.78764 70.4167 9.0154L64.5944 13.2456C64.4542 13.3474 64.3955 13.528 64.4491 13.6928L66.673 20.5374C66.7927 20.9059 66.3709 21.2124 66.0575 20.9846L60.2351 16.7544C60.0949 16.6526 59.9051 16.6526 59.7649 16.7544L53.9425 20.9846C53.6291 21.2124 53.2073 20.9059 53.327 20.5374L55.5509 13.6928C55.6045 13.528 55.5458 13.3474 55.4056 13.2456L49.5833 9.0154C49.2698 8.78764 49.4309 8.2918 49.8184 8.2918H57.0152C57.1885 8.2918 57.3421 8.18021 57.3956 8.0154L59.6196 1.17082Z" fill="#FFCD48"/>
<path d="M83.6196 1.17082C83.7393 0.802296 84.2607 0.802296 84.3804 1.17082L86.6044 8.0154C86.6579 8.18021 86.8115 8.2918 86.9848 8.2918H94.1816C94.5691 8.2918 94.7302 8.78764 94.4167 9.0154L88.5944 13.2456C88.4542 13.3474 88.3955 13.528 88.4491 13.6928L90.673 20.5374C90.7927 20.9059 90.3709 21.2124 90.0575 20.9846L84.2351 16.7544C84.0949 16.6526 83.9051 16.6526 83.7649 16.7544L77.9425 20.9846C77.6291 21.2124 77.2073 20.9059 77.327 20.5374L79.5509 13.6928C79.6045 13.528 79.5458 13.3474 79.4056 13.2456L73.5833 9.0154C73.2698 8.78764 73.4309 8.2918 73.8184 8.2918H81.0152C81.1885 8.2918 81.3421 8.18021 81.3956 8.0154L83.6196 1.17082Z" fill="#FFCD48"/>
<path d="M107.62 1.17082C107.739 0.802296 108.261 0.802296 108.38 1.17082L110.604 8.0154C110.658 8.18021 110.811 8.2918 110.985 8.2918H118.182C118.569 8.2918 118.73 8.78764 118.417 9.0154L112.594 13.2456C112.454 13.3474 112.396 13.528 112.449 13.6928L114.673 20.5374C114.793 20.9059 114.371 21.2124 114.057 20.9846L108.235 16.7544C108.095 16.6526 107.905 16.6526 107.765 16.7544L101.943 20.9846C101.629 21.2124 101.207 20.9059 101.327 20.5374L103.551 13.6928C103.604 13.528 103.546 13.3474 103.406 13.2456L97.5833 9.0154C97.2698 8.78764 97.4309 8.2918 97.8184 8.2918H105.015C105.189 8.2918 105.342 8.18021 105.396 8.0154L107.62 1.17082Z" fill="#FFCD48"/>
</svg>
