<svg width="80" height="80" viewBox="0 0 80 80" fill="none" xmlns="http://www.w3.org/2000/svg">
<circle cx="40" cy="40" r="40" fill="#E95440"/>
<path d="M52.9743 37.7612C52.9743 37.3426 52.8069 36.9241 52.5056 36.6228L50.2288 34.346C49.9275 34.0446 49.5089 33.8772 49.0904 33.8772C48.6719 33.8772 48.2533 34.0446 47.952 34.346L36.9699 45.3449L32.048 40.4062C31.7467 40.1049 31.3281 39.9375 30.9096 39.9375C30.4911 39.9375 30.0725 40.1049 29.7712 40.4062L27.4944 42.683C27.1931 42.9844 27.0257 43.4029 27.0257 43.8214C27.0257 44.24 27.1931 44.6585 27.4944 44.9598L33.5547 51.0201L35.8315 53.2969C36.1328 53.5982 36.5513 53.7656 36.9699 53.7656C37.3884 53.7656 37.8069 53.5982 38.1083 53.2969L40.385 51.0201L52.5056 38.8996C52.8069 38.5982 52.9743 38.1797 52.9743 37.7612Z" fill="white"/>
</svg>
