<svg width="48" height="38" viewBox="0 0 48 38" fill="none" xmlns="http://www.w3.org/2000/svg">
<path d="M44.0597 14.1442L45.4212 11.875H46.5938C47.3704 11.875 48 11.2454 48 10.4688C48 9.69213 47.3704 9.0625 46.5938 9.0625H44.625C44.131 9.0625 43.6733 9.32172 43.4192 9.74528L42.2742 11.6535L40.386 5.04466C39.6425 2.44244 37.233 0.625 34.5267 0.625H13.4733C10.767 0.625 8.35753 2.44244 7.614 5.04475L5.72578 11.6536L4.58081 9.74537C4.32666 9.32172 3.86897 9.0625 3.375 9.0625H1.40625C0.629625 9.0625 0 9.69213 0 10.4688C0 11.2454 0.629625 11.875 1.40625 11.875H2.57878L3.94031 14.1442C1.64006 15.0162 0 17.2415 0 19.8438V30.3438C0 31.1204 0.629625 31.75 1.40625 31.75H3.84375V34.0938C3.84375 35.903 5.31572 37.375 7.125 37.375H10.875C12.6843 37.375 14.1562 35.903 14.1562 34.0938V31.75H33.8438V34.0938C33.8438 35.903 35.3157 37.375 37.125 37.375H40.875C42.6843 37.375 44.1562 35.903 44.1562 34.0938V31.75H46.5938C47.3704 31.75 48 31.1204 48 30.3438V19.8438C48 17.2415 46.3599 15.0162 44.0597 14.1442ZM10.3183 5.81734C10.7186 4.41616 12.016 3.4375 13.4733 3.4375H34.5267C35.984 3.4375 37.2814 4.41616 37.6817 5.81734L39.9482 13.75H37.4523C36.799 10.5445 33.958 8.125 30.5625 8.125C27.167 8.125 24.3261 10.5445 23.6727 13.75H8.05181L10.3183 5.81734ZM26.5847 13.75C27.1651 12.113 28.7291 10.9375 30.5625 10.9375C32.3959 10.9375 33.9599 12.113 34.5403 13.75H26.5847ZM11.3438 34.0938C11.3438 34.3522 11.1335 34.5625 10.875 34.5625H7.125C6.86653 34.5625 6.65625 34.3522 6.65625 34.0938V31.75H11.3438V34.0938ZM19.7812 28.9375V25H28.2188V28.9375H19.7812ZM41.3438 34.0938C41.3438 34.3522 41.1335 34.5625 40.875 34.5625H37.125C36.8665 34.5625 36.6562 34.3522 36.6562 34.0938V31.75H41.3438V34.0938ZM45.1875 28.9375H31.0312V23.5938C31.0312 22.8171 30.4016 22.1875 29.625 22.1875H18.375C17.5984 22.1875 16.9688 22.8171 16.9688 23.5938V28.9375H2.8125V19.8438C2.8125 18.0345 4.28447 16.5625 6.09375 16.5625H6.18159C6.18403 16.5625 6.18638 16.5627 6.18881 16.5627C6.19116 16.5627 6.19341 16.5625 6.19575 16.5625H41.8042C41.8066 16.5625 41.8088 16.5627 41.8112 16.5627C41.8136 16.5627 41.816 16.5625 41.8184 16.5625H41.9062C43.7155 16.5625 45.1875 18.0345 45.1875 19.8438V28.9375Z" fill="#181A1F"/>
<path d="M38.0625 18.5312C35.7363 18.5312 33.8438 20.4238 33.8438 22.75C33.8438 25.0762 35.7363 26.9688 38.0625 26.9688C40.3887 26.9688 42.2812 25.0762 42.2812 22.75C42.2812 20.4238 40.3887 18.5312 38.0625 18.5312ZM38.0625 24.1562C37.2871 24.1562 36.6562 23.5254 36.6562 22.75C36.6562 21.9746 37.2871 21.3438 38.0625 21.3438C38.8379 21.3438 39.4688 21.9746 39.4688 22.75C39.4688 23.5254 38.8379 24.1562 38.0625 24.1562Z" fill="#181A1F"/>
<path d="M9.9375 18.5312C7.61128 18.5312 5.71875 20.4238 5.71875 22.75C5.71875 25.0762 7.61128 26.9688 9.9375 26.9688C12.2637 26.9688 14.1562 25.0762 14.1562 22.75C14.1562 20.4238 12.2637 18.5312 9.9375 18.5312ZM9.9375 24.1562C9.16209 24.1562 8.53125 23.5254 8.53125 22.75C8.53125 21.9746 9.16209 21.3438 9.9375 21.3438C10.7129 21.3438 11.3438 21.9746 11.3438 22.75C11.3438 23.5254 10.7129 24.1562 9.9375 24.1562Z" fill="#181A1F"/>
</svg>
