<svg width="34" height="34" viewBox="0 0 34 34" fill="none" xmlns="http://www.w3.org/2000/svg">
<rect width="34" height="34" rx="6" fill="#F6F6F6"/>
<g clip-path="url(#clip0_146_6070)">
<path d="M17 10C13.1311 10 10 13.1308 10 17C10 20.8689 13.1308 24 17 24C20.8689 24 24 20.8692 24 17C24 13.1311 20.8692 10 17 10ZM20.154 17.4667H17.4667V20.154C17.4667 20.4117 17.2577 20.6206 17 20.6206C16.7423 20.6206 16.5333 20.4117 16.5333 20.154V17.4667H13.846C13.5883 17.4667 13.3794 17.2577 13.3794 17C13.3794 16.7423 13.5883 16.5333 13.846 16.5333H16.5333V13.846C16.5333 13.5883 16.7423 13.3794 17 13.3794C17.2577 13.3794 17.4667 13.5883 17.4667 13.846V16.5333H20.154C20.4117 16.5333 20.6206 16.7423 20.6206 17C20.6206 17.2577 20.4117 17.4667 20.154 17.4667Z" fill="black"/>
</g>
<defs>
<clipPath id="clip0_146_6070">
<rect width="14" height="14" fill="white" transform="translate(10 10)"/>
</clipPath>
</defs>
</svg>
